<svg width="1600" height="163" viewBox="0 0 1600 163" fill="none" xmlns="http://www.w3.org/2000/svg">
<g filter="url(#filter0_d_3721_56712)">
<path d="M1336 18C1336 13.5817 1339.58 10 1344 10H1568C1572.42 10 1576 13.5817 1576 18V66H1336V18Z" fill="white"/>
</g>
<path d="M1369.83 36.2536H1367.97C1367.92 35.9486 1367.82 35.6785 1367.68 35.4432C1367.54 35.2045 1367.36 35.0024 1367.15 34.8366C1366.94 34.6709 1366.69 34.5466 1366.42 34.4638C1366.15 34.3776 1365.86 34.3345 1365.55 34.3345C1365 34.3345 1364.51 34.4737 1364.08 34.7521C1363.65 35.0272 1363.32 35.4316 1363.08 35.9652C1362.84 36.4955 1362.71 37.1435 1362.71 37.9091C1362.71 38.688 1362.84 39.3442 1363.08 39.8778C1363.32 40.4081 1363.66 40.8092 1364.08 41.081C1364.51 41.3494 1365 41.4837 1365.55 41.4837C1365.85 41.4837 1366.14 41.4439 1366.4 41.3643C1366.67 41.2815 1366.91 41.1605 1367.12 41.0014C1367.34 40.8423 1367.52 40.6468 1367.67 40.4148C1367.82 40.1828 1367.92 39.9176 1367.97 39.6193L1369.83 39.6293C1369.76 40.1132 1369.61 40.5672 1369.38 40.9915C1369.15 41.4157 1368.85 41.7902 1368.48 42.1151C1368.11 42.4366 1367.68 42.6884 1367.18 42.8707C1366.68 43.0497 1366.13 43.1392 1365.52 43.1392C1364.63 43.1392 1363.83 42.9321 1363.13 42.5178C1362.42 42.1035 1361.87 41.5052 1361.47 40.723C1361.06 39.9408 1360.86 39.0028 1360.86 37.9091C1360.86 36.812 1361.06 35.8741 1361.47 35.0952C1361.88 34.313 1362.43 33.7147 1363.14 33.3004C1363.84 32.8861 1364.64 32.679 1365.52 32.679C1366.09 32.679 1366.62 32.7585 1367.1 32.9176C1367.59 33.0767 1368.03 33.3104 1368.41 33.6186C1368.79 33.9235 1369.1 34.2981 1369.35 34.7422C1369.6 35.183 1369.76 35.6868 1369.83 36.2536ZM1374.77 43.1491C1374.03 43.1491 1373.38 42.9851 1372.84 42.657C1372.29 42.3288 1371.86 41.8698 1371.56 41.2798C1371.26 40.6899 1371.12 40.0005 1371.12 39.2116C1371.12 38.4228 1371.26 37.7318 1371.56 37.1385C1371.86 36.5452 1372.29 36.0845 1372.84 35.7564C1373.38 35.4283 1374.03 35.2642 1374.77 35.2642C1375.52 35.2642 1376.17 35.4283 1376.71 35.7564C1377.26 36.0845 1377.68 36.5452 1377.98 37.1385C1378.28 37.7318 1378.43 38.4228 1378.43 39.2116C1378.43 40.0005 1378.28 40.6899 1377.98 41.2798C1377.68 41.8698 1377.26 42.3288 1376.71 42.657C1376.17 42.9851 1375.52 43.1491 1374.77 43.1491ZM1374.78 41.7074C1375.19 41.7074 1375.53 41.5964 1375.8 41.3743C1376.07 41.1489 1376.27 40.8473 1376.4 40.4695C1376.54 40.0916 1376.61 39.6707 1376.61 39.2067C1376.61 38.7393 1376.54 38.3168 1376.4 37.9389C1376.27 37.5578 1376.07 37.2545 1375.8 37.0291C1375.53 36.8037 1375.19 36.6911 1374.78 36.6911C1374.37 36.6911 1374.03 36.8037 1373.75 37.0291C1373.48 37.2545 1373.27 37.5578 1373.14 37.9389C1373.01 38.3168 1372.94 38.7393 1372.94 39.2067C1372.94 39.6707 1373.01 40.0916 1373.14 40.4695C1373.27 40.8473 1373.48 41.1489 1373.75 41.3743C1374.03 41.5964 1374.37 41.7074 1374.78 41.7074ZM1383.29 43.1491C1382.55 43.1491 1381.9 42.9851 1381.35 42.657C1380.81 42.3288 1380.38 41.8698 1380.08 41.2798C1379.78 40.6899 1379.63 40.0005 1379.63 39.2116C1379.63 38.4228 1379.78 37.7318 1380.08 37.1385C1380.38 36.5452 1380.81 36.0845 1381.35 35.7564C1381.9 35.4283 1382.55 35.2642 1383.29 35.2642C1384.04 35.2642 1384.68 35.4283 1385.23 35.7564C1385.78 36.0845 1386.2 36.5452 1386.5 37.1385C1386.8 37.7318 1386.95 38.4228 1386.95 39.2116C1386.95 40.0005 1386.8 40.6899 1386.5 41.2798C1386.2 41.8698 1385.78 42.3288 1385.23 42.657C1384.68 42.9851 1384.04 43.1491 1383.29 43.1491ZM1383.3 41.7074C1383.71 41.7074 1384.04 41.5964 1384.32 41.3743C1384.59 41.1489 1384.79 40.8473 1384.92 40.4695C1385.06 40.0916 1385.13 39.6707 1385.13 39.2067C1385.13 38.7393 1385.06 38.3168 1384.92 37.9389C1384.79 37.5578 1384.59 37.2545 1384.32 37.0291C1384.04 36.8037 1383.71 36.6911 1383.3 36.6911C1382.89 36.6911 1382.54 36.8037 1382.27 37.0291C1382 37.2545 1381.79 37.5578 1381.66 37.9389C1381.52 38.3168 1381.46 38.7393 1381.46 39.2067C1381.46 39.6707 1381.52 40.0916 1381.66 40.4695C1381.79 40.8473 1382 41.1489 1382.27 41.3743C1382.54 41.5964 1382.89 41.7074 1383.3 41.7074ZM1394.6 32.5398L1395.22 33.7031C1395 33.8954 1394.75 34.0346 1394.48 34.1207C1394.2 34.2069 1393.88 34.2633 1393.51 34.2898C1393.14 34.313 1392.7 34.3295 1392.2 34.3395C1391.63 34.3527 1391.16 34.4605 1390.8 34.6626C1390.44 34.8648 1390.16 35.1714 1389.97 35.5824C1389.78 35.9901 1389.65 36.5104 1389.59 37.1435H1389.68C1389.92 36.6761 1390.25 36.3198 1390.68 36.0746C1391.11 35.8293 1391.62 35.7067 1392.2 35.7067C1392.83 35.7067 1393.39 35.8492 1393.87 36.1342C1394.36 36.416 1394.74 36.8253 1395.01 37.3622C1395.29 37.8991 1395.42 38.5488 1395.42 39.3111C1395.42 40.0966 1395.28 40.7777 1394.98 41.3544C1394.69 41.9278 1394.27 42.3703 1393.72 42.6818C1393.18 42.9934 1392.54 43.1491 1391.8 43.1491C1391.06 43.1491 1390.42 42.9884 1389.87 42.6669C1389.33 42.3421 1388.91 41.8632 1388.61 41.2301C1388.31 40.5937 1388.17 39.8099 1388.17 38.8786V38.1925C1388.17 36.3961 1388.5 35.0554 1389.17 34.1705C1389.84 33.2855 1390.83 32.8348 1392.15 32.8182C1392.54 32.8116 1392.89 32.8099 1393.2 32.8132C1393.51 32.8165 1393.78 32.8016 1394.01 32.7685C1394.24 32.7353 1394.44 32.6591 1394.6 32.5398ZM1391.81 41.7074C1392.18 41.7074 1392.5 41.6129 1392.76 41.424C1393.03 41.2318 1393.24 40.96 1393.38 40.6087C1393.53 40.2573 1393.6 39.8414 1393.6 39.3608C1393.6 38.8868 1393.53 38.4841 1393.38 38.1527C1393.23 37.8179 1393.03 37.5627 1392.76 37.3871C1392.49 37.2114 1392.17 37.1236 1391.8 37.1236C1391.52 37.1236 1391.27 37.1733 1391.05 37.2727C1390.83 37.3722 1390.64 37.518 1390.48 37.7102C1390.33 37.9025 1390.21 38.1361 1390.12 38.4112C1390.04 38.6863 1390 39.0028 1389.99 39.3608C1389.99 40.08 1390.15 40.6518 1390.48 41.076C1390.8 41.4969 1391.25 41.7074 1391.81 41.7074ZM1408.42 41.5234L1408.28 45.1875H1406.58V43H1405.68V41.5234H1408.42ZM1396.95 35.3636H1398.69V41.5185H1401.09V35.3636H1402.83V41.5185H1405.23V35.3636H1406.96V43H1396.95V35.3636ZM1413.15 43.1491C1412.38 43.1491 1411.72 42.9901 1411.16 42.6719C1410.61 42.3504 1410.18 41.8963 1409.88 41.3097C1409.59 40.7197 1409.44 40.0253 1409.44 39.2266C1409.44 38.4411 1409.59 37.7517 1409.88 37.1584C1410.19 36.5618 1410.61 36.0978 1411.15 35.7663C1411.69 35.4316 1412.32 35.2642 1413.05 35.2642C1413.52 35.2642 1413.97 35.3404 1414.38 35.4929C1414.81 35.642 1415.18 35.8741 1415.5 36.1889C1415.82 36.5038 1416.08 36.9048 1416.26 37.392C1416.45 37.8759 1416.54 38.4527 1416.54 39.1222V39.674H1410.28V38.4609H1414.82C1414.81 38.1162 1414.74 37.8097 1414.59 37.5412C1414.45 37.2694 1414.24 37.0556 1413.98 36.8999C1413.72 36.7441 1413.42 36.6662 1413.08 36.6662C1412.71 36.6662 1412.39 36.7557 1412.11 36.9347C1411.83 37.1103 1411.61 37.3423 1411.46 37.6307C1411.3 37.9157 1411.23 38.2289 1411.22 38.5703V39.6293C1411.22 40.0734 1411.3 40.4545 1411.47 40.7727C1411.63 41.0876 1411.86 41.3295 1412.15 41.4986C1412.44 41.6643 1412.78 41.7472 1413.17 41.7472C1413.43 41.7472 1413.67 41.7107 1413.88 41.6378C1414.09 41.5616 1414.28 41.4505 1414.43 41.3047C1414.59 41.1589 1414.71 40.9782 1414.79 40.7628L1416.47 40.9517C1416.36 41.3958 1416.16 41.7836 1415.86 42.1151C1415.57 42.4432 1415.19 42.6984 1414.73 42.8807C1414.27 43.0597 1413.74 43.1491 1413.15 43.1491ZM1423.31 38.4361V39.9126H1419.24V38.4361H1423.31ZM1419.8 35.3636V43H1418.06V35.3636H1419.8ZM1424.49 35.3636V43H1422.76V35.3636H1424.49ZM1428.04 40.5639L1431.1 35.3636H1432.95V43H1431.21V37.7947L1428.16 43H1426.31V35.3636H1428.04V40.5639ZM1439.31 43V36.8253H1437.68C1437.27 36.8253 1436.95 36.9214 1436.73 37.1136C1436.51 37.3059 1436.4 37.5445 1436.4 37.8295C1436.4 38.1146 1436.5 38.3499 1436.71 38.5355C1436.92 38.7211 1437.23 38.8139 1437.62 38.8139H1439.88V40.1264H1437.62C1437.01 40.1264 1436.49 40.0303 1436.04 39.8381C1435.6 39.6458 1435.26 39.3741 1435.02 39.0227C1434.78 38.6714 1434.66 38.2604 1434.66 37.7898C1434.66 37.2992 1434.78 36.8733 1435.02 36.5121C1435.27 36.1475 1435.62 35.8658 1436.07 35.6669C1436.52 35.4647 1437.06 35.3636 1437.68 35.3636H1441V43H1439.31ZM1434.38 43L1436.51 39.0824H1438.29L1436.15 43H1434.38Z" fill="#2A2C36"/>
<circle cx="1462" cy="38" r="12" fill="#F33939"/>
<path d="M1459.06 43V41.6676L1462.59 38.2024C1462.93 37.861 1463.21 37.5578 1463.44 37.2926C1463.66 37.0275 1463.83 36.7706 1463.94 36.522C1464.06 36.2734 1464.11 36.0083 1464.11 35.7266C1464.11 35.4051 1464.04 35.13 1463.89 34.9013C1463.75 34.6693 1463.55 34.4903 1463.29 34.3643C1463.04 34.2384 1462.75 34.1754 1462.42 34.1754C1462.09 34.1754 1461.79 34.245 1461.54 34.3842C1461.29 34.5201 1461.1 34.714 1460.96 34.9659C1460.82 35.2178 1460.75 35.5178 1460.75 35.8658H1459C1459 35.2195 1459.15 34.6577 1459.44 34.1804C1459.73 33.7031 1460.14 33.3336 1460.66 33.0717C1461.18 32.8099 1461.77 32.679 1462.45 32.679C1463.13 32.679 1463.73 32.8066 1464.25 33.0618C1464.76 33.317 1465.17 33.6667 1465.45 34.1108C1465.74 34.5549 1465.88 35.062 1465.88 35.6321C1465.88 36.0133 1465.81 36.3878 1465.66 36.7557C1465.52 37.1236 1465.26 37.5312 1464.89 37.9787C1464.53 38.4261 1464.02 38.968 1463.36 39.6044L1461.6 41.3892V41.4588H1466.04V43H1459.06Z" fill="white"/>
<path d="M1549.53 40.5311C1549.46 40.6011 1549.38 40.6565 1549.29 40.6944C1549.2 40.7322 1549.1 40.7517 1549 40.7517C1548.9 40.7517 1548.8 40.7322 1548.71 40.6944C1548.62 40.6565 1548.54 40.6011 1548.47 40.5311L1544 36.063L1539.53 40.5311C1539.39 40.672 1539.2 40.7512 1539 40.7512C1538.8 40.7512 1538.61 40.672 1538.47 40.5311C1538.33 40.3902 1538.25 40.1991 1538.25 39.9999C1538.25 39.8006 1538.33 39.6095 1538.47 39.4686L1543.47 34.4686C1543.54 34.3987 1543.62 34.3432 1543.71 34.3054C1543.8 34.2675 1543.9 34.248 1544 34.248C1544.1 34.248 1544.2 34.2675 1544.29 34.3054C1544.38 34.3432 1544.46 34.3987 1544.53 34.4686L1549.53 39.4686C1549.6 39.5383 1549.66 39.6211 1549.7 39.7123C1549.73 39.8034 1549.75 39.9012 1549.75 39.9999C1549.75 40.0986 1549.73 40.1963 1549.7 40.2875C1549.66 40.3787 1549.6 40.4615 1549.53 40.5311Z" fill="#343330"/>
<rect y="67" width="1600" height="96" fill="white"/>
<circle cx="220" cy="111" r="20" fill="#F6F5FA"/>
<path d="M220 105C219.258 105 218.533 105.22 217.917 105.632C217.3 106.044 216.819 106.63 216.535 107.315C216.252 108 216.177 108.754 216.322 109.482C216.467 110.209 216.824 110.877 217.348 111.402C217.873 111.926 218.541 112.283 219.268 112.428C219.996 112.573 220.75 112.498 221.435 112.215C222.12 111.931 222.706 111.45 223.118 110.833C223.53 110.217 223.75 109.492 223.75 108.75C223.75 107.755 223.355 106.802 222.652 106.098C221.948 105.395 220.995 105 220 105ZM220 111C219.555 111 219.12 110.868 218.75 110.621C218.38 110.374 218.092 110.022 217.921 109.611C217.751 109.2 217.706 108.748 217.793 108.311C217.88 107.875 218.094 107.474 218.409 107.159C218.724 106.844 219.125 106.63 219.561 106.543C219.998 106.456 220.45 106.501 220.861 106.671C221.272 106.842 221.624 107.13 221.871 107.5C222.118 107.87 222.25 108.305 222.25 108.75C222.25 109.347 222.013 109.919 221.591 110.341C221.169 110.763 220.597 111 220 111ZM220 100.5C217.813 100.502 215.716 101.372 214.169 102.919C212.622 104.466 211.752 106.563 211.75 108.75C211.75 111.694 213.11 114.814 215.688 117.773C216.846 119.111 218.149 120.315 219.573 121.364C219.7 121.452 219.85 121.5 220.004 121.5C220.158 121.5 220.308 121.452 220.434 121.364C221.856 120.315 223.157 119.11 224.312 117.773C226.886 114.814 228.25 111.694 228.25 108.75C228.248 106.563 227.378 104.466 225.831 102.919C224.284 101.372 222.187 100.502 220 100.5ZM220 119.812C218.45 118.594 213.25 114.117 213.25 108.75C213.25 106.96 213.961 105.243 215.227 103.977C216.493 102.711 218.21 102 220 102C221.79 102 223.507 102.711 224.773 103.977C226.039 105.243 226.75 106.96 226.75 108.75C226.75 114.115 221.55 118.594 220 119.812Z" fill="#2A2C36"/>
<path d="M249.233 105.818H250.705L254.165 114.27H254.284L257.744 105.818H259.216V116H258.062V108.264H257.963L254.781 116H253.668L250.486 108.264H250.386V116H249.233V105.818ZM264.631 116.159C263.942 116.159 263.337 115.995 262.817 115.667C262.3 115.339 261.895 114.88 261.604 114.29C261.315 113.7 261.171 113.01 261.171 112.222C261.171 111.426 261.315 110.732 261.604 110.138C261.895 109.545 262.3 109.085 262.817 108.756C263.337 108.428 263.942 108.264 264.631 108.264C265.321 108.264 265.924 108.428 266.441 108.756C266.961 109.085 267.366 109.545 267.654 110.138C267.946 110.732 268.091 111.426 268.091 112.222C268.091 113.01 267.946 113.7 267.654 114.29C267.366 114.88 266.961 115.339 266.441 115.667C265.924 115.995 265.321 116.159 264.631 116.159ZM264.631 115.105C265.155 115.105 265.586 114.971 265.924 114.702C266.262 114.434 266.512 114.081 266.675 113.643C266.837 113.206 266.918 112.732 266.918 112.222C266.918 111.711 266.837 111.236 266.675 110.795C266.512 110.354 266.262 109.998 265.924 109.726C265.586 109.454 265.155 109.318 264.631 109.318C264.108 109.318 263.677 109.454 263.339 109.726C263.001 109.998 262.75 110.354 262.588 110.795C262.425 111.236 262.344 111.711 262.344 112.222C262.344 112.732 262.425 113.206 262.588 113.643C262.75 114.081 263.001 114.434 263.339 114.702C263.677 114.971 264.108 115.105 264.631 115.105ZM272.985 116.159C272.269 116.159 271.652 115.99 271.135 115.652C270.618 115.314 270.221 114.848 269.942 114.255C269.664 113.662 269.525 112.984 269.525 112.222C269.525 111.446 269.667 110.762 269.952 110.168C270.24 109.572 270.641 109.106 271.155 108.771C271.672 108.433 272.275 108.264 272.965 108.264C273.502 108.264 273.986 108.364 274.417 108.562C274.847 108.761 275.2 109.04 275.475 109.398C275.751 109.756 275.921 110.173 275.988 110.651H274.814C274.725 110.303 274.526 109.994 274.218 109.726C273.913 109.454 273.502 109.318 272.985 109.318C272.527 109.318 272.126 109.437 271.782 109.676C271.44 109.911 271.173 110.245 270.981 110.675C270.792 111.103 270.698 111.605 270.698 112.182C270.698 112.772 270.791 113.286 270.976 113.723C271.165 114.161 271.43 114.5 271.772 114.742C272.116 114.984 272.521 115.105 272.985 115.105C273.29 115.105 273.566 115.052 273.815 114.946C274.064 114.84 274.274 114.688 274.446 114.489C274.619 114.29 274.741 114.051 274.814 113.773H275.988C275.921 114.223 275.757 114.629 275.495 114.991C275.237 115.349 274.894 115.634 274.466 115.846C274.042 116.055 273.548 116.159 272.985 116.159ZM277.703 116V108.364H278.876V111.685H279.652L282.396 108.364H283.907L280.825 112.043L283.947 116H282.436L279.93 112.778H278.876V116H277.703ZM285.222 116V108.364H288.344C289.166 108.364 289.819 108.549 290.303 108.92C290.787 109.292 291.029 109.782 291.029 110.392C291.029 110.856 290.892 111.216 290.616 111.471C290.341 111.723 289.988 111.893 289.558 111.983C289.839 112.023 290.113 112.122 290.378 112.281C290.646 112.44 290.868 112.659 291.044 112.938C291.22 113.213 291.308 113.551 291.308 113.952C291.308 114.343 291.208 114.692 291.009 115.001C290.81 115.309 290.525 115.553 290.154 115.732C289.783 115.911 289.339 116 288.822 116H285.222ZM286.336 114.926H288.822C289.226 114.926 289.543 114.83 289.771 114.638C290 114.446 290.114 114.184 290.114 113.852C290.114 113.458 290 113.148 289.771 112.923C289.543 112.694 289.226 112.58 288.822 112.58H286.336V114.926ZM286.336 111.565H288.344C288.659 111.565 288.929 111.522 289.155 111.436C289.38 111.347 289.553 111.221 289.672 111.058C289.795 110.893 289.856 110.697 289.856 110.472C289.856 110.15 289.722 109.898 289.453 109.716C289.185 109.53 288.815 109.438 288.344 109.438H286.336V111.565ZM295.331 116.179C294.847 116.179 294.408 116.088 294.013 115.906C293.619 115.72 293.306 115.453 293.074 115.105C292.842 114.754 292.726 114.33 292.726 113.832C292.726 113.395 292.812 113.04 292.984 112.768C293.157 112.493 293.387 112.278 293.675 112.122C293.964 111.966 294.282 111.85 294.63 111.774C294.981 111.695 295.334 111.632 295.689 111.585C296.153 111.526 296.529 111.481 296.817 111.451C297.109 111.418 297.321 111.363 297.454 111.287C297.59 111.211 297.657 111.078 297.657 110.889V110.849C297.657 110.359 297.523 109.978 297.255 109.706C296.99 109.434 296.587 109.298 296.047 109.298C295.487 109.298 295.047 109.421 294.729 109.666C294.411 109.911 294.187 110.173 294.058 110.452L292.944 110.054C293.143 109.59 293.408 109.229 293.74 108.97C294.075 108.708 294.439 108.526 294.834 108.423C295.231 108.317 295.622 108.264 296.007 108.264C296.252 108.264 296.534 108.294 296.852 108.354C297.174 108.41 297.483 108.528 297.782 108.707C298.083 108.886 298.334 109.156 298.532 109.517C298.731 109.878 298.831 110.362 298.831 110.969V116H297.657V114.966H297.598C297.518 115.132 297.386 115.309 297.2 115.498C297.015 115.687 296.768 115.848 296.459 115.98C296.151 116.113 295.775 116.179 295.331 116.179ZM295.51 115.125C295.974 115.125 296.365 115.034 296.683 114.852C297.005 114.669 297.247 114.434 297.409 114.146C297.575 113.857 297.657 113.554 297.657 113.236V112.162C297.608 112.222 297.498 112.276 297.329 112.326C297.164 112.372 296.971 112.414 296.753 112.45C296.537 112.483 296.327 112.513 296.121 112.54C295.919 112.563 295.755 112.583 295.629 112.599C295.324 112.639 295.039 112.704 294.774 112.793C294.512 112.879 294.3 113.01 294.138 113.186C293.979 113.358 293.899 113.594 293.899 113.892C293.899 114.3 294.05 114.608 294.351 114.817C294.656 115.022 295.042 115.125 295.51 115.125Z" fill="#2A2C36"/>
<path d="M1389.72 111.273C1389.72 110.768 1389.84 110.308 1390.09 109.892C1390.33 109.477 1390.66 109.146 1391.08 108.9C1391.5 108.654 1391.96 108.531 1392.46 108.531C1392.9 108.531 1393.3 108.624 1393.67 108.812C1394.04 109 1394.35 109.257 1394.59 109.583C1394.84 109.906 1394.99 110.272 1395.05 110.682H1393.93C1393.87 110.365 1393.7 110.106 1393.42 109.906C1393.14 109.703 1392.82 109.602 1392.46 109.602C1392.15 109.602 1391.87 109.677 1391.62 109.828C1391.37 109.979 1391.17 110.18 1391.02 110.433C1390.86 110.685 1390.79 110.965 1390.79 111.273C1390.79 111.58 1390.86 111.861 1391.02 112.113C1391.17 112.365 1391.37 112.567 1391.62 112.718C1391.87 112.868 1392.15 112.944 1392.46 112.944C1392.82 112.944 1393.12 112.844 1393.36 112.644C1393.61 112.441 1393.77 112.181 1393.84 111.864H1394.95C1394.89 112.273 1394.75 112.641 1394.52 112.967C1394.3 113.29 1394 113.546 1393.65 113.733C1393.29 113.921 1392.9 114.015 1392.46 114.015C1391.96 114.015 1391.5 113.892 1391.08 113.646C1390.66 113.399 1390.33 113.069 1390.09 112.653C1389.84 112.238 1389.72 111.777 1389.72 111.273ZM1392.41 116.148C1391.74 116.148 1391.11 116.022 1390.52 115.769C1389.93 115.517 1389.41 115.167 1388.97 114.721C1388.52 114.272 1388.17 113.753 1387.91 113.165C1387.66 112.578 1387.54 111.947 1387.54 111.273C1387.54 110.599 1387.67 109.968 1387.92 109.38C1388.18 108.792 1388.53 108.275 1388.97 107.829C1389.42 107.379 1389.94 107.029 1390.53 106.776C1391.11 106.524 1391.74 106.398 1392.41 106.398C1393.09 106.398 1393.72 106.524 1394.31 106.776C1394.9 107.029 1395.41 107.379 1395.86 107.829C1396.3 108.275 1396.65 108.792 1396.91 109.38C1397.16 109.968 1397.29 110.599 1397.29 111.273C1397.29 111.947 1397.17 112.578 1396.91 113.165C1396.66 113.753 1396.31 114.272 1395.87 114.721C1395.42 115.167 1394.9 115.517 1394.31 115.769C1393.72 116.022 1393.09 116.148 1392.41 116.148ZM1392.41 115.077C1392.94 115.077 1393.43 114.978 1393.9 114.781C1394.36 114.584 1394.76 114.312 1395.11 113.964C1395.46 113.616 1395.73 113.213 1395.93 112.755C1396.12 112.293 1396.22 111.801 1396.22 111.277C1396.21 110.751 1396.11 110.257 1395.92 109.795C1395.72 109.334 1395.45 108.929 1395.1 108.581C1394.75 108.234 1394.35 107.961 1393.89 107.764C1393.43 107.567 1392.94 107.469 1392.41 107.469C1391.89 107.469 1391.4 107.567 1390.94 107.764C1390.48 107.961 1390.08 108.235 1389.73 108.586C1389.38 108.934 1389.11 109.338 1388.91 109.8C1388.71 110.259 1388.61 110.751 1388.61 111.277C1388.61 111.797 1388.7 112.288 1388.9 112.75C1389.1 113.209 1389.37 113.612 1389.72 113.96C1390.07 114.307 1390.47 114.581 1390.93 114.781C1391.39 114.978 1391.89 115.077 1392.41 115.077ZM1403.16 116V106.545H1406.47C1407.13 106.545 1407.67 106.659 1408.1 106.887C1408.53 107.112 1408.85 107.415 1409.06 107.797C1409.26 108.175 1409.37 108.595 1409.37 109.057C1409.37 109.463 1409.3 109.799 1409.15 110.063C1409.01 110.328 1408.82 110.537 1408.59 110.691C1408.36 110.845 1408.11 110.959 1407.84 111.033V111.125C1408.13 111.143 1408.42 111.245 1408.71 111.43C1409 111.614 1409.25 111.879 1409.44 112.224C1409.64 112.568 1409.74 112.99 1409.74 113.489C1409.74 113.963 1409.63 114.389 1409.42 114.767C1409.2 115.146 1408.86 115.446 1408.39 115.668C1407.93 115.889 1407.33 116 1406.58 116H1403.16ZM1404.31 114.984H1406.58C1407.33 114.984 1407.86 114.84 1408.17 114.55C1408.49 114.258 1408.65 113.904 1408.65 113.489C1408.65 113.169 1408.57 112.873 1408.4 112.602C1408.24 112.328 1408.01 112.11 1407.71 111.947C1407.41 111.781 1407.05 111.697 1406.64 111.697H1404.31V114.984ZM1404.31 110.7H1406.43C1406.78 110.7 1407.09 110.633 1407.37 110.497C1407.65 110.362 1407.87 110.171 1408.03 109.925C1408.2 109.679 1408.28 109.389 1408.28 109.057C1408.28 108.641 1408.13 108.289 1407.85 108C1407.56 107.707 1407.1 107.561 1406.47 107.561H1404.31V110.7ZM1414.44 116.148C1413.76 116.148 1413.17 115.997 1412.68 115.695C1412.18 115.391 1411.8 114.966 1411.54 114.421C1411.27 113.873 1411.14 113.236 1411.14 112.51C1411.14 111.784 1411.27 111.143 1411.54 110.589C1411.8 110.032 1412.18 109.598 1412.65 109.288C1413.13 108.974 1413.69 108.817 1414.33 108.817C1414.7 108.817 1415.07 108.878 1415.43 109.001C1415.79 109.125 1416.12 109.325 1416.41 109.602C1416.71 109.875 1416.94 110.239 1417.12 110.691C1417.29 111.143 1417.38 111.701 1417.38 112.362V112.824H1411.91V111.882H1416.27C1416.27 111.482 1416.19 111.125 1416.03 110.811C1415.88 110.497 1415.65 110.249 1415.36 110.068C1415.07 109.886 1414.73 109.795 1414.33 109.795C1413.9 109.795 1413.52 109.903 1413.21 110.119C1412.89 110.331 1412.65 110.608 1412.48 110.95C1412.31 111.291 1412.23 111.657 1412.23 112.048V112.676C1412.23 113.212 1412.32 113.666 1412.51 114.038C1412.69 114.407 1412.95 114.689 1413.29 114.883C1413.62 115.074 1414 115.169 1414.44 115.169C1414.73 115.169 1414.99 115.129 1415.22 115.049C1415.45 114.966 1415.66 114.843 1415.83 114.68C1415.99 114.513 1416.13 114.307 1416.22 114.061L1417.27 114.357C1417.16 114.714 1416.97 115.027 1416.71 115.298C1416.45 115.566 1416.13 115.775 1415.74 115.926C1415.36 116.074 1414.92 116.148 1414.44 116.148ZM1424.06 110.497L1423.08 110.774C1423.02 110.611 1422.93 110.453 1422.81 110.299C1422.69 110.142 1422.53 110.012 1422.33 109.911C1422.13 109.809 1421.87 109.759 1421.55 109.759C1421.12 109.759 1420.75 109.859 1420.46 110.059C1420.18 110.256 1420.04 110.506 1420.04 110.811C1420.04 111.082 1420.13 111.296 1420.33 111.453C1420.53 111.61 1420.84 111.741 1421.25 111.845L1422.31 112.104C1422.94 112.258 1423.41 112.493 1423.72 112.81C1424.03 113.124 1424.19 113.529 1424.19 114.024C1424.19 114.43 1424.07 114.794 1423.84 115.114C1423.61 115.434 1423.29 115.686 1422.87 115.871C1422.45 116.055 1421.97 116.148 1421.42 116.148C1420.7 116.148 1420.1 115.991 1419.62 115.677C1419.15 115.363 1418.85 114.904 1418.72 114.301L1419.76 114.043C1419.86 114.424 1420.04 114.71 1420.32 114.901C1420.59 115.092 1420.96 115.188 1421.4 115.188C1421.91 115.188 1422.31 115.08 1422.61 114.864C1422.91 114.646 1423.06 114.384 1423.06 114.08C1423.06 113.833 1422.98 113.627 1422.81 113.461C1422.63 113.292 1422.37 113.165 1422.01 113.082L1420.83 112.805C1420.18 112.652 1419.7 112.413 1419.4 112.09C1419.1 111.764 1418.95 111.356 1418.95 110.866C1418.95 110.466 1419.06 110.112 1419.28 109.805C1419.51 109.497 1419.82 109.255 1420.21 109.08C1420.6 108.904 1421.05 108.817 1421.55 108.817C1422.25 108.817 1422.8 108.971 1423.2 109.278C1423.61 109.586 1423.89 109.992 1424.06 110.497ZM1428.91 108.909V109.832H1425.24V108.909H1428.91ZM1426.31 107.21H1427.4V113.969C1427.4 114.277 1427.44 114.507 1427.53 114.661C1427.63 114.812 1427.74 114.914 1427.88 114.966C1428.03 115.015 1428.18 115.04 1428.34 115.04C1428.46 115.04 1428.56 115.034 1428.64 115.021C1428.71 115.006 1428.78 114.994 1428.82 114.984L1429.04 115.963C1428.97 115.991 1428.87 116.018 1428.73 116.046C1428.6 116.077 1428.43 116.092 1428.23 116.092C1427.92 116.092 1427.62 116.026 1427.33 115.894C1427.03 115.761 1426.79 115.56 1426.6 115.289C1426.41 115.018 1426.31 114.677 1426.31 114.264V107.21ZM1430.55 118.659V108.909H1431.61V110.036H1431.73C1431.81 109.912 1431.93 109.755 1432.07 109.565C1432.21 109.371 1432.42 109.198 1432.69 109.048C1432.96 108.894 1433.32 108.817 1433.78 108.817C1434.38 108.817 1434.91 108.966 1435.36 109.265C1435.82 109.563 1436.17 109.986 1436.43 110.534C1436.69 111.082 1436.81 111.728 1436.81 112.473C1436.81 113.224 1436.69 113.875 1436.43 114.426C1436.17 114.974 1435.82 115.398 1435.37 115.7C1434.92 115.998 1434.39 116.148 1433.8 116.148C1433.35 116.148 1432.98 116.072 1432.71 115.922C1432.43 115.768 1432.22 115.594 1432.08 115.4C1431.93 115.203 1431.81 115.04 1431.73 114.911H1431.64V118.659H1430.55ZM1431.62 112.455C1431.62 112.99 1431.7 113.462 1431.86 113.872C1432.02 114.278 1432.25 114.597 1432.55 114.827C1432.85 115.055 1433.22 115.169 1433.66 115.169C1434.11 115.169 1434.49 115.049 1434.8 114.809C1435.1 114.566 1435.33 114.24 1435.49 113.83C1435.64 113.418 1435.72 112.959 1435.72 112.455C1435.72 111.956 1435.65 111.507 1435.49 111.107C1435.34 110.703 1435.11 110.385 1434.8 110.151C1434.5 109.914 1434.12 109.795 1433.66 109.795C1433.21 109.795 1432.84 109.908 1432.54 110.132C1432.24 110.354 1432.01 110.665 1431.85 111.065C1431.7 111.462 1431.62 111.925 1431.62 112.455ZM1438.47 116V108.909H1439.53V109.98H1439.6C1439.73 109.629 1439.96 109.345 1440.3 109.126C1440.64 108.908 1441.02 108.798 1441.45 108.798C1441.53 108.798 1441.63 108.8 1441.75 108.803C1441.87 108.806 1441.96 108.811 1442.02 108.817V109.925C1441.98 109.915 1441.9 109.902 1441.77 109.883C1441.64 109.862 1441.5 109.851 1441.36 109.851C1441.01 109.851 1440.7 109.923 1440.43 110.068C1440.16 110.209 1439.95 110.406 1439.8 110.659C1439.64 110.908 1439.56 111.193 1439.56 111.513V116H1438.47ZM1443.31 116V108.909H1444.4V116H1443.31ZM1443.87 107.727C1443.65 107.727 1443.47 107.655 1443.32 107.51C1443.17 107.366 1443.09 107.192 1443.09 106.989C1443.09 106.786 1443.17 106.612 1443.32 106.467C1443.47 106.322 1443.65 106.25 1443.87 106.25C1444.08 106.25 1444.26 106.322 1444.41 106.467C1444.56 106.612 1444.64 106.786 1444.64 106.989C1444.64 107.192 1444.56 107.366 1444.41 107.51C1444.26 107.655 1444.08 107.727 1443.87 107.727ZM1449.28 116.148C1448.61 116.148 1448.04 115.991 1447.56 115.677C1447.08 115.363 1446.71 114.931 1446.45 114.38C1446.19 113.829 1446.06 113.199 1446.06 112.491C1446.06 111.771 1446.2 111.136 1446.46 110.585C1446.73 110.031 1447.1 109.598 1447.58 109.288C1448.06 108.974 1448.62 108.817 1449.26 108.817C1449.76 108.817 1450.21 108.909 1450.61 109.094C1451.01 109.278 1451.33 109.537 1451.59 109.869C1451.85 110.202 1452 110.589 1452.07 111.033H1450.98C1450.89 110.71 1450.71 110.423 1450.42 110.174C1450.14 109.922 1449.76 109.795 1449.28 109.795C1448.85 109.795 1448.48 109.906 1448.16 110.128C1447.84 110.346 1447.6 110.656 1447.42 111.056C1447.24 111.453 1447.15 111.919 1447.15 112.455C1447.15 113.002 1447.24 113.479 1447.41 113.886C1447.59 114.292 1447.83 114.607 1448.15 114.832C1448.47 115.057 1448.85 115.169 1449.28 115.169C1449.56 115.169 1449.82 115.12 1450.05 115.021C1450.28 114.923 1450.47 114.781 1450.63 114.597C1450.79 114.412 1450.91 114.19 1450.98 113.932H1452.07C1452 114.35 1451.85 114.727 1451.61 115.063C1451.37 115.395 1451.05 115.66 1450.65 115.857C1450.26 116.051 1449.8 116.148 1449.28 116.148ZM1456.63 116.148C1455.95 116.148 1455.36 115.997 1454.86 115.695C1454.37 115.391 1453.99 114.966 1453.72 114.421C1453.46 113.873 1453.33 113.236 1453.33 112.51C1453.33 111.784 1453.46 111.143 1453.72 110.589C1453.99 110.032 1454.36 109.598 1454.84 109.288C1455.32 108.974 1455.88 108.817 1456.52 108.817C1456.89 108.817 1457.25 108.878 1457.61 109.001C1457.97 109.125 1458.3 109.325 1458.6 109.602C1458.89 109.875 1459.13 110.239 1459.3 110.691C1459.48 111.143 1459.57 111.701 1459.57 112.362V112.824H1454.1V111.882H1458.46C1458.46 111.482 1458.38 111.125 1458.22 110.811C1458.06 110.497 1457.84 110.249 1457.55 110.068C1457.26 109.886 1456.91 109.795 1456.52 109.795C1456.09 109.795 1455.71 109.903 1455.39 110.119C1455.08 110.331 1454.84 110.608 1454.67 110.95C1454.5 111.291 1454.42 111.657 1454.42 112.048V112.676C1454.42 113.212 1454.51 113.666 1454.69 114.038C1454.88 114.407 1455.14 114.689 1455.47 114.883C1455.8 115.074 1456.19 115.169 1456.63 115.169C1456.92 115.169 1457.18 115.129 1457.41 115.049C1457.64 114.966 1457.84 114.843 1458.01 114.68C1458.18 114.513 1458.31 114.307 1458.4 114.061L1459.46 114.357C1459.35 114.714 1459.16 115.027 1458.9 115.298C1458.64 115.566 1458.31 115.775 1457.93 115.926C1457.54 116.074 1457.11 116.148 1456.63 116.148ZM1462.85 114.707L1462.78 115.206C1462.72 115.557 1462.64 115.932 1462.54 116.332C1462.43 116.732 1462.32 117.109 1462.21 117.463C1462.09 117.817 1462 118.099 1461.93 118.308H1461.1C1461.14 118.111 1461.19 117.851 1461.25 117.528C1461.32 117.205 1461.38 116.843 1461.45 116.443C1461.51 116.046 1461.57 115.64 1461.61 115.224L1461.67 114.707H1462.85ZM1468.51 116V115.169L1471.63 111.753C1471.99 111.353 1472.29 111.005 1472.53 110.71C1472.77 110.411 1472.94 110.131 1473.06 109.869C1473.17 109.605 1473.23 109.328 1473.23 109.038C1473.23 108.706 1473.15 108.418 1472.99 108.175C1472.84 107.932 1472.62 107.744 1472.35 107.612C1472.07 107.48 1471.77 107.413 1471.42 107.413C1471.06 107.413 1470.74 107.489 1470.47 107.64C1470.2 107.787 1470 107.995 1469.85 108.263C1469.7 108.531 1469.63 108.844 1469.63 109.205H1468.54C1468.54 108.651 1468.67 108.164 1468.93 107.746C1469.18 107.327 1469.53 107.001 1469.97 106.767C1470.41 106.533 1470.91 106.416 1471.46 106.416C1472.01 106.416 1472.51 106.533 1472.93 106.767C1473.36 107.001 1473.7 107.316 1473.94 107.713C1474.18 108.11 1474.3 108.552 1474.3 109.038C1474.3 109.386 1474.24 109.726 1474.12 110.059C1473.99 110.388 1473.78 110.756 1473.47 111.162C1473.16 111.565 1472.74 112.058 1472.2 112.639L1470.08 114.911V114.984H1474.47V116H1468.51ZM1479.46 116.129C1478.77 116.129 1478.17 115.94 1477.68 115.561C1477.19 115.18 1476.82 114.627 1476.56 113.904C1476.3 113.178 1476.17 112.301 1476.17 111.273C1476.17 110.251 1476.3 109.378 1476.56 108.655C1476.82 107.929 1477.2 107.375 1477.69 106.993C1478.18 106.609 1478.77 106.416 1479.46 106.416C1480.15 106.416 1480.74 106.609 1481.23 106.993C1481.72 107.375 1482.1 107.929 1482.36 108.655C1482.62 109.378 1482.75 110.251 1482.75 111.273C1482.75 112.301 1482.62 113.178 1482.36 113.904C1482.1 114.627 1481.73 115.18 1481.24 115.561C1480.75 115.94 1480.16 116.129 1479.46 116.129ZM1479.46 115.114C1480.15 115.114 1480.69 114.781 1481.07 114.116C1481.45 113.452 1481.64 112.504 1481.64 111.273C1481.64 110.454 1481.55 109.757 1481.38 109.181C1481.2 108.606 1480.96 108.167 1480.63 107.866C1480.31 107.564 1479.92 107.413 1479.46 107.413C1478.78 107.413 1478.24 107.75 1477.86 108.424C1477.47 109.095 1477.28 110.045 1477.28 111.273C1477.28 112.091 1477.37 112.787 1477.54 113.359C1477.71 113.932 1477.96 114.367 1478.28 114.666C1478.61 114.964 1479 115.114 1479.46 115.114ZM1484.5 116V115.169L1487.62 111.753C1487.99 111.353 1488.29 111.005 1488.53 110.71C1488.76 110.411 1488.94 110.131 1489.05 109.869C1489.17 109.605 1489.23 109.328 1489.23 109.038C1489.23 108.706 1489.15 108.418 1488.99 108.175C1488.83 107.932 1488.62 107.744 1488.34 107.612C1488.07 107.48 1487.76 107.413 1487.42 107.413C1487.06 107.413 1486.74 107.489 1486.47 107.64C1486.2 107.787 1485.99 107.995 1485.85 108.263C1485.7 108.531 1485.63 108.844 1485.63 109.205H1484.54C1484.54 108.651 1484.67 108.164 1484.92 107.746C1485.18 107.327 1485.53 107.001 1485.97 106.767C1486.41 106.533 1486.91 106.416 1487.46 106.416C1488.01 106.416 1488.5 106.533 1488.93 106.767C1489.36 107.001 1489.69 107.316 1489.94 107.713C1490.18 108.11 1490.3 108.552 1490.3 109.038C1490.3 109.386 1490.24 109.726 1490.11 110.059C1489.99 110.388 1489.77 110.756 1489.46 111.162C1489.16 111.565 1488.74 112.058 1488.2 112.639L1486.07 114.911V114.984H1490.47V116H1484.5ZM1491.95 114.061V113.119L1496.1 106.545H1496.79V108.004H1496.32L1493.19 112.972V113.045H1498.78V114.061H1491.95ZM1496.4 116V113.775V113.336V106.545H1497.49V116H1496.4Z" fill="#636570"/>
<path d="M1084.27 110.273C1084.27 111.27 1084.09 112.132 1083.73 112.858C1083.37 113.584 1082.87 114.144 1082.24 114.538C1081.62 114.932 1080.9 115.129 1080.09 115.129C1079.29 115.129 1078.57 114.932 1077.94 114.538C1077.31 114.144 1076.82 113.584 1076.46 112.858C1076.1 112.132 1075.92 111.27 1075.92 110.273C1075.92 109.276 1076.1 108.414 1076.46 107.688C1076.82 106.961 1077.31 106.401 1077.94 106.007C1078.57 105.613 1079.29 105.416 1080.09 105.416C1080.9 105.416 1081.62 105.613 1082.24 106.007C1082.87 106.401 1083.37 106.961 1083.73 107.688C1084.09 108.414 1084.27 109.276 1084.27 110.273ZM1083.16 110.273C1083.16 109.454 1083.02 108.763 1082.75 108.2C1082.48 107.637 1082.11 107.21 1081.64 106.921C1081.18 106.632 1080.67 106.487 1080.09 106.487C1079.52 106.487 1079 106.632 1078.54 106.921C1078.08 107.21 1077.71 107.637 1077.43 108.2C1077.16 108.763 1077.03 109.454 1077.03 110.273C1077.03 111.091 1077.16 111.782 1077.43 112.346C1077.71 112.909 1078.08 113.335 1078.54 113.624C1079 113.914 1079.52 114.058 1080.09 114.058C1080.67 114.058 1081.18 113.914 1081.64 113.624C1082.11 113.335 1082.48 112.909 1082.75 112.346C1083.02 111.782 1083.16 111.091 1083.16 110.273ZM1094.45 110.956V111.972H1090.53V110.956H1094.45ZM1090.79 107.909V115H1089.7V107.909H1090.79ZM1095.28 107.909V115H1094.19V107.909H1095.28ZM1099.35 115.166C1098.9 115.166 1098.5 115.082 1098.13 114.912C1097.76 114.74 1097.47 114.492 1097.26 114.169C1097.04 113.843 1096.93 113.449 1096.93 112.987C1096.93 112.581 1097.01 112.252 1097.17 111.999C1097.33 111.744 1097.55 111.544 1097.82 111.399C1098.08 111.254 1098.38 111.147 1098.7 111.076C1099.03 111.002 1099.36 110.944 1099.69 110.901C1100.12 110.845 1100.47 110.804 1100.73 110.776C1101 110.745 1101.2 110.694 1101.32 110.624C1101.45 110.553 1101.51 110.43 1101.51 110.254V110.217C1101.51 109.762 1101.39 109.408 1101.14 109.156C1100.89 108.903 1100.52 108.777 1100.02 108.777C1099.5 108.777 1099.09 108.891 1098.79 109.119C1098.5 109.346 1098.29 109.589 1098.17 109.848L1097.14 109.479C1097.32 109.048 1097.57 108.712 1097.88 108.472C1098.19 108.229 1098.52 108.06 1098.89 107.964C1099.26 107.866 1099.62 107.817 1099.98 107.817C1100.21 107.817 1100.47 107.844 1100.77 107.9C1101.06 107.952 1101.35 108.061 1101.63 108.228C1101.91 108.394 1102.14 108.645 1102.33 108.98C1102.51 109.316 1102.6 109.765 1102.6 110.328V115H1101.51V114.04H1101.46C1101.38 114.194 1101.26 114.358 1101.09 114.534C1100.92 114.709 1100.69 114.858 1100.4 114.982C1100.11 115.105 1099.77 115.166 1099.35 115.166ZM1099.52 114.188C1099.95 114.188 1100.31 114.103 1100.61 113.934C1100.91 113.764 1101.13 113.546 1101.28 113.278C1101.44 113.01 1101.51 112.729 1101.51 112.433V111.436C1101.47 111.491 1101.37 111.542 1101.21 111.588C1101.05 111.632 1100.88 111.67 1100.67 111.704C1100.47 111.735 1100.28 111.762 1100.09 111.787C1099.9 111.808 1099.75 111.827 1099.63 111.842C1099.35 111.879 1099.08 111.939 1098.84 112.022C1098.59 112.102 1098.4 112.224 1098.24 112.387C1098.1 112.547 1098.02 112.766 1098.02 113.043C1098.02 113.421 1098.16 113.707 1098.44 113.901C1098.73 114.092 1099.09 114.188 1099.52 114.188ZM1107.47 115.148C1106.81 115.148 1106.23 114.991 1105.75 114.677C1105.27 114.363 1104.91 113.931 1104.65 113.38C1104.39 112.829 1104.26 112.199 1104.26 111.491C1104.26 110.771 1104.39 110.136 1104.66 109.585C1104.92 109.031 1105.3 108.598 1105.77 108.288C1106.25 107.974 1106.81 107.817 1107.45 107.817C1107.95 107.817 1108.4 107.909 1108.8 108.094C1109.2 108.278 1109.53 108.537 1109.78 108.869C1110.04 109.202 1110.2 109.589 1110.26 110.033H1109.17C1109.09 109.71 1108.9 109.423 1108.62 109.174C1108.33 108.922 1107.95 108.795 1107.47 108.795C1107.05 108.795 1106.67 108.906 1106.35 109.128C1106.04 109.346 1105.79 109.656 1105.61 110.056C1105.44 110.453 1105.35 110.919 1105.35 111.455C1105.35 112.002 1105.43 112.479 1105.61 112.886C1105.78 113.292 1106.03 113.607 1106.35 113.832C1106.67 114.057 1107.04 114.169 1107.47 114.169C1107.76 114.169 1108.01 114.12 1108.24 114.021C1108.47 113.923 1108.67 113.781 1108.83 113.597C1108.99 113.412 1109.1 113.19 1109.17 112.932H1110.26C1110.2 113.35 1110.05 113.727 1109.8 114.063C1109.56 114.395 1109.24 114.66 1108.85 114.857C1108.45 115.051 1108 115.148 1107.47 115.148Z" fill="#2A2C36"/>
<path d="M1075.14 117.585H1110.85V118.472H1075.14V117.585Z" fill="#2A2C36"/>
<path d="M1005.67 105.545V115H1004.52V106.561H999.756V115H998.611V105.545H1005.67ZM1010.71 115.148C1010.07 115.148 1009.51 114.995 1009.02 114.691C1008.54 114.386 1008.17 113.96 1007.9 113.412C1007.63 112.864 1007.49 112.224 1007.49 111.491C1007.49 110.753 1007.63 110.108 1007.9 109.557C1008.17 109.006 1008.54 108.578 1009.02 108.274C1009.51 107.969 1010.07 107.817 1010.71 107.817C1011.35 107.817 1011.91 107.969 1012.39 108.274C1012.87 108.578 1013.25 109.006 1013.51 109.557C1013.79 110.108 1013.92 110.753 1013.92 111.491C1013.92 112.224 1013.79 112.864 1013.51 113.412C1013.25 113.96 1012.87 114.386 1012.39 114.691C1011.91 114.995 1011.35 115.148 1010.71 115.148ZM1010.71 114.169C1011.19 114.169 1011.59 114.044 1011.91 113.795C1012.22 113.546 1012.45 113.218 1012.6 112.812C1012.76 112.406 1012.83 111.965 1012.83 111.491C1012.83 111.018 1012.76 110.576 1012.6 110.167C1012.45 109.757 1012.22 109.426 1011.91 109.174C1011.59 108.922 1011.19 108.795 1010.71 108.795C1010.22 108.795 1009.82 108.922 1009.51 109.174C1009.19 109.426 1008.96 109.757 1008.81 110.167C1008.66 110.576 1008.58 111.018 1008.58 111.491C1008.58 111.965 1008.66 112.406 1008.81 112.812C1008.96 113.218 1009.19 113.546 1009.51 113.795C1009.82 114.044 1010.22 114.169 1010.71 114.169ZM1019.46 113.523L1021.94 107.909H1022.97L1019.9 115H1019.02L1016.01 107.909H1017.02L1019.46 113.523ZM1016.67 107.909V115H1015.58V107.909H1016.67ZM1022.25 115V107.909H1023.34V115H1022.25ZM1028.21 115.148C1027.57 115.148 1027.01 114.995 1026.53 114.691C1026.05 114.386 1025.67 113.96 1025.4 113.412C1025.14 112.864 1025 112.224 1025 111.491C1025 110.753 1025.14 110.108 1025.4 109.557C1025.67 109.006 1026.05 108.578 1026.53 108.274C1027.01 107.969 1027.57 107.817 1028.21 107.817C1028.85 107.817 1029.41 107.969 1029.89 108.274C1030.38 108.578 1030.75 109.006 1031.02 109.557C1031.29 110.108 1031.43 110.753 1031.43 111.491C1031.43 112.224 1031.29 112.864 1031.02 113.412C1030.75 113.96 1030.38 114.386 1029.89 114.691C1029.41 114.995 1028.85 115.148 1028.21 115.148ZM1028.21 114.169C1028.7 114.169 1029.1 114.044 1029.41 113.795C1029.73 113.546 1029.96 113.218 1030.11 112.812C1030.26 112.406 1030.34 111.965 1030.34 111.491C1030.34 111.018 1030.26 110.576 1030.11 110.167C1029.96 109.757 1029.73 109.426 1029.41 109.174C1029.1 108.922 1028.7 108.795 1028.21 108.795C1027.73 108.795 1027.33 108.922 1027.01 109.174C1026.7 109.426 1026.47 109.757 1026.32 110.167C1026.17 110.576 1026.09 111.018 1026.09 111.491C1026.09 111.965 1026.17 112.406 1026.32 112.812C1026.47 113.218 1026.7 113.546 1027.01 113.795C1027.33 114.044 1027.73 114.169 1028.21 114.169ZM1042.77 113.984L1042.64 117.031H1041.51V115H1040.59V113.984H1042.77ZM1033.09 107.909H1034.18V113.984H1036.86V107.909H1037.95V113.984H1040.62V107.909H1041.71V115H1033.09V107.909ZM1045.29 110.476H1047.32C1048.16 110.476 1048.79 110.687 1049.23 111.108C1049.67 111.53 1049.89 112.064 1049.89 112.71C1049.89 113.135 1049.79 113.521 1049.6 113.869C1049.4 114.214 1049.11 114.489 1048.73 114.695C1048.35 114.898 1047.88 115 1047.32 115H1044.35V107.909H1045.44V113.984H1047.32C1047.76 113.984 1048.11 113.871 1048.39 113.643C1048.66 113.415 1048.8 113.123 1048.8 112.766C1048.8 112.39 1048.66 112.084 1048.39 111.847C1048.11 111.61 1047.76 111.491 1047.32 111.491H1045.29V110.476Z" fill="#2A2C36"/>
<path d="M997.448 117.585H1050.56V118.472H997.448V117.585Z" fill="#2A2C36"/>
<path d="M1144.31 110.273C1144.31 111.27 1144.13 112.132 1143.77 112.858C1143.41 113.584 1142.92 114.144 1142.29 114.538C1141.66 114.932 1140.95 115.129 1140.14 115.129C1139.33 115.129 1138.62 114.932 1137.99 114.538C1137.36 114.144 1136.87 113.584 1136.51 112.858C1136.15 112.132 1135.97 111.27 1135.97 110.273C1135.97 109.276 1136.15 108.414 1136.51 107.688C1136.87 106.961 1137.36 106.401 1137.99 106.007C1138.62 105.613 1139.33 105.416 1140.14 105.416C1140.95 105.416 1141.66 105.613 1142.29 106.007C1142.92 106.401 1143.41 106.961 1143.77 107.688C1144.13 108.414 1144.31 109.276 1144.31 110.273ZM1143.2 110.273C1143.2 109.454 1143.07 108.763 1142.79 108.2C1142.52 107.637 1142.15 107.21 1141.69 106.921C1141.23 106.632 1140.71 106.487 1140.14 106.487C1139.57 106.487 1139.05 106.632 1138.58 106.921C1138.12 107.21 1137.75 107.637 1137.48 108.2C1137.21 108.763 1137.07 109.454 1137.07 110.273C1137.07 111.091 1137.21 111.782 1137.48 112.346C1137.75 112.909 1138.12 113.335 1138.58 113.624C1139.05 113.914 1139.57 114.058 1140.14 114.058C1140.71 114.058 1141.23 113.914 1141.69 113.624C1142.15 113.335 1142.52 112.909 1142.79 112.346C1143.07 111.782 1143.2 111.091 1143.2 110.273ZM1148.97 117.419V105.545H1150.06V117.419H1148.97ZM1148.97 115.148C1148.49 115.148 1148.05 115.062 1147.66 114.889C1147.27 114.714 1146.93 114.466 1146.64 114.146C1146.36 113.823 1146.14 113.437 1145.99 112.987C1145.83 112.538 1145.76 112.039 1145.76 111.491C1145.76 110.937 1145.83 110.436 1145.99 109.987C1146.14 109.534 1146.36 109.146 1146.64 108.823C1146.93 108.5 1147.27 108.252 1147.66 108.08C1148.05 107.904 1148.49 107.817 1148.97 107.817H1149.3V115.148H1148.97ZM1148.97 114.169H1149.15V108.795H1148.97C1148.61 108.795 1148.29 108.869 1148.02 109.017C1147.76 109.162 1147.53 109.36 1147.36 109.613C1147.19 109.862 1147.06 110.148 1146.97 110.471C1146.89 110.794 1146.85 111.134 1146.85 111.491C1146.85 111.965 1146.92 112.406 1147.07 112.812C1147.22 113.218 1147.46 113.546 1147.77 113.795C1148.08 114.044 1148.48 114.169 1148.97 114.169ZM1150.06 115.148H1149.73V107.817H1150.06C1150.54 107.817 1150.98 107.904 1151.37 108.08C1151.76 108.252 1152.1 108.5 1152.39 108.823C1152.67 109.146 1152.89 109.534 1153.04 109.987C1153.2 110.436 1153.27 110.937 1153.27 111.491C1153.27 112.039 1153.2 112.538 1153.04 112.987C1152.89 113.437 1152.67 113.823 1152.39 114.146C1152.1 114.466 1151.76 114.714 1151.37 114.889C1150.98 115.062 1150.54 115.148 1150.06 115.148ZM1150.06 114.169C1150.43 114.169 1150.74 114.098 1151.01 113.957C1151.27 113.812 1151.49 113.615 1151.67 113.366C1151.84 113.113 1151.97 112.827 1152.05 112.507C1152.14 112.184 1152.18 111.845 1152.18 111.491C1152.18 111.018 1152.11 110.576 1151.96 110.167C1151.81 109.757 1151.57 109.426 1151.26 109.174C1150.95 108.922 1150.55 108.795 1150.06 108.795H1149.87V114.169H1150.06ZM1157.91 115.148C1157.23 115.148 1156.64 114.997 1156.14 114.695C1155.65 114.391 1155.27 113.966 1155 113.421C1154.74 112.873 1154.61 112.236 1154.61 111.51C1154.61 110.784 1154.74 110.143 1155 109.589C1155.27 109.032 1155.64 108.598 1156.12 108.288C1156.6 107.974 1157.16 107.817 1157.8 107.817C1158.17 107.817 1158.53 107.878 1158.89 108.001C1159.25 108.125 1159.58 108.325 1159.88 108.602C1160.17 108.875 1160.41 109.239 1160.58 109.691C1160.76 110.143 1160.85 110.701 1160.85 111.362V111.824H1155.38V110.882H1159.74C1159.74 110.482 1159.66 110.125 1159.5 109.811C1159.34 109.497 1159.12 109.249 1158.83 109.068C1158.54 108.886 1158.19 108.795 1157.8 108.795C1157.37 108.795 1156.99 108.903 1156.67 109.119C1156.36 109.331 1156.12 109.608 1155.95 109.95C1155.78 110.291 1155.7 110.657 1155.7 111.048V111.676C1155.7 112.212 1155.79 112.666 1155.97 113.038C1156.16 113.407 1156.42 113.689 1156.75 113.883C1157.08 114.074 1157.47 114.169 1157.91 114.169C1158.2 114.169 1158.46 114.129 1158.69 114.049C1158.92 113.966 1159.12 113.843 1159.29 113.68C1159.46 113.513 1159.59 113.307 1159.68 113.061L1160.74 113.357C1160.63 113.714 1160.44 114.027 1160.18 114.298C1159.92 114.566 1159.59 114.775 1159.21 114.926C1158.82 115.074 1158.39 115.148 1157.91 115.148ZM1162.5 117.659V107.909H1163.56V109.036H1163.69C1163.77 108.912 1163.88 108.755 1164.02 108.565C1164.16 108.371 1164.37 108.198 1164.64 108.048C1164.91 107.894 1165.27 107.817 1165.74 107.817C1166.33 107.817 1166.86 107.966 1167.31 108.265C1167.77 108.563 1168.13 108.986 1168.38 109.534C1168.64 110.082 1168.76 110.728 1168.76 111.473C1168.76 112.224 1168.64 112.875 1168.38 113.426C1168.13 113.974 1167.77 114.398 1167.32 114.7C1166.87 114.998 1166.35 115.148 1165.75 115.148C1165.3 115.148 1164.93 115.072 1164.66 114.922C1164.39 114.768 1164.18 114.594 1164.03 114.4C1163.88 114.203 1163.77 114.04 1163.69 113.911H1163.59V117.659H1162.5ZM1163.58 111.455C1163.58 111.99 1163.65 112.462 1163.81 112.872C1163.97 113.278 1164.2 113.597 1164.5 113.827C1164.8 114.055 1165.17 114.169 1165.61 114.169C1166.06 114.169 1166.44 114.049 1166.75 113.809C1167.05 113.566 1167.29 113.24 1167.44 112.83C1167.6 112.418 1167.67 111.959 1167.67 111.455C1167.67 110.956 1167.6 110.507 1167.44 110.107C1167.29 109.703 1167.06 109.385 1166.76 109.151C1166.45 108.914 1166.07 108.795 1165.61 108.795C1165.16 108.795 1164.79 108.908 1164.49 109.132C1164.19 109.354 1163.96 109.665 1163.81 110.065C1163.65 110.462 1163.58 110.925 1163.58 111.455ZM1169.5 108.925V107.909H1175.26V108.925H1172.93V115H1171.84V108.925H1169.5ZM1178.57 115.166C1178.12 115.166 1177.71 115.082 1177.35 114.912C1176.98 114.74 1176.69 114.492 1176.47 114.169C1176.26 113.843 1176.15 113.449 1176.15 112.987C1176.15 112.581 1176.23 112.252 1176.39 111.999C1176.55 111.744 1176.76 111.544 1177.03 111.399C1177.3 111.254 1177.59 111.147 1177.92 111.076C1178.24 111.002 1178.57 110.944 1178.9 110.901C1179.33 110.845 1179.68 110.804 1179.95 110.776C1180.22 110.745 1180.42 110.694 1180.54 110.624C1180.67 110.553 1180.73 110.43 1180.73 110.254V110.217C1180.73 109.762 1180.6 109.408 1180.36 109.156C1180.11 108.903 1179.74 108.777 1179.23 108.777C1178.71 108.777 1178.31 108.891 1178.01 109.119C1177.71 109.346 1177.51 109.589 1177.39 109.848L1176.35 109.479C1176.54 109.048 1176.78 108.712 1177.09 108.472C1177.4 108.229 1177.74 108.06 1178.11 107.964C1178.48 107.866 1178.84 107.817 1179.2 107.817C1179.42 107.817 1179.69 107.844 1179.98 107.9C1180.28 107.952 1180.57 108.061 1180.84 108.228C1181.12 108.394 1181.36 108.645 1181.54 108.98C1181.73 109.316 1181.82 109.765 1181.82 110.328V115H1180.73V114.04H1180.67C1180.6 114.194 1180.48 114.358 1180.3 114.534C1180.13 114.709 1179.9 114.858 1179.62 114.982C1179.33 115.105 1178.98 115.166 1178.57 115.166ZM1178.73 114.188C1179.17 114.188 1179.53 114.103 1179.82 113.934C1180.12 113.764 1180.35 113.546 1180.5 113.278C1180.65 113.01 1180.73 112.729 1180.73 112.433V111.436C1180.68 111.491 1180.58 111.542 1180.42 111.588C1180.27 111.632 1180.09 111.67 1179.89 111.704C1179.69 111.735 1179.49 111.762 1179.3 111.787C1179.11 111.808 1178.96 111.827 1178.85 111.842C1178.56 111.879 1178.3 111.939 1178.05 112.022C1177.81 112.102 1177.61 112.224 1177.46 112.387C1177.31 112.547 1177.24 112.766 1177.24 113.043C1177.24 113.421 1177.38 113.707 1177.66 113.901C1177.94 114.092 1178.3 114.188 1178.73 114.188Z" fill="#2A2C36"/>
<path d="M1135.19 117.585H1182.82V118.472H1135.19V117.585Z" fill="#2A2C36"/>
<path d="M1208.16 116V106.545H1213.87V107.561H1209.31V110.516H1211.71C1212.39 110.516 1212.96 110.626 1213.42 110.848C1213.89 111.07 1214.24 111.382 1214.48 111.785C1214.73 112.188 1214.85 112.664 1214.85 113.212C1214.85 113.759 1214.73 114.243 1214.48 114.661C1214.24 115.08 1213.89 115.408 1213.42 115.645C1212.96 115.882 1212.39 116 1211.71 116H1208.16ZM1209.31 115.003H1211.71C1212.14 115.003 1212.51 114.917 1212.8 114.744C1213.11 114.569 1213.33 114.344 1213.49 114.07C1213.64 113.793 1213.72 113.501 1213.72 113.193C1213.72 112.741 1213.55 112.351 1213.2 112.025C1212.85 111.696 1212.36 111.531 1211.71 111.531H1209.31V115.003ZM1215.96 116V114.984H1216.22C1216.43 114.984 1216.61 114.943 1216.75 114.86C1216.89 114.774 1217 114.624 1217.09 114.412C1217.18 114.196 1217.25 113.898 1217.29 113.516C1217.34 113.132 1217.38 112.642 1217.4 112.048L1217.53 108.909H1222.26V116H1221.17V109.925H1218.56L1218.45 112.455C1218.43 113.036 1218.37 113.549 1218.29 113.992C1218.22 114.432 1218.1 114.801 1217.94 115.1C1217.78 115.398 1217.57 115.623 1217.31 115.774C1217.05 115.925 1216.72 116 1216.33 116H1215.96ZM1227.13 116.148C1226.49 116.148 1225.93 115.995 1225.45 115.691C1224.97 115.386 1224.59 114.96 1224.32 114.412C1224.06 113.864 1223.92 113.224 1223.92 112.491C1223.92 111.753 1224.06 111.108 1224.32 110.557C1224.59 110.006 1224.97 109.578 1225.45 109.274C1225.93 108.969 1226.49 108.817 1227.13 108.817C1227.77 108.817 1228.33 108.969 1228.82 109.274C1229.3 109.578 1229.67 110.006 1229.94 110.557C1230.21 111.108 1230.35 111.753 1230.35 112.491C1230.35 113.224 1230.21 113.864 1229.94 114.412C1229.67 114.96 1229.3 115.386 1228.82 115.691C1228.33 115.995 1227.77 116.148 1227.13 116.148ZM1227.13 115.169C1227.62 115.169 1228.02 115.044 1228.33 114.795C1228.65 114.546 1228.88 114.218 1229.03 113.812C1229.18 113.406 1229.26 112.965 1229.26 112.491C1229.26 112.018 1229.18 111.576 1229.03 111.167C1228.88 110.757 1228.65 110.426 1228.33 110.174C1228.02 109.922 1227.62 109.795 1227.13 109.795C1226.65 109.795 1226.25 109.922 1225.93 110.174C1225.62 110.426 1225.39 110.757 1225.24 111.167C1225.09 111.576 1225.01 112.018 1225.01 112.491C1225.01 112.965 1225.09 113.406 1225.24 113.812C1225.39 114.218 1225.62 114.546 1225.93 114.795C1226.25 115.044 1226.65 115.169 1227.13 115.169ZM1236.39 108.909V109.925H1233.1V116H1232.01V108.909H1236.39Z" fill="#2A2C36"/>
<path d="M1207.02 118.585H1236.98V119.472H1207.02V118.585Z" fill="#2A2C36"/>
<path d="M1268.02 117L1264.77 112.661H1263.6V117H1262.46V107.545H1263.6V111.645H1264.1L1267.89 107.545H1269.25L1265.43 111.7L1269.38 117H1268.02ZM1272.8 117.166C1272.35 117.166 1271.94 117.082 1271.58 116.912C1271.21 116.74 1270.92 116.492 1270.7 116.169C1270.49 115.843 1270.38 115.449 1270.38 114.987C1270.38 114.581 1270.46 114.252 1270.62 113.999C1270.78 113.744 1271 113.544 1271.26 113.399C1271.53 113.254 1271.83 113.147 1272.15 113.076C1272.48 113.002 1272.8 112.944 1273.13 112.901C1273.56 112.845 1273.91 112.804 1274.18 112.776C1274.45 112.745 1274.65 112.694 1274.77 112.624C1274.9 112.553 1274.96 112.43 1274.96 112.254V112.217C1274.96 111.762 1274.84 111.408 1274.59 111.156C1274.34 110.903 1273.97 110.777 1273.47 110.777C1272.95 110.777 1272.54 110.891 1272.24 111.119C1271.95 111.346 1271.74 111.589 1271.62 111.848L1270.58 111.479C1270.77 111.048 1271.02 110.712 1271.32 110.472C1271.63 110.229 1271.97 110.06 1272.34 109.964C1272.71 109.866 1273.07 109.817 1273.43 109.817C1273.66 109.817 1273.92 109.844 1274.21 109.9C1274.51 109.952 1274.8 110.061 1275.08 110.228C1275.36 110.394 1275.59 110.645 1275.77 110.98C1275.96 111.316 1276.05 111.765 1276.05 112.328V117H1274.96V116.04H1274.91C1274.83 116.194 1274.71 116.358 1274.54 116.534C1274.36 116.709 1274.13 116.858 1273.85 116.982C1273.56 117.105 1273.21 117.166 1272.8 117.166ZM1272.97 116.188C1273.4 116.188 1273.76 116.103 1274.06 115.934C1274.35 115.764 1274.58 115.546 1274.73 115.278C1274.88 115.01 1274.96 114.729 1274.96 114.433V113.436C1274.91 113.491 1274.81 113.542 1274.66 113.588C1274.5 113.632 1274.32 113.67 1274.12 113.704C1273.92 113.735 1273.73 113.762 1273.53 113.787C1273.35 113.808 1273.19 113.827 1273.08 113.842C1272.79 113.879 1272.53 113.939 1272.28 114.022C1272.04 114.102 1271.84 114.224 1271.69 114.387C1271.54 114.547 1271.47 114.766 1271.47 115.043C1271.47 115.421 1271.61 115.707 1271.89 115.901C1272.17 116.092 1272.53 116.188 1272.97 116.188ZM1278.04 119.659V109.909H1279.09V111.036H1279.22C1279.3 110.912 1279.41 110.755 1279.55 110.565C1279.7 110.371 1279.9 110.198 1280.17 110.048C1280.44 109.894 1280.81 109.817 1281.27 109.817C1281.87 109.817 1282.39 109.966 1282.85 110.265C1283.31 110.563 1283.66 110.986 1283.92 111.534C1284.17 112.082 1284.3 112.728 1284.3 113.473C1284.3 114.224 1284.17 114.875 1283.92 115.426C1283.66 115.974 1283.31 116.398 1282.85 116.7C1282.4 116.998 1281.88 117.148 1281.29 117.148C1280.83 117.148 1280.47 117.072 1280.2 116.922C1279.92 116.768 1279.71 116.594 1279.56 116.4C1279.41 116.203 1279.3 116.04 1279.22 115.911H1279.13V119.659H1278.04ZM1279.11 113.455C1279.11 113.99 1279.19 114.462 1279.35 114.872C1279.5 115.278 1279.73 115.597 1280.03 115.827C1280.34 116.055 1280.7 116.169 1281.14 116.169C1281.6 116.169 1281.98 116.049 1282.28 115.809C1282.59 115.566 1282.82 115.24 1282.97 114.83C1283.13 114.418 1283.21 113.959 1283.21 113.455C1283.21 112.956 1283.13 112.507 1282.98 112.107C1282.83 111.703 1282.6 111.385 1282.29 111.151C1281.99 110.914 1281.6 110.795 1281.14 110.795C1280.7 110.795 1280.33 110.908 1280.02 111.132C1279.72 111.354 1279.49 111.665 1279.34 112.065C1279.19 112.462 1279.11 112.925 1279.11 113.455ZM1285.03 110.925V109.909H1290.8V110.925H1288.47V117H1287.38V110.925H1285.03ZM1294.1 117.166C1293.65 117.166 1293.25 117.082 1292.88 116.912C1292.51 116.74 1292.22 116.492 1292.01 116.169C1291.79 115.843 1291.68 115.449 1291.68 114.987C1291.68 114.581 1291.76 114.252 1291.92 113.999C1292.08 113.744 1292.3 113.544 1292.57 113.399C1292.83 113.254 1293.13 113.147 1293.45 113.076C1293.78 113.002 1294.11 112.944 1294.44 112.901C1294.87 112.845 1295.22 112.804 1295.48 112.776C1295.75 112.745 1295.95 112.694 1296.07 112.624C1296.2 112.553 1296.26 112.43 1296.26 112.254V112.217C1296.26 111.762 1296.14 111.408 1295.89 111.156C1295.64 110.903 1295.27 110.777 1294.77 110.777C1294.25 110.777 1293.84 110.891 1293.54 111.119C1293.25 111.346 1293.04 111.589 1292.92 111.848L1291.89 111.479C1292.07 111.048 1292.32 110.712 1292.63 110.472C1292.94 110.229 1293.28 110.06 1293.64 109.964C1294.01 109.866 1294.37 109.817 1294.73 109.817C1294.96 109.817 1295.22 109.844 1295.52 109.9C1295.81 109.952 1296.1 110.061 1296.38 110.228C1296.66 110.394 1296.89 110.645 1297.08 110.98C1297.26 111.316 1297.35 111.765 1297.35 112.328V117H1296.26V116.04H1296.21C1296.13 116.194 1296.01 116.358 1295.84 116.534C1295.67 116.709 1295.44 116.858 1295.15 116.982C1294.87 117.105 1294.52 117.166 1294.1 117.166ZM1294.27 116.188C1294.7 116.188 1295.06 116.103 1295.36 115.934C1295.66 115.764 1295.88 115.546 1296.03 115.278C1296.19 115.01 1296.26 114.729 1296.26 114.433V113.436C1296.22 113.491 1296.12 113.542 1295.96 113.588C1295.81 113.632 1295.63 113.67 1295.42 113.704C1295.22 113.735 1295.03 113.762 1294.84 113.787C1294.65 113.808 1294.5 113.827 1294.38 113.842C1294.1 113.879 1293.83 113.939 1293.59 114.022C1293.34 114.102 1293.15 114.224 1293 114.387C1292.85 114.547 1292.77 114.766 1292.77 115.043C1292.77 115.421 1292.91 115.707 1293.19 115.901C1293.48 116.092 1293.84 116.188 1294.27 116.188ZM1305.88 117.148C1305.21 117.148 1304.64 116.991 1304.16 116.677C1303.68 116.363 1303.31 115.931 1303.05 115.38C1302.8 114.829 1302.67 114.199 1302.67 113.491C1302.67 112.771 1302.8 112.136 1303.06 111.585C1303.33 111.031 1303.7 110.598 1304.18 110.288C1304.66 109.974 1305.22 109.817 1305.86 109.817C1306.36 109.817 1306.81 109.909 1307.21 110.094C1307.61 110.278 1307.94 110.537 1308.19 110.869C1308.45 111.202 1308.61 111.589 1308.67 112.033H1307.58C1307.49 111.71 1307.31 111.423 1307.02 111.174C1306.74 110.922 1306.36 110.795 1305.88 110.795C1305.45 110.795 1305.08 110.906 1304.76 111.128C1304.44 111.346 1304.2 111.656 1304.02 112.056C1303.84 112.453 1303.76 112.919 1303.76 113.455C1303.76 114.002 1303.84 114.479 1304.01 114.886C1304.19 115.292 1304.44 115.607 1304.75 115.832C1305.07 116.057 1305.45 116.169 1305.88 116.169C1306.16 116.169 1306.42 116.12 1306.65 116.021C1306.88 115.923 1307.08 115.781 1307.24 115.597C1307.4 115.412 1307.51 115.19 1307.58 114.932H1308.67C1308.61 115.35 1308.45 115.727 1308.21 116.063C1307.97 116.395 1307.65 116.66 1307.25 116.857C1306.86 117.051 1306.4 117.148 1305.88 117.148ZM1312.35 117.166C1311.9 117.166 1311.49 117.082 1311.12 116.912C1310.76 116.74 1310.47 116.492 1310.25 116.169C1310.04 115.843 1309.93 115.449 1309.93 114.987C1309.93 114.581 1310.01 114.252 1310.17 113.999C1310.33 113.744 1310.54 113.544 1310.81 113.399C1311.08 113.254 1311.37 113.147 1311.7 113.076C1312.02 113.002 1312.35 112.944 1312.68 112.901C1313.11 112.845 1313.46 112.804 1313.73 112.776C1314 112.745 1314.19 112.694 1314.32 112.624C1314.44 112.553 1314.51 112.43 1314.51 112.254V112.217C1314.51 111.762 1314.38 111.408 1314.13 111.156C1313.89 110.903 1313.51 110.777 1313.01 110.777C1312.49 110.777 1312.08 110.891 1311.79 111.119C1311.49 111.346 1311.28 111.589 1311.16 111.848L1310.13 111.479C1310.32 111.048 1310.56 110.712 1310.87 110.472C1311.18 110.229 1311.52 110.06 1311.88 109.964C1312.25 109.866 1312.62 109.817 1312.97 109.817C1313.2 109.817 1313.46 109.844 1313.76 109.9C1314.06 109.952 1314.35 110.061 1314.62 110.228C1314.9 110.394 1315.13 110.645 1315.32 110.98C1315.5 111.316 1315.6 111.765 1315.6 112.328V117H1314.51V116.04H1314.45C1314.38 116.194 1314.25 116.358 1314.08 116.534C1313.91 116.709 1313.68 116.858 1313.39 116.982C1313.11 117.105 1312.76 117.166 1312.35 117.166ZM1312.51 116.188C1312.94 116.188 1313.31 116.103 1313.6 115.934C1313.9 115.764 1314.13 115.546 1314.28 115.278C1314.43 115.01 1314.51 114.729 1314.51 114.433V113.436C1314.46 113.491 1314.36 113.542 1314.2 113.588C1314.05 113.632 1313.87 113.67 1313.67 113.704C1313.47 113.735 1313.27 113.762 1313.08 113.787C1312.89 113.808 1312.74 113.827 1312.62 113.842C1312.34 113.879 1312.08 113.939 1311.83 114.022C1311.59 114.102 1311.39 114.224 1311.24 114.387C1311.09 114.547 1311.02 114.766 1311.02 115.043C1311.02 115.421 1311.16 115.707 1311.44 115.901C1311.72 116.092 1312.08 116.188 1312.51 116.188ZM1318.67 115.393L1322.09 109.909H1323.35V117H1322.26V111.516L1318.86 117H1317.59V109.909H1318.67V115.393ZM1321.37 107.545H1322.39C1322.39 108.044 1322.21 108.452 1321.87 108.769C1321.52 109.086 1321.06 109.244 1320.47 109.244C1319.88 109.244 1319.42 109.086 1319.08 108.769C1318.73 108.452 1318.56 108.044 1318.56 107.545H1319.58C1319.58 107.786 1319.65 107.996 1319.78 108.178C1319.91 108.359 1320.14 108.45 1320.47 108.45C1320.79 108.45 1321.02 108.359 1321.16 108.178C1321.3 107.996 1321.37 107.786 1321.37 107.545ZM1324.38 110.925V109.909H1330.14V110.925H1327.81V117H1326.72V110.925H1324.38ZM1333.45 117.166C1333 117.166 1332.59 117.082 1332.22 116.912C1331.86 116.74 1331.57 116.492 1331.35 116.169C1331.13 115.843 1331.03 115.449 1331.03 114.987C1331.03 114.581 1331.11 114.252 1331.27 113.999C1331.43 113.744 1331.64 113.544 1331.91 113.399C1332.18 113.254 1332.47 113.147 1332.8 113.076C1333.12 113.002 1333.45 112.944 1333.78 112.901C1334.21 112.845 1334.56 112.804 1334.83 112.776C1335.1 112.745 1335.29 112.694 1335.42 112.624C1335.54 112.553 1335.61 112.43 1335.61 112.254V112.217C1335.61 111.762 1335.48 111.408 1335.23 111.156C1334.99 110.903 1334.61 110.777 1334.11 110.777C1333.59 110.777 1333.18 110.891 1332.89 111.119C1332.59 111.346 1332.38 111.589 1332.26 111.848L1331.23 111.479C1331.41 111.048 1331.66 110.712 1331.97 110.472C1332.28 110.229 1332.62 110.06 1332.98 109.964C1333.35 109.866 1333.72 109.817 1334.07 109.817C1334.3 109.817 1334.56 109.844 1334.86 109.9C1335.16 109.952 1335.45 110.061 1335.72 110.228C1336 110.394 1336.23 110.645 1336.42 110.98C1336.6 111.316 1336.7 111.765 1336.7 112.328V117H1335.61V116.04H1335.55C1335.48 116.194 1335.35 116.358 1335.18 116.534C1335.01 116.709 1334.78 116.858 1334.49 116.982C1334.21 117.105 1333.86 117.166 1333.45 117.166ZM1333.61 116.188C1334.04 116.188 1334.41 116.103 1334.7 115.934C1335 115.764 1335.22 115.546 1335.38 115.278C1335.53 115.01 1335.61 114.729 1335.61 114.433V113.436C1335.56 113.491 1335.46 113.542 1335.3 113.588C1335.15 113.632 1334.97 113.67 1334.77 113.704C1334.57 113.735 1334.37 113.762 1334.18 113.787C1333.99 113.808 1333.84 113.827 1333.72 113.842C1333.44 113.879 1333.18 113.939 1332.93 114.022C1332.69 114.102 1332.49 114.224 1332.34 114.387C1332.19 114.547 1332.12 114.766 1332.12 115.043C1332.12 115.421 1332.26 115.707 1332.54 115.901C1332.82 116.092 1333.18 116.188 1333.61 116.188Z" fill="#2A2C36"/>
<path d="M1261.31 119.585H1337.69V120.472H1261.31V119.585Z" fill="#2A2C36"/>
<circle cx="873" cy="111" r="16" fill="#C4C4CC"/>
<g clip-path="url(#clip0_3721_56712)">
<path d="M880.681 107.123C880.591 106.783 880.412 106.472 880.164 106.222C879.916 105.973 879.606 105.792 879.267 105.7C878.016 105.363 873.016 105.363 873.016 105.363C873.016 105.363 868.016 105.363 866.765 105.7C866.425 105.792 866.115 105.973 865.867 106.222C865.619 106.472 865.441 106.783 865.35 107.123C865.016 108.38 865.016 111 865.016 111C865.016 111 865.016 113.62 865.35 114.876C865.441 115.216 865.619 115.527 865.867 115.777C866.115 116.027 866.425 116.207 866.765 116.3C868.016 116.636 873.016 116.636 873.016 116.636C873.016 116.636 878.016 116.636 879.267 116.3C879.606 116.207 879.916 116.027 880.164 115.777C880.412 115.527 880.591 115.216 880.681 114.876C881.016 113.62 881.016 111 881.016 111C881.016 111 881.016 108.38 880.681 107.123Z" fill="white"/>
<path d="M871.383 113.379V108.621L875.565 111L871.383 113.379Z" fill="#D0D1D9"/>
</g>
<circle cx="833" cy="111" r="16" fill="#0077FF"/>
<path d="M833.804 116.615C827.654 116.615 824.146 112.398 824 105.383H827.081C827.182 110.532 829.453 112.713 831.252 113.163V105.383H834.152V109.824C835.929 109.633 837.795 107.609 838.425 105.383H841.325C840.842 108.126 838.818 110.15 837.379 110.982C838.818 111.656 841.123 113.422 842 116.615H838.807C838.121 114.478 836.412 112.826 834.152 112.601V116.615H833.804Z" fill="white"/>
<g clip-path="url(#clip1_3721_56712)">
<path d="M793 127C801.837 127 809 119.837 809 111C809 102.163 801.837 95 793 95C784.163 95 777 102.163 777 111C777 119.837 784.163 127 793 127Z" fill="#C3C5CC"/>
<path fill-rule="evenodd" clip-rule="evenodd" d="M785.031 109.596C789.058 107.762 791.743 106.552 793.086 105.968C796.922 104.3 797.719 104.01 798.238 104C798.353 103.998 798.608 104.028 798.774 104.168C798.913 104.287 798.952 104.447 798.97 104.559C798.989 104.672 799.012 104.928 798.993 105.128C798.785 107.412 797.886 112.955 797.428 115.513C797.235 116.595 796.854 116.958 796.485 116.994C795.682 117.071 795.073 116.439 794.297 115.907C793.081 115.073 792.394 114.555 791.214 113.741C789.85 112.802 790.734 112.285 791.512 111.441C791.715 111.22 795.249 107.858 795.317 107.553C795.326 107.515 795.334 107.373 795.253 107.298C795.172 107.223 795.053 107.249 794.967 107.269C794.845 107.298 792.903 108.64 789.141 111.296C788.59 111.692 788.091 111.885 787.643 111.875C787.15 111.864 786.201 111.583 785.496 111.343C784.631 111.049 783.944 110.894 784.004 110.394C784.035 110.134 784.377 109.868 785.031 109.596Z" fill="white"/>
</g>
<path d="M652.848 109.5H651.703C651.635 109.171 651.517 108.881 651.348 108.632C651.182 108.383 650.978 108.174 650.738 108.004C650.501 107.832 650.238 107.703 649.949 107.616C649.66 107.53 649.358 107.487 649.044 107.487C648.472 107.487 647.953 107.632 647.488 107.921C647.027 108.21 646.659 108.637 646.385 109.2C646.114 109.763 645.979 110.454 645.979 111.273C645.979 112.091 646.114 112.782 646.385 113.346C646.659 113.909 647.027 114.335 647.488 114.624C647.953 114.914 648.472 115.058 649.044 115.058C649.358 115.058 649.66 115.015 649.949 114.929C650.238 114.843 650.501 114.715 650.738 114.546C650.978 114.373 651.182 114.163 651.348 113.913C651.517 113.661 651.635 113.372 651.703 113.045H652.848C652.762 113.529 652.605 113.961 652.377 114.343C652.149 114.724 651.866 115.049 651.528 115.317C651.189 115.581 650.809 115.783 650.387 115.922C649.969 116.06 649.521 116.129 649.044 116.129C648.238 116.129 647.521 115.932 646.893 115.538C646.265 115.144 645.771 114.584 645.411 113.858C645.051 113.132 644.871 112.27 644.871 111.273C644.871 110.276 645.051 109.414 645.411 108.688C645.771 107.961 646.265 107.401 646.893 107.007C647.521 106.613 648.238 106.416 649.044 106.416C649.521 106.416 649.969 106.485 650.387 106.624C650.809 106.762 651.189 106.966 651.528 107.233C651.866 107.498 652.149 107.821 652.377 108.203C652.605 108.581 652.762 109.014 652.848 109.5ZM657.431 116.148C656.791 116.148 656.229 115.995 655.746 115.691C655.266 115.386 654.89 114.96 654.62 114.412C654.352 113.864 654.218 113.224 654.218 112.491C654.218 111.753 654.352 111.108 654.62 110.557C654.89 110.006 655.266 109.578 655.746 109.274C656.229 108.969 656.791 108.817 657.431 108.817C658.071 108.817 658.631 108.969 659.111 109.274C659.595 109.578 659.97 110.006 660.238 110.557C660.509 111.108 660.644 111.753 660.644 112.491C660.644 113.224 660.509 113.864 660.238 114.412C659.97 114.96 659.595 115.386 659.111 115.691C658.631 115.995 658.071 116.148 657.431 116.148ZM657.431 115.169C657.917 115.169 658.317 115.044 658.631 114.795C658.945 114.546 659.178 114.218 659.328 113.812C659.479 113.406 659.555 112.965 659.555 112.491C659.555 112.018 659.479 111.576 659.328 111.167C659.178 110.757 658.945 110.426 658.631 110.174C658.317 109.922 657.917 109.795 657.431 109.795C656.945 109.795 656.545 109.922 656.231 110.174C655.917 110.426 655.684 110.757 655.534 111.167C655.383 111.576 655.307 112.018 655.307 112.491C655.307 112.965 655.383 113.406 655.534 113.812C655.684 114.218 655.917 114.546 656.231 114.795C656.545 115.044 656.945 115.169 657.431 115.169ZM667.884 108.909V114.984H668.881V118.29H667.792V116H662.307V108.909H663.397V114.984H666.794V108.909H667.884ZM671.649 114.393L675.065 108.909H676.321V116H675.231V110.516L671.833 116H670.559V108.909H671.649V114.393ZM680.403 116.166C679.953 116.166 679.546 116.082 679.179 115.912C678.813 115.74 678.522 115.492 678.307 115.169C678.091 114.843 677.984 114.449 677.984 113.987C677.984 113.581 678.064 113.252 678.224 112.999C678.384 112.744 678.598 112.544 678.865 112.399C679.133 112.254 679.429 112.147 679.752 112.076C680.078 112.002 680.406 111.944 680.735 111.901C681.166 111.845 681.515 111.804 681.783 111.776C682.054 111.745 682.251 111.694 682.374 111.624C682.5 111.553 682.563 111.43 682.563 111.254V111.217C682.563 110.762 682.439 110.408 682.189 110.156C681.943 109.903 681.569 109.777 681.067 109.777C680.547 109.777 680.14 109.891 679.844 110.119C679.549 110.346 679.341 110.589 679.221 110.848L678.187 110.479C678.371 110.048 678.618 109.712 678.925 109.472C679.236 109.229 679.575 109.06 679.941 108.964C680.31 108.866 680.673 108.817 681.03 108.817C681.258 108.817 681.52 108.844 681.815 108.9C682.114 108.952 682.402 109.061 682.679 109.228C682.959 109.394 683.191 109.645 683.376 109.98C683.56 110.316 683.653 110.765 683.653 111.328V116H682.563V115.04H682.508C682.434 115.194 682.311 115.358 682.138 115.534C681.966 115.709 681.737 115.858 681.451 115.982C681.164 116.105 680.815 116.166 680.403 116.166ZM680.569 115.188C681 115.188 681.363 115.103 681.658 114.934C681.957 114.764 682.182 114.546 682.332 114.278C682.486 114.01 682.563 113.729 682.563 113.433V112.436C682.517 112.491 682.415 112.542 682.258 112.588C682.105 112.632 681.926 112.67 681.723 112.704C681.523 112.735 681.327 112.762 681.137 112.787C680.949 112.808 680.797 112.827 680.68 112.842C680.396 112.879 680.132 112.939 679.886 113.022C679.642 113.102 679.446 113.224 679.295 113.387C679.147 113.547 679.073 113.766 679.073 114.043C679.073 114.421 679.213 114.707 679.493 114.901C679.776 115.092 680.135 115.188 680.569 115.188ZM685.013 116V114.984H685.272C685.484 114.984 685.661 114.943 685.803 114.86C685.944 114.774 686.058 114.624 686.144 114.412C686.234 114.196 686.301 113.898 686.348 113.516C686.397 113.132 686.432 112.642 686.454 112.048L686.583 108.909H691.31V116H690.221V109.925H687.617L687.506 112.455C687.482 113.036 687.429 113.549 687.349 113.992C687.272 114.432 687.154 114.801 686.994 115.1C686.837 115.398 686.628 115.623 686.366 115.774C686.104 115.925 685.777 116 685.383 116H685.013ZM694.251 111.476H696.282C697.113 111.476 697.749 111.687 698.189 112.108C698.629 112.53 698.849 113.064 698.849 113.71C698.849 114.135 698.75 114.521 698.553 114.869C698.357 115.214 698.067 115.489 697.686 115.695C697.304 115.898 696.836 116 696.282 116H693.309V108.909H694.399V114.984H696.282C696.713 114.984 697.067 114.871 697.344 114.643C697.621 114.415 697.759 114.123 697.759 113.766C697.759 113.39 697.621 113.084 697.344 112.847C697.067 112.61 696.713 112.491 696.282 112.491H694.251V111.476ZM705.253 111.956V112.972H701.338V111.956H705.253ZM701.597 108.909V116H700.507V108.909H701.597ZM706.084 108.909V116H704.995V108.909H706.084ZM709.016 111.476H711.047C711.878 111.476 712.513 111.687 712.953 112.108C713.394 112.53 713.614 113.064 713.614 113.71C713.614 114.135 713.515 114.521 713.318 114.869C713.121 115.214 712.832 115.489 712.45 115.695C712.069 115.898 711.601 116 711.047 116H708.074V108.909H709.163V114.984H711.047C711.478 114.984 711.832 114.871 712.109 114.643C712.386 114.415 712.524 114.123 712.524 113.766C712.524 113.39 712.386 113.084 712.109 112.847C711.832 112.61 711.478 112.491 711.047 112.491H709.016V111.476ZM714.74 116V108.909H715.83V116H714.74ZM720.797 116.148C720.114 116.148 719.524 115.997 719.029 115.695C718.536 115.391 718.156 114.966 717.888 114.421C717.624 113.873 717.491 113.236 717.491 112.51C717.491 111.784 717.624 111.143 717.888 110.589C718.156 110.032 718.529 109.598 719.006 109.288C719.486 108.974 720.046 108.817 720.686 108.817C721.055 108.817 721.42 108.878 721.78 109.001C722.14 109.125 722.468 109.325 722.763 109.602C723.059 109.875 723.294 110.239 723.47 110.691C723.645 111.143 723.733 111.701 723.733 112.362V112.824H718.267V111.882H722.625C722.625 111.482 722.545 111.125 722.385 110.811C722.228 110.497 722.003 110.249 721.711 110.068C721.422 109.886 721.08 109.795 720.686 109.795C720.252 109.795 719.877 109.903 719.56 110.119C719.246 110.331 719.004 110.608 718.835 110.95C718.666 111.291 718.581 111.657 718.581 112.048V112.676C718.581 113.212 718.673 113.666 718.858 114.038C719.046 114.407 719.306 114.689 719.638 114.883C719.97 115.074 720.357 115.169 720.797 115.169C721.083 115.169 721.342 115.129 721.572 115.049C721.806 114.966 722.008 114.843 722.177 114.68C722.346 114.513 722.477 114.307 722.57 114.061L723.622 114.357C723.511 114.714 723.325 115.027 723.064 115.298C722.802 115.566 722.479 115.775 722.094 115.926C721.709 116.074 721.277 116.148 720.797 116.148ZM731.927 116.148C731.262 116.148 730.69 115.991 730.21 115.677C729.73 115.363 729.36 114.931 729.102 114.38C728.843 113.829 728.714 113.199 728.714 112.491C728.714 111.771 728.846 111.136 729.111 110.585C729.379 110.031 729.751 109.598 730.228 109.288C730.708 108.974 731.269 108.817 731.909 108.817C732.407 108.817 732.857 108.909 733.257 109.094C733.657 109.278 733.985 109.537 734.24 109.869C734.495 110.202 734.654 110.589 734.716 111.033H733.626C733.543 110.71 733.358 110.423 733.072 110.174C732.789 109.922 732.407 109.795 731.927 109.795C731.502 109.795 731.13 109.906 730.81 110.128C730.493 110.346 730.245 110.656 730.067 111.056C729.891 111.453 729.804 111.919 729.804 112.455C729.804 113.002 729.89 113.479 730.062 113.886C730.238 114.292 730.484 114.607 730.801 114.832C731.121 115.057 731.496 115.169 731.927 115.169C732.21 115.169 732.467 115.12 732.698 115.021C732.929 114.923 733.124 114.781 733.284 114.597C733.444 114.412 733.558 114.19 733.626 113.932H734.716C734.654 114.35 734.502 114.727 734.258 115.063C734.018 115.395 733.7 115.66 733.303 115.857C732.909 116.051 732.45 116.148 731.927 116.148ZM739.281 116.148C738.598 116.148 738.009 115.997 737.513 115.695C737.021 115.391 736.641 114.966 736.373 114.421C736.108 113.873 735.976 113.236 735.976 112.51C735.976 111.784 736.108 111.143 736.373 110.589C736.641 110.032 737.013 109.598 737.49 109.288C737.97 108.974 738.53 108.817 739.17 108.817C739.54 108.817 739.904 108.878 740.265 109.001C740.625 109.125 740.952 109.325 741.248 109.602C741.543 109.875 741.779 110.239 741.954 110.691C742.13 111.143 742.217 111.701 742.217 112.362V112.824H736.751V111.882H741.109C741.109 111.482 741.029 111.125 740.869 110.811C740.712 110.497 740.488 110.249 740.195 110.068C739.906 109.886 739.564 109.795 739.17 109.795C738.736 109.795 738.361 109.903 738.044 110.119C737.73 110.331 737.488 110.608 737.319 110.95C737.15 111.291 737.065 111.657 737.065 112.048V112.676C737.065 113.212 737.158 113.666 737.342 114.038C737.53 114.407 737.79 114.689 738.122 114.883C738.455 115.074 738.841 115.169 739.281 115.169C739.567 115.169 739.826 115.129 740.057 115.049C740.291 114.966 740.492 114.843 740.662 114.68C740.831 114.513 740.962 114.307 741.054 114.061L742.106 114.357C741.996 114.714 741.809 115.027 741.548 115.298C741.286 115.566 740.963 115.775 740.578 115.926C740.194 116.074 739.761 116.148 739.281 116.148ZM743.214 109.925V108.909H748.976V109.925H746.649V116H745.56V109.925H743.214ZM751.655 114.393L755.071 108.909H756.326V116H755.237V110.516L751.839 116H750.565V108.909H751.655V114.393ZM759.116 116.074C758.888 116.074 758.693 115.992 758.53 115.829C758.366 115.666 758.285 115.471 758.285 115.243C758.285 115.015 758.366 114.82 758.53 114.657C758.693 114.493 758.888 114.412 759.116 114.412C759.344 114.412 759.539 114.493 759.702 114.657C759.865 114.82 759.947 115.015 759.947 115.243C759.947 115.394 759.908 115.532 759.831 115.658C759.758 115.785 759.658 115.886 759.531 115.963C759.408 116.037 759.27 116.074 759.116 116.074ZM759.116 110.811C758.888 110.811 758.693 110.73 758.53 110.566C758.366 110.403 758.285 110.208 758.285 109.98C758.285 109.752 758.366 109.557 758.53 109.394C758.693 109.231 758.888 109.149 759.116 109.149C759.344 109.149 759.539 109.231 759.702 109.394C759.865 109.557 759.947 109.752 759.947 109.98C759.947 110.131 759.908 110.269 759.831 110.396C759.758 110.522 759.658 110.623 759.531 110.7C759.408 110.774 759.27 110.811 759.116 110.811Z" fill="#2A2C36"/>
<path d="M349.628 106.545H350.994L354.207 114.393H354.318L357.531 106.545H358.898V116H357.827V108.817H357.734L354.78 116H353.746L350.791 108.817H350.699V116H349.628V106.545ZM363.926 116.148C363.286 116.148 362.724 115.995 362.241 115.691C361.761 115.386 361.386 114.96 361.115 114.412C360.847 113.864 360.713 113.224 360.713 112.491C360.713 111.753 360.847 111.108 361.115 110.557C361.386 110.006 361.761 109.578 362.241 109.274C362.724 108.969 363.286 108.817 363.926 108.817C364.566 108.817 365.126 108.969 365.607 109.274C366.09 109.578 366.465 110.006 366.733 110.557C367.004 111.108 367.139 111.753 367.139 112.491C367.139 113.224 367.004 113.864 366.733 114.412C366.465 114.96 366.09 115.386 365.607 115.691C365.126 115.995 364.566 116.148 363.926 116.148ZM363.926 115.169C364.412 115.169 364.813 115.044 365.126 114.795C365.44 114.546 365.673 114.218 365.824 113.812C365.974 113.406 366.05 112.965 366.05 112.491C366.05 112.018 365.974 111.576 365.824 111.167C365.673 110.757 365.44 110.426 365.126 110.174C364.813 109.922 364.412 109.795 363.926 109.795C363.44 109.795 363.04 109.922 362.726 110.174C362.412 110.426 362.18 110.757 362.029 111.167C361.878 111.576 361.803 112.018 361.803 112.491C361.803 112.965 361.878 113.406 362.029 113.812C362.18 114.218 362.412 114.546 362.726 114.795C363.04 115.044 363.44 115.169 363.926 115.169ZM374.065 106.25L374.619 106.915C374.404 107.124 374.154 107.27 373.871 107.353C373.588 107.436 373.268 107.487 372.911 107.506C372.554 107.524 372.157 107.543 371.72 107.561C371.228 107.58 370.82 107.7 370.497 107.921C370.173 108.143 369.924 108.463 369.749 108.881C369.573 109.3 369.461 109.814 369.412 110.423H369.504C369.744 109.98 370.076 109.654 370.501 109.445C370.926 109.235 371.381 109.131 371.868 109.131C372.422 109.131 372.92 109.26 373.363 109.518C373.807 109.777 374.157 110.16 374.416 110.668C374.674 111.176 374.804 111.802 374.804 112.547C374.804 113.289 374.671 113.929 374.407 114.467C374.145 115.006 373.777 115.421 373.303 115.714C372.833 116.003 372.28 116.148 371.646 116.148C371.012 116.148 370.457 115.998 369.98 115.7C369.503 115.398 369.132 114.952 368.867 114.361C368.602 113.767 368.47 113.033 368.47 112.159V111.402C368.47 109.823 368.738 108.626 369.273 107.81C369.812 106.995 370.621 106.573 371.701 106.545C372.083 106.533 372.423 106.53 372.722 106.536C373.02 106.542 373.28 106.529 373.502 106.495C373.723 106.461 373.911 106.379 374.065 106.25ZM371.646 115.169C372.074 115.169 372.442 115.061 372.749 114.846C373.06 114.63 373.299 114.327 373.465 113.936C373.631 113.542 373.714 113.079 373.714 112.547C373.714 112.03 373.63 111.59 373.46 111.227C373.294 110.863 373.056 110.586 372.745 110.396C372.434 110.205 372.062 110.109 371.628 110.109C371.311 110.109 371.026 110.163 370.774 110.271C370.521 110.379 370.306 110.537 370.127 110.746C369.949 110.956 369.81 111.211 369.712 111.513C369.616 111.814 369.566 112.159 369.559 112.547C369.559 113.341 369.746 113.976 370.118 114.453C370.49 114.931 371 115.169 371.646 115.169ZM377.56 114.393L380.976 108.909H382.232V116H381.142V110.516L377.744 116H376.47V108.909H377.56V114.393ZM383.599 116V114.984H383.858C384.07 114.984 384.247 114.943 384.389 114.86C384.53 114.774 384.644 114.624 384.73 114.412C384.82 114.196 384.887 113.898 384.933 113.516C384.983 113.132 385.018 112.642 385.04 112.048L385.169 108.909H389.896V116H388.807V109.925H386.203L386.092 112.455C386.068 113.036 386.015 113.549 385.935 113.992C385.858 114.432 385.74 114.801 385.58 115.1C385.423 115.398 385.214 115.623 384.952 115.774C384.69 115.925 384.363 116 383.969 116H383.599ZM392.837 111.476H394.868C395.699 111.476 396.335 111.687 396.775 112.108C397.215 112.53 397.435 113.064 397.435 113.71C397.435 114.135 397.336 114.521 397.139 114.869C396.942 115.214 396.653 115.489 396.272 115.695C395.89 115.898 395.422 116 394.868 116H391.895V108.909H392.985V114.984H394.868C395.299 114.984 395.653 114.871 395.93 114.643C396.207 114.415 396.345 114.123 396.345 113.766C396.345 113.39 396.207 113.084 395.93 112.847C395.653 112.61 395.299 112.491 394.868 112.491H392.837V111.476ZM403.839 111.956V112.972H399.924V111.956H403.839ZM400.183 108.909V116H399.093V108.909H400.183ZM404.67 108.909V116H403.581V108.909H404.67ZM409.54 116.148C408.9 116.148 408.339 115.995 407.855 115.691C407.375 115.386 407 114.96 406.729 114.412C406.461 113.864 406.327 113.224 406.327 112.491C406.327 111.753 406.461 111.108 406.729 110.557C407 110.006 407.375 109.578 407.855 109.274C408.339 108.969 408.9 108.817 409.54 108.817C410.181 108.817 410.741 108.969 411.221 109.274C411.704 109.578 412.08 110.006 412.347 110.557C412.618 111.108 412.754 111.753 412.754 112.491C412.754 113.224 412.618 113.864 412.347 114.412C412.08 114.96 411.704 115.386 411.221 115.691C410.741 115.995 410.181 116.148 409.54 116.148ZM409.54 115.169C410.027 115.169 410.427 115.044 410.741 114.795C411.055 114.546 411.287 114.218 411.438 113.812C411.589 113.406 411.664 112.965 411.664 112.491C411.664 112.018 411.589 111.576 411.438 111.167C411.287 110.757 411.055 110.426 410.741 110.174C410.427 109.922 410.027 109.795 409.54 109.795C409.054 109.795 408.654 109.922 408.34 110.174C408.026 110.426 407.794 110.757 407.643 111.167C407.492 111.576 407.417 112.018 407.417 112.491C407.417 112.965 407.492 113.406 407.643 113.812C407.794 114.218 408.026 114.546 408.34 114.795C408.654 115.044 409.054 115.169 409.54 115.169ZM417.39 116.148C416.706 116.148 416.117 115.997 415.621 115.695C415.129 115.391 414.749 114.966 414.481 114.421C414.217 113.873 414.084 113.236 414.084 112.51C414.084 111.784 414.217 111.143 414.481 110.589C414.749 110.032 415.121 109.598 415.598 109.288C416.079 108.974 416.639 108.817 417.279 108.817C417.648 108.817 418.013 108.878 418.373 109.001C418.733 109.125 419.061 109.325 419.356 109.602C419.652 109.875 419.887 110.239 420.063 110.691C420.238 111.143 420.326 111.701 420.326 112.362V112.824H414.86V111.882H419.218C419.218 111.482 419.138 111.125 418.978 110.811C418.821 110.497 418.596 110.249 418.304 110.068C418.014 109.886 417.673 109.795 417.279 109.795C416.845 109.795 416.469 109.903 416.152 110.119C415.838 110.331 415.597 110.608 415.428 110.95C415.258 111.291 415.174 111.657 415.174 112.048V112.676C415.174 113.212 415.266 113.666 415.451 114.038C415.638 114.407 415.898 114.689 416.231 114.883C416.563 115.074 416.95 115.169 417.39 115.169C417.676 115.169 417.934 115.129 418.165 115.049C418.399 114.966 418.601 114.843 418.77 114.68C418.939 114.513 419.07 114.307 419.162 114.061L420.215 114.357C420.104 114.714 419.918 115.027 419.656 115.298C419.395 115.566 419.072 115.775 418.687 115.926C418.302 116.074 417.87 116.148 417.39 116.148ZM425.639 116V108.909H431.216V116H430.126V109.925H426.729V116H425.639ZM433.206 118.659V108.909H434.258V110.036H434.387C434.467 109.912 434.578 109.755 434.72 109.565C434.865 109.371 435.071 109.198 435.338 109.048C435.609 108.894 435.976 108.817 436.437 108.817C437.034 108.817 437.561 108.966 438.016 109.265C438.472 109.563 438.827 109.986 439.082 110.534C439.338 111.082 439.466 111.728 439.466 112.473C439.466 113.224 439.338 113.875 439.082 114.426C438.827 114.974 438.473 115.398 438.021 115.7C437.568 115.998 437.047 116.148 436.456 116.148C436 116.148 435.635 116.072 435.362 115.922C435.088 115.768 434.877 115.594 434.729 115.4C434.581 115.203 434.467 115.04 434.387 114.911H434.295V118.659H433.206ZM434.277 112.455C434.277 112.99 434.355 113.462 434.512 113.872C434.669 114.278 434.898 114.597 435.2 114.827C435.502 115.055 435.871 115.169 436.308 115.169C436.763 115.169 437.144 115.049 437.448 114.809C437.756 114.566 437.987 114.24 438.141 113.83C438.298 113.418 438.376 112.959 438.376 112.455C438.376 111.956 438.299 111.507 438.145 111.107C437.994 110.703 437.765 110.385 437.457 110.151C437.153 109.914 436.77 109.795 436.308 109.795C435.865 109.795 435.492 109.908 435.191 110.132C434.889 110.354 434.661 110.665 434.508 111.065C434.354 111.462 434.277 111.925 434.277 112.455ZM442.217 114.393L445.633 108.909H446.889V116H445.799V110.516L442.402 116H441.128V108.909H442.217V114.393ZM448.257 116V114.984H448.515C448.727 114.984 448.904 114.943 449.046 114.86C449.188 114.774 449.301 114.624 449.388 114.412C449.477 114.196 449.545 113.898 449.591 113.516C449.64 113.132 449.675 112.642 449.697 112.048L449.826 108.909H454.553V116H453.464V109.925H450.86L450.749 112.455C450.725 113.036 450.672 113.549 450.592 113.992C450.516 114.432 450.397 114.801 450.237 115.1C450.08 115.398 449.871 115.623 449.609 115.774C449.348 115.925 449.02 116 448.626 116H448.257ZM459.433 116.148C458.793 116.148 458.231 115.995 457.748 115.691C457.268 115.386 456.892 114.96 456.622 114.412C456.354 113.864 456.22 113.224 456.22 112.491C456.22 111.753 456.354 111.108 456.622 110.557C456.892 110.006 457.268 109.578 457.748 109.274C458.231 108.969 458.793 108.817 459.433 108.817C460.073 108.817 460.633 108.969 461.113 109.274C461.597 109.578 461.972 110.006 462.24 110.557C462.511 111.108 462.646 111.753 462.646 112.491C462.646 113.224 462.511 113.864 462.24 114.412C461.972 114.96 461.597 115.386 461.113 115.691C460.633 115.995 460.073 116.148 459.433 116.148ZM459.433 115.169C459.919 115.169 460.319 115.044 460.633 114.795C460.947 114.546 461.18 114.218 461.33 113.812C461.481 113.406 461.557 112.965 461.557 112.491C461.557 112.018 461.481 111.576 461.33 111.167C461.18 110.757 460.947 110.426 460.633 110.174C460.319 109.922 459.919 109.795 459.433 109.795C458.947 109.795 458.547 109.922 458.233 110.174C457.919 110.426 457.686 110.757 457.536 111.167C457.385 111.576 457.309 112.018 457.309 112.491C457.309 112.965 457.385 113.406 457.536 113.812C457.686 114.218 457.919 114.546 458.233 114.795C458.547 115.044 458.947 115.169 459.433 115.169ZM463.574 116L466.455 112.399L463.611 108.909H464.904L467.267 111.938H467.858V108.909H468.948V111.938H469.52L471.884 108.909H473.176L470.351 112.399L473.213 116H471.902L469.502 112.953H468.948V116H467.858V112.953H467.304L464.885 116H463.574ZM477.451 116.148C476.768 116.148 476.179 115.997 475.683 115.695C475.191 115.391 474.811 114.966 474.543 114.421C474.278 113.873 474.146 113.236 474.146 112.51C474.146 111.784 474.278 111.143 474.543 110.589C474.811 110.032 475.183 109.598 475.66 109.288C476.14 108.974 476.7 108.817 477.34 108.817C477.71 108.817 478.074 108.878 478.434 109.001C478.795 109.125 479.122 109.325 479.418 109.602C479.713 109.875 479.949 110.239 480.124 110.691C480.299 111.143 480.387 111.701 480.387 112.362V112.824H474.921V111.882H479.279C479.279 111.482 479.199 111.125 479.039 110.811C478.882 110.497 478.658 110.249 478.365 110.068C478.076 109.886 477.734 109.795 477.34 109.795C476.906 109.795 476.531 109.903 476.214 110.119C475.9 110.331 475.658 110.608 475.489 110.95C475.32 111.291 475.235 111.657 475.235 112.048V112.676C475.235 113.212 475.328 113.666 475.512 114.038C475.7 114.407 475.96 114.689 476.292 114.883C476.625 115.074 477.011 115.169 477.451 115.169C477.737 115.169 477.996 115.129 478.227 115.049C478.461 114.966 478.662 114.843 478.831 114.68C479.001 114.513 479.132 114.307 479.224 114.061L480.276 114.357C480.166 114.714 479.979 115.027 479.718 115.298C479.456 115.566 479.133 115.775 478.748 115.926C478.364 116.074 477.931 116.148 477.451 116.148ZM486.79 111.956V112.972H482.875V111.956H486.79ZM483.134 108.909V116H482.045V108.909H483.134ZM487.621 108.909V116H486.532V108.909H487.621ZM490.7 114.393L494.117 108.909H495.372V116H494.283V110.516L490.885 116H489.611V108.909H490.7V114.393ZM500.341 116.148C499.658 116.148 499.068 115.997 498.573 115.695C498.08 115.391 497.7 114.966 497.432 114.421C497.168 113.873 497.035 113.236 497.035 112.51C497.035 111.784 497.168 111.143 497.432 110.589C497.7 110.032 498.073 109.598 498.55 109.288C499.03 108.974 499.59 108.817 500.23 108.817C500.599 108.817 500.964 108.878 501.324 109.001C501.684 109.125 502.012 109.325 502.307 109.602C502.603 109.875 502.838 110.239 503.014 110.691C503.189 111.143 503.277 111.701 503.277 112.362V112.824H497.811V111.882H502.169C502.169 111.482 502.089 111.125 501.929 110.811C501.772 110.497 501.547 110.249 501.255 110.068C500.966 109.886 500.624 109.795 500.23 109.795C499.796 109.795 499.421 109.903 499.104 110.119C498.79 110.331 498.548 110.608 498.379 110.95C498.21 111.291 498.125 111.657 498.125 112.048V112.676C498.125 113.212 498.217 113.666 498.402 114.038C498.59 114.407 498.85 114.689 499.182 114.883C499.514 115.074 499.901 115.169 500.341 115.169C500.627 115.169 500.886 115.129 501.116 115.049C501.35 114.966 501.552 114.843 501.721 114.68C501.89 114.513 502.021 114.307 502.114 114.061L503.166 114.357C503.055 114.714 502.869 115.027 502.607 115.298C502.346 115.566 502.023 115.775 501.638 115.926C501.253 116.074 500.821 116.148 500.341 116.148ZM505.728 116.074C505.5 116.074 505.305 115.992 505.142 115.829C504.979 115.666 504.897 115.471 504.897 115.243C504.897 115.015 504.979 114.82 505.142 114.657C505.305 114.493 505.5 114.412 505.728 114.412C505.956 114.412 506.151 114.493 506.314 114.657C506.478 114.82 506.559 115.015 506.559 115.243C506.559 115.394 506.521 115.532 506.444 115.658C506.37 115.785 506.27 115.886 506.144 115.963C506.021 116.037 505.882 116.074 505.728 116.074ZM505.728 110.811C505.5 110.811 505.305 110.73 505.142 110.566C504.979 110.403 504.897 110.208 504.897 109.98C504.897 109.752 504.979 109.557 505.142 109.394C505.305 109.231 505.5 109.149 505.728 109.149C505.956 109.149 506.151 109.231 506.314 109.394C506.478 109.557 506.559 109.752 506.559 109.98C506.559 110.131 506.521 110.269 506.444 110.396C506.37 110.522 506.27 110.623 506.144 110.7C506.021 110.774 505.882 110.811 505.728 110.811Z" fill="#2A2C36"/>
<path fill-rule="evenodd" clip-rule="evenodd" d="M548.375 95C553 95 556 98 556 102.625V119.375C556 124 553 127 548.375 127H531.625C527 127 524 124 524 119.375V102.625C524 98 527 95 531.625 95H548.375Z" fill="#2A2C36"/>
<path d="M538.524 110.305L530.219 120.027C530.521 121.056 531.481 121.777 532.554 121.777C533.02 121.777 533.429 121.66 533.779 121.427L543.996 115.591L538.524 110.305Z" fill="#EA4335"/>
<path d="M548.314 108.938L543.936 106.428L539.266 111.04L543.994 115.593L548.373 113.141C549.132 112.732 549.657 111.915 549.657 111.04C549.598 110.164 549.073 109.347 548.314 108.938Z" fill="#FBBC04"/>
<path d="M538.504 111.797L543.937 106.427L533.838 100.706C533.488 100.472 533.02 100.355 532.554 100.355C531.445 100.355 530.452 101.114 530.219 102.107L538.504 111.797Z" fill="#34A853"/>
<path d="M530.218 102.107C530.16 102.282 530.16 102.516 530.16 102.749V119.387C530.16 119.62 530.16 119.796 530.219 120.029L539.268 111.039L530.218 102.107Z" fill="#4285F4"/>
<path fill-rule="evenodd" clip-rule="evenodd" d="M588.375 95C593 95 596 98 596 102.625V119.375C596 124 593 127 588.375 127H571.625C567 127 564 124 564 119.375V102.625C564 98 567 95 571.625 95H588.375Z" fill="#2A2C36"/>
<path fill-rule="evenodd" clip-rule="evenodd" d="M583.014 102.307C583.82 101.43 584.264 100.227 584.194 99C583.096 99 581.822 99.6426 581.016 100.589C580.385 101.372 579.707 102.599 579.953 103.826C581.086 103.966 582.313 103.253 583.014 102.307ZM584.089 104.094C582.383 104.094 580.876 105.041 580.069 105.041C579.228 105.041 578.001 104.048 576.623 104.094C574.823 104.129 573.176 105.193 572.253 106.758C571.598 107.88 571.341 109.2 571.365 110.544C571.4 113.079 572.393 115.72 573.561 117.403C574.461 118.688 575.478 120.067 576.915 120.067C578.212 120.067 578.691 119.202 580.385 119.202C581.962 119.202 582.453 120.067 583.82 120.067C585.257 120.067 586.204 118.758 587.057 117.461C588.132 115.954 588.494 114.517 588.541 114.458C588.494 114.458 585.783 113.36 585.678 110.229C585.678 107.483 587.91 106.244 588.003 106.186C586.788 104.316 584.825 104.094 584.089 104.094Z" fill="white"/>
<g clip-path="url(#clip2_3721_56712)">
<path d="M836.003 120.027C835.998 120.316 835.997 120.605 835.995 120.894L835.993 121.015L835.872 121.02C835.584 121.03 835.294 121.033 835.004 121.035C834.988 123.97 834.997 126.904 834.996 129.839V129.966L834.87 129.967C834.627 129.97 834.382 129.972 834.137 129.979L834.004 129.982L834.006 129.849C834.011 129.562 834.009 129.276 834.002 128.99C833.007 128.982 832.011 128.977 831.016 128.994C831.018 129.986 831.014 130.977 831.016 131.969C831.305 131.975 831.597 131.988 831.889 131.967L832.048 131.956L832.024 132.115C831.983 132.401 832.011 132.691 832.012 132.978C832.287 132.992 832.564 132.995 832.842 132.996H832.961L832.97 133.114C833.016 133.727 832.994 134.343 833.004 134.959C833.29 134.971 833.578 134.975 833.865 134.978L833.99 134.98L833.991 135.104C833.996 135.72 833.994 136.334 834.004 136.949C834.293 136.954 834.583 136.969 834.875 136.951L835.022 136.943L835.011 137.089C834.962 137.703 835.004 138.323 834.999 138.94C835.281 138.946 835.561 138.95 835.843 138.951H835.969L835.971 139.077C835.983 140.027 835.977 140.978 835.99 141.928C837.629 141.952 839.269 141.954 840.908 141.952C842.586 141.95 844.264 141.964 845.942 141.923C845.916 140.976 846 140.029 845.962 139.082L845.957 138.946L846.093 138.95C846.374 138.958 846.656 138.952 846.936 138.943C846.947 138.001 846.948 137.057 846.949 136.115V135.998L847.064 135.987C847.35 135.96 847.638 135.957 847.928 135.96C847.935 134.904 847.916 133.85 847.948 132.794V132.791V132.788C847.913 131.52 847.937 130.251 847.922 128.982C847.638 128.985 847.354 128.982 847.072 128.978L846.949 128.976L846.946 128.853C846.94 128.573 846.937 128.292 846.941 128.01C846.649 128.002 846.359 128.011 846.07 127.994L845.958 127.988L845.95 127.876C845.93 127.585 845.94 127.291 845.936 126.997C845.318 126.994 844.7 126.999 844.083 126.99L843.958 126.989L843.956 126.864C843.952 126.585 843.948 126.305 843.952 126.025C843.003 125.974 842.052 126.007 841.103 125.996L840.981 125.994L840.977 125.874C840.964 125.587 840.958 125.298 840.959 125.008C840.342 125.005 839.725 125.01 839.109 124.997L838.986 124.993L838.984 124.87C838.972 123.592 838.979 122.314 838.975 121.036C838.81 121.035 838.645 121.033 838.481 121.033C838.358 121.033 838.236 121.033 838.113 121.035L837.982 121.036L837.984 120.905C837.988 120.612 837.988 120.318 837.96 120.027C837.308 120.029 836.655 120.031 836.003 120.027H836.003Z" fill="white"/>
<path d="M836 120.027C836.653 120.031 837.306 120.03 837.958 120.028C837.989 120.355 837.988 120.685 837.982 121.013C837.318 121.019 836.656 121.011 835.992 121.019C835.995 120.689 835.995 120.358 836 120.027Z" fill="#1C1C1C"/>
<path d="M835.003 121.035C835.333 121.033 835.663 121.034 835.993 121.02C835.994 124.671 835.999 128.322 835.995 131.973C835.663 131.981 835.331 131.981 834.998 131.973C834.992 131.647 834.992 131.319 834.997 130.992C834.666 130.979 834.336 130.981 834.005 130.982C833.994 130.648 833.992 130.314 834.005 129.98C834.334 129.968 834.665 129.972 834.995 129.967C834.997 126.99 834.987 124.013 835.003 121.035Z" fill="#1C1C1C"/>
<path d="M837.984 121.036C838.313 121.031 838.643 121.033 838.972 121.036C838.976 122.356 838.967 123.677 838.981 124.997C839.639 125.014 840.298 125.005 840.956 125.008C840.955 125.337 840.956 125.667 840.975 125.996C841.966 126.012 842.958 125.972 843.948 126.025C843.944 126.347 843.946 126.668 843.953 126.99C844.613 127.002 845.273 126.994 845.933 126.997C845.938 127.328 845.917 127.66 845.952 127.99C846.28 128.018 846.609 128.001 846.937 128.011C846.932 128.333 846.935 128.655 846.943 128.978C847.268 128.983 847.593 128.986 847.919 128.983C847.934 130.253 847.909 131.522 847.945 132.791C847.913 133.848 847.932 134.904 847.925 135.961C847.598 135.958 847.27 135.957 846.946 135.997C846.944 136.979 846.944 137.961 846.933 138.943C846.607 138.953 846.28 138.964 845.955 138.948C845.918 137.949 845.935 136.949 845.945 135.949C846.273 135.952 846.601 135.952 846.93 135.95C846.93 133.628 846.932 131.307 846.934 128.986C846.606 128.981 846.278 128.982 845.95 128.986C845.931 128.663 845.953 128.338 845.926 128.016C845.601 127.953 845.269 127.991 844.94 127.99C844.933 128.986 844.952 129.982 844.932 130.978C844.607 130.979 844.282 130.979 843.957 130.979C843.935 129.651 843.958 128.323 843.95 126.994C843.284 126.991 842.619 126.992 841.954 126.994C841.954 127.99 841.965 128.985 841.953 129.979C841.623 129.986 841.294 129.986 840.965 129.98C840.959 128.653 840.957 127.325 840.973 125.998C840.307 125.995 839.642 125.994 838.976 126.002C838.969 127.328 838.981 128.653 838.976 129.979C838.643 129.989 838.31 129.989 837.977 129.98C837.977 126.999 837.978 124.017 837.984 121.036Z" fill="#1C1C1C"/>
<path d="M831.013 128.993C832.008 128.977 833.004 128.982 833.999 128.99C834.006 129.32 834.012 129.65 834.002 129.98C833.342 129.995 832.682 129.983 832.022 129.989C831.998 130.646 832.057 131.305 832.012 131.962C831.68 132 831.345 131.975 831.012 131.969C831.01 130.977 831.014 129.985 831.013 128.993Z" fill="#1C1C1C"/>
<path d="M832.04 131.984C832.36 131.935 832.685 131.953 833.007 131.962C833.014 132.294 833.014 132.627 833.011 132.959C833.344 132.961 833.675 132.96 834.008 132.965C834.015 133.627 834.008 134.289 834.011 134.951C834.339 134.949 834.668 134.949 834.996 134.954C834.992 135.618 835.039 136.287 834.971 136.947C834.648 136.977 834.324 136.954 834.001 136.949C833.991 136.292 833.992 135.636 833.986 134.98C833.658 134.978 833.329 134.972 833.001 134.959C832.99 134.305 833.022 133.651 832.963 132.999C832.645 133 832.327 132.994 832.01 132.978C832.008 132.646 831.965 132.31 832.04 131.984Z" fill="#1C1C1C"/>
<path d="M835.019 136.952C835.344 136.927 835.67 136.942 835.996 136.944C836.005 137.604 835.997 138.265 835.999 138.925C836.33 138.924 836.662 138.924 836.994 138.935C837 139.596 836.988 140.257 836.998 140.918C839.644 140.924 842.291 140.923 844.937 140.922C844.948 140.26 844.935 139.599 844.942 138.937C845.28 138.933 845.619 138.928 845.958 138.947C846.012 139.939 845.914 140.931 845.943 141.923C844.264 141.964 842.586 141.949 840.908 141.951C839.269 141.953 837.629 141.951 835.991 141.928C835.977 140.936 835.984 139.944 835.969 138.953C835.646 138.952 835.323 138.947 834.999 138.94C835.004 138.278 834.951 137.611 835.019 136.952Z" fill="#1C1C1C"/>
</g>
<defs>
<filter id="filter0_d_3721_56712" x="1326" y="0" width="260" height="76" filterUnits="userSpaceOnUse" color-interpolation-filters="sRGB">
<feFlood flood-opacity="0" result="BackgroundImageFix"/>
<feColorMatrix in="SourceAlpha" type="matrix" values="0 0 0 0 0 0 0 0 0 0 0 0 0 0 0 0 0 0 127 0" result="hardAlpha"/>
<feOffset/>
<feGaussianBlur stdDeviation="5"/>
<feColorMatrix type="matrix" values="0 0 0 0 0 0 0 0 0 0 0 0 0 0 0 0 0 0 0.1 0"/>
<feBlend mode="normal" in2="BackgroundImageFix" result="effect1_dropShadow_3721_56712"/>
<feBlend mode="normal" in="SourceGraphic" in2="effect1_dropShadow_3721_56712" result="shape"/>
</filter>
<clipPath id="clip0_3721_56712">
<rect width="16" height="16" fill="white" transform="translate(865 103)"/>
</clipPath>
<clipPath id="clip1_3721_56712">
<rect width="32" height="32" fill="white" transform="translate(777 95)"/>
</clipPath>
<clipPath id="clip2_3721_56712">
<rect width="17" height="22" fill="white" transform="translate(831 120)"/>
</clipPath>
</defs>
</svg>
