<svg width="1600" height="89" viewBox="0 0 1600 89" fill="none" xmlns="http://www.w3.org/2000/svg">
<rect width="1600" height="89" fill="white"/>
<circle cx="227" cy="49" r="24" fill="#E4FFB1"/>
<path d="M203.969 36.151C204.375 35.591 204.928 35.136 205.628 34.786C206.342 34.422 207.133 34.24 208.001 34.24C209.023 34.24 209.947 34.485 210.773 34.975C211.599 35.465 212.25 36.165 212.726 37.075C213.202 37.971 213.44 39 213.44 40.162C213.44 41.324 213.202 42.367 212.726 43.291C212.25 44.201 211.592 44.915 210.752 45.433C209.926 45.937 209.009 46.189 208.001 46.189C207.105 46.189 206.307 46.014 205.607 45.664C204.921 45.314 204.375 44.866 203.969 44.32V46H201.575V30.46H203.969V36.151ZM211.004 40.162C211.004 39.364 210.836 38.678 210.5 38.104C210.178 37.516 209.744 37.075 209.198 36.781C208.666 36.473 208.092 36.319 207.476 36.319C206.874 36.319 206.3 36.473 205.754 36.781C205.222 37.089 204.788 37.537 204.452 38.125C204.13 38.713 203.969 39.406 203.969 40.204C203.969 41.002 204.13 41.702 204.452 42.304C204.788 42.892 205.222 43.34 205.754 43.648C206.3 43.956 206.874 44.11 207.476 44.11C208.092 44.11 208.666 43.956 209.198 43.648C209.744 43.326 210.178 42.864 210.5 42.262C210.836 41.66 211.004 40.96 211.004 40.162ZM226.412 39.931C226.412 40.365 226.384 40.757 226.328 41.107H217.487C217.557 42.031 217.9 42.773 218.516 43.333C219.132 43.893 219.888 44.173 220.784 44.173C222.072 44.173 222.982 43.634 223.514 42.556H226.097C225.747 43.62 225.11 44.495 224.186 45.181C223.276 45.853 222.142 46.189 220.784 46.189C219.678 46.189 218.684 45.944 217.802 45.454C216.934 44.95 216.248 44.25 215.744 43.354C215.254 42.444 215.009 41.394 215.009 40.204C215.009 39.014 215.247 37.971 215.723 37.075C216.213 36.165 216.892 35.465 217.76 34.975C218.642 34.485 219.65 34.24 220.784 34.24C221.876 34.24 222.849 34.478 223.703 34.954C224.557 35.43 225.222 36.102 225.698 36.97C226.174 37.824 226.412 38.811 226.412 39.931ZM223.913 39.175C223.899 38.293 223.584 37.586 222.968 37.054C222.352 36.522 221.589 36.256 220.679 36.256C219.853 36.256 219.146 36.522 218.558 37.054C217.97 37.572 217.62 38.279 217.508 39.175H223.913ZM232.968 46.189C232.058 46.189 231.239 46.028 230.511 45.706C229.797 45.37 229.23 44.922 228.81 44.362C228.39 43.788 228.166 43.151 228.138 42.451H230.616C230.658 42.941 230.889 43.354 231.309 43.69C231.743 44.012 232.282 44.173 232.926 44.173C233.598 44.173 234.116 44.047 234.48 43.795C234.858 43.529 235.047 43.193 235.047 42.787C235.047 42.353 234.837 42.031 234.417 41.821C234.011 41.611 233.36 41.38 232.464 41.128C231.596 40.89 230.889 40.659 230.343 40.435C229.797 40.211 229.321 39.868 228.915 39.406C228.523 38.944 228.327 38.335 228.327 37.579C228.327 36.963 228.509 36.403 228.873 35.899C229.237 35.381 229.755 34.975 230.427 34.681C231.113 34.387 231.897 34.24 232.779 34.24C234.095 34.24 235.152 34.576 235.95 35.248C236.762 35.906 237.196 36.809 237.252 37.957H234.858C234.816 37.439 234.606 37.026 234.228 36.718C233.85 36.41 233.339 36.256 232.695 36.256C232.065 36.256 231.582 36.375 231.246 36.613C230.91 36.851 230.742 37.166 230.742 37.558C230.742 37.866 230.854 38.125 231.078 38.335C231.302 38.545 231.575 38.713 231.897 38.839C232.219 38.951 232.695 39.098 233.325 39.28C234.165 39.504 234.851 39.735 235.383 39.973C235.929 40.197 236.398 40.533 236.79 40.981C237.182 41.429 237.385 42.024 237.399 42.766C237.399 43.424 237.217 44.012 236.853 44.53C236.489 45.048 235.971 45.454 235.299 45.748C234.641 46.042 233.864 46.189 232.968 46.189ZM242.779 36.382V42.787C242.779 43.221 242.877 43.536 243.073 43.732C243.283 43.914 243.633 44.005 244.123 44.005H245.593V46H243.703C242.625 46 241.799 45.748 241.225 45.244C240.651 44.74 240.364 43.921 240.364 42.787V36.382H238.999V34.429H240.364V31.552H242.779V34.429H245.593V36.382H242.779Z" fill="#2A2C36"/>
<path d="M203.969 57.13C204.375 56.598 204.928 56.15 205.628 55.786C206.328 55.422 207.119 55.24 208.001 55.24C209.009 55.24 209.926 55.492 210.752 55.996C211.592 56.486 212.25 57.179 212.726 58.075C213.202 58.971 213.44 60 213.44 61.162C213.44 62.324 213.202 63.367 212.726 64.291C212.25 65.201 211.592 65.915 210.752 66.433C209.926 66.937 209.009 67.189 208.001 67.189C207.119 67.189 206.335 67.014 205.649 66.664C204.963 66.3 204.403 65.852 203.969 65.32V72.502H201.575V55.429H203.969V57.13ZM211.004 61.162C211.004 60.364 210.836 59.678 210.5 59.104C210.178 58.516 209.744 58.075 209.198 57.781C208.666 57.473 208.092 57.319 207.476 57.319C206.874 57.319 206.3 57.473 205.754 57.781C205.222 58.089 204.788 58.537 204.452 59.125C204.13 59.713 203.969 60.406 203.969 61.204C203.969 62.002 204.13 62.702 204.452 63.304C204.788 63.892 205.222 64.34 205.754 64.648C206.3 64.956 206.874 65.11 207.476 65.11C208.092 65.11 208.666 64.956 209.198 64.648C209.744 64.326 210.178 63.864 210.5 63.262C210.836 62.66 211.004 61.96 211.004 61.162ZM218.201 57.109C218.551 56.521 219.013 56.066 219.587 55.744C220.175 55.408 220.868 55.24 221.666 55.24V57.718H221.057C220.119 57.718 219.405 57.956 218.915 58.432C218.439 58.908 218.201 59.734 218.201 60.91V67H215.807V55.429H218.201V57.109ZM225.085 53.896C224.651 53.896 224.287 53.749 223.993 53.455C223.699 53.161 223.552 52.797 223.552 52.363C223.552 51.929 223.699 51.565 223.993 51.271C224.287 50.977 224.651 50.83 225.085 50.83C225.505 50.83 225.862 50.977 226.156 51.271C226.45 51.565 226.597 51.929 226.597 52.363C226.597 52.797 226.45 53.161 226.156 53.455C225.862 53.749 225.505 53.896 225.085 53.896ZM226.261 55.429V67H223.867V55.429H226.261ZM228.606 61.204C228.606 60.014 228.844 58.971 229.32 58.075C229.81 57.165 230.482 56.465 231.336 55.975C232.19 55.485 233.17 55.24 234.276 55.24C235.676 55.24 236.831 55.576 237.741 56.248C238.665 56.906 239.288 57.851 239.61 59.083H237.027C236.817 58.509 236.481 58.061 236.019 57.739C235.557 57.417 234.976 57.256 234.276 57.256C233.296 57.256 232.512 57.606 231.924 58.306C231.35 58.992 231.063 59.958 231.063 61.204C231.063 62.45 231.35 63.423 231.924 64.123C232.512 64.823 233.296 65.173 234.276 65.173C235.662 65.173 236.579 64.564 237.027 63.346H239.61C239.274 64.522 238.644 65.46 237.72 66.16C236.796 66.846 235.648 67.189 234.276 67.189C233.17 67.189 232.19 66.944 231.336 66.454C230.482 65.95 229.81 65.25 229.32 64.354C228.844 63.444 228.606 62.394 228.606 61.204ZM252.601 60.931C252.601 61.365 252.573 61.757 252.517 62.107H243.676C243.746 63.031 244.089 63.773 244.705 64.333C245.321 64.893 246.077 65.173 246.973 65.173C248.261 65.173 249.171 64.634 249.703 63.556H252.286C251.936 64.62 251.299 65.495 250.375 66.181C249.465 66.853 248.331 67.189 246.973 67.189C245.867 67.189 244.873 66.944 243.991 66.454C243.123 65.95 242.437 65.25 241.933 64.354C241.443 63.444 241.198 62.394 241.198 61.204C241.198 60.014 241.436 58.971 241.912 58.075C242.402 57.165 243.081 56.465 243.949 55.975C244.831 55.485 245.839 55.24 246.973 55.24C248.065 55.24 249.038 55.478 249.892 55.954C250.746 56.43 251.411 57.102 251.887 57.97C252.363 58.824 252.601 59.811 252.601 60.931ZM250.102 60.175C250.088 59.293 249.773 58.586 249.157 58.054C248.541 57.522 247.778 57.256 246.868 57.256C246.042 57.256 245.335 57.522 244.747 58.054C244.159 58.572 243.809 59.279 243.697 60.175H250.102Z" fill="#2A2C36"/>
<rect x="593" y="25" width="358" height="48" rx="8" fill="#F6F5FA"/>
<path d="M934.944 56.0575L931.032 52.1466C932.166 50.7854 932.731 49.0395 932.611 47.2721C932.49 45.5048 931.693 43.8519 930.384 42.6575C929.076 41.463 927.358 40.819 925.587 40.8592C923.816 40.8995 922.128 41.6209 920.876 42.8736C919.623 44.1262 918.901 45.8136 918.861 47.5846C918.821 49.3557 919.465 51.074 920.659 52.3823C921.854 53.6906 923.507 54.488 925.274 54.6086C927.041 54.7293 928.787 54.1639 930.149 53.0302L934.059 56.9419C934.118 56.9999 934.186 57.046 934.262 57.0774C934.338 57.1089 934.42 57.125 934.502 57.125C934.584 57.125 934.665 57.1089 934.741 57.0774C934.817 57.046 934.886 56.9999 934.944 56.9419C935.002 56.8838 935.048 56.8149 935.079 56.739C935.111 56.6631 935.127 56.5818 935.127 56.4997C935.127 56.4176 935.111 56.3363 935.079 56.2604C935.048 56.1845 935.002 56.1156 934.944 56.0575ZM920.127 47.7497C920.127 46.6372 920.457 45.5496 921.075 44.6246C921.693 43.6996 922.571 42.9786 923.599 42.5529C924.627 42.1271 925.758 42.0157 926.849 42.2328C927.94 42.4498 928.942 42.9855 929.729 43.7722C930.516 44.5589 931.052 45.5612 931.269 46.6523C931.486 47.7435 931.374 48.8744 930.948 49.9023C930.523 50.9301 929.802 51.8086 928.877 52.4267C927.952 53.0448 926.864 53.3747 925.752 53.3747C924.26 53.373 922.831 52.7799 921.776 51.7253C920.721 50.6708 920.128 49.241 920.127 47.7497Z" fill="#343330"/>
<path d="M617.849 43.8182V54H616.616V44.9119H611.486V54H610.253V43.8182H617.849ZM623.28 54.1591C622.59 54.1591 621.985 53.995 621.465 53.6669C620.948 53.3388 620.544 52.8797 620.252 52.2898C619.964 51.6998 619.819 51.0104 619.819 50.2216C619.819 49.4261 619.964 48.7318 620.252 48.1385C620.544 47.5452 620.948 47.0845 621.465 46.7564C621.985 46.4283 622.59 46.2642 623.28 46.2642C623.969 46.2642 624.572 46.4283 625.089 46.7564C625.61 47.0845 626.014 47.5452 626.302 48.1385C626.594 48.7318 626.74 49.4261 626.74 50.2216C626.74 51.0104 626.594 51.6998 626.302 52.2898C626.014 52.8797 625.61 53.3388 625.089 53.6669C624.572 53.995 623.969 54.1591 623.28 54.1591ZM623.28 53.1051C623.803 53.1051 624.234 52.9709 624.572 52.7024C624.91 52.4339 625.161 52.081 625.323 51.6435C625.485 51.206 625.567 50.732 625.567 50.2216C625.567 49.7112 625.485 49.2356 625.323 48.7947C625.161 48.3539 624.91 47.9976 624.572 47.7259C624.234 47.4541 623.803 47.3182 623.28 47.3182C622.756 47.3182 622.325 47.4541 621.987 47.7259C621.649 47.9976 621.399 48.3539 621.236 48.7947C621.074 49.2356 620.993 49.7112 620.993 50.2216C620.993 50.732 621.074 51.206 621.236 51.6435C621.399 52.081 621.649 52.4339 621.987 52.7024C622.325 52.9709 622.756 53.1051 623.28 53.1051ZM629.704 52.2699L633.383 46.3636H634.735V54H633.562V48.0938L629.903 54H628.531V46.3636H629.704V52.2699ZM639.987 54.1591C639.271 54.1591 638.654 53.9901 638.137 53.652C637.62 53.3139 637.222 52.8482 636.944 52.255C636.666 51.6617 636.526 50.9839 636.526 50.2216C636.526 49.446 636.669 48.7616 636.954 48.1683C637.242 47.5717 637.643 47.1061 638.157 46.7713C638.674 46.4332 639.277 46.2642 639.967 46.2642C640.504 46.2642 640.988 46.3636 641.419 46.5625C641.849 46.7614 642.202 47.0398 642.477 47.3977C642.753 47.7557 642.923 48.1733 642.99 48.6506H641.816C641.727 48.3026 641.528 47.9943 641.22 47.7259C640.915 47.4541 640.504 47.3182 639.987 47.3182C639.529 47.3182 639.128 47.4375 638.784 47.6761C638.442 47.9115 638.175 48.2446 637.983 48.6754C637.794 49.103 637.7 49.6051 637.7 50.1818C637.7 50.7718 637.793 51.2855 637.978 51.723C638.167 52.1605 638.432 52.5002 638.774 52.7422C639.118 52.9841 639.523 53.1051 639.987 53.1051C640.292 53.1051 640.568 53.0521 640.817 52.946C641.066 52.84 641.276 52.6875 641.448 52.4886C641.621 52.2898 641.743 52.0511 641.816 51.7727H642.99C642.923 52.2235 642.759 52.6295 642.497 52.9908C642.239 53.3487 641.896 53.6338 641.468 53.8459C641.044 54.0547 640.55 54.1591 639.987 54.1591ZM644.705 54V46.3636H645.878V49.6847H646.654L649.398 46.3636H650.909L647.827 50.0426L650.949 54H649.438L646.932 50.7784H645.878V54H644.705ZM656.162 54V46.3636H662.167V54H660.994V47.4574H657.335V54H656.162ZM667.412 54.1591C666.723 54.1591 666.118 53.995 665.598 53.6669C665.081 53.3388 664.676 52.8797 664.385 52.2898C664.096 51.6998 663.952 51.0104 663.952 50.2216C663.952 49.4261 664.096 48.7318 664.385 48.1385C664.676 47.5452 665.081 47.0845 665.598 46.7564C666.118 46.4283 666.723 46.2642 667.412 46.2642C668.102 46.2642 668.705 46.4283 669.222 46.7564C669.742 47.0845 670.147 47.5452 670.435 48.1385C670.727 48.7318 670.873 49.4261 670.873 50.2216C670.873 51.0104 670.727 51.6998 670.435 52.2898C670.147 52.8797 669.742 53.3388 669.222 53.6669C668.705 53.995 668.102 54.1591 667.412 54.1591ZM667.412 53.1051C667.936 53.1051 668.367 52.9709 668.705 52.7024C669.043 52.4339 669.293 52.081 669.456 51.6435C669.618 51.206 669.699 50.732 669.699 50.2216C669.699 49.7112 669.618 49.2356 669.456 48.7947C669.293 48.3539 669.043 47.9976 668.705 47.7259C668.367 47.4541 667.936 47.3182 667.412 47.3182C666.889 47.3182 666.458 47.4541 666.12 47.7259C665.782 47.9976 665.532 48.3539 665.369 48.7947C665.207 49.2356 665.126 49.7112 665.126 50.2216C665.126 50.732 665.207 51.206 665.369 51.6435C665.532 52.081 665.782 52.4339 666.12 52.7024C666.458 52.9709 666.889 53.1051 667.412 53.1051ZM679.703 54.1591C679.014 54.1591 678.409 53.995 677.889 53.6669C677.372 53.3388 676.967 52.8797 676.676 52.2898C676.387 51.6998 676.243 51.0104 676.243 50.2216C676.243 49.4261 676.387 48.7318 676.676 48.1385C676.967 47.5452 677.372 47.0845 677.889 46.7564C678.409 46.4283 679.014 46.2642 679.703 46.2642C680.393 46.2642 680.996 46.4283 681.513 46.7564C682.033 47.0845 682.438 47.5452 682.726 48.1385C683.018 48.7318 683.164 49.4261 683.164 50.2216C683.164 51.0104 683.018 51.6998 682.726 52.2898C682.438 52.8797 682.033 53.3388 681.513 53.6669C680.996 53.995 680.393 54.1591 679.703 54.1591ZM679.703 53.1051C680.227 53.1051 680.658 52.9709 680.996 52.7024C681.334 52.4339 681.584 52.081 681.747 51.6435C681.909 51.206 681.99 50.732 681.99 50.2216C681.99 49.7112 681.909 49.2356 681.747 48.7947C681.584 48.3539 681.334 47.9976 680.996 47.7259C680.658 47.4541 680.227 47.3182 679.703 47.3182C679.18 47.3182 678.749 47.4541 678.411 47.7259C678.073 47.9976 677.823 48.3539 677.66 48.7947C677.498 49.2356 677.417 49.7112 677.417 50.2216C677.417 50.732 677.498 51.206 677.66 51.6435C677.823 52.081 678.073 52.4339 678.411 52.7024C678.749 52.9709 679.18 53.1051 679.703 53.1051ZM690.622 43.5L691.219 44.2159C690.987 44.4413 690.718 44.5987 690.414 44.6882C690.109 44.7777 689.764 44.8324 689.379 44.8523C688.995 44.8722 688.567 44.892 688.097 44.9119C687.566 44.9318 687.127 45.0611 686.779 45.2997C686.431 45.5384 686.163 45.883 685.974 46.3338C685.785 46.7846 685.664 47.3381 685.611 47.9943H685.71C685.969 47.517 686.327 47.1657 686.784 46.9403C687.242 46.715 687.732 46.6023 688.256 46.6023C688.852 46.6023 689.389 46.7415 689.867 47.0199C690.344 47.2983 690.722 47.7109 691 48.2578C691.279 48.8047 691.418 49.4792 691.418 50.2812C691.418 51.08 691.275 51.7694 690.99 52.3494C690.709 52.9295 690.312 53.3769 689.802 53.6918C689.295 54.0033 688.7 54.1591 688.017 54.1591C687.334 54.1591 686.736 53.9983 686.222 53.6768C685.709 53.352 685.309 52.8714 685.024 52.2351C684.739 51.5954 684.597 50.8049 684.597 49.8636V49.0483C684.597 47.348 684.885 46.0587 685.462 45.1804C686.042 44.3021 686.914 43.848 688.077 43.8182C688.488 43.8049 688.854 43.8016 689.176 43.8082C689.497 43.8149 689.777 43.8 690.016 43.7635C690.254 43.727 690.457 43.6392 690.622 43.5ZM688.017 53.1051C688.478 53.1051 688.874 52.9891 689.205 52.7571C689.54 52.5251 689.797 52.1986 689.976 51.7777C690.155 51.3535 690.244 50.8546 690.244 50.2812C690.244 49.7244 690.153 49.2505 689.971 48.8594C689.792 48.4683 689.535 48.17 689.2 47.9645C688.866 47.759 688.465 47.6562 687.997 47.6562C687.656 47.6562 687.349 47.7143 687.078 47.8303C686.806 47.9463 686.574 48.117 686.382 48.3423C686.189 48.5677 686.04 48.8428 685.934 49.1676C685.831 49.4924 685.777 49.8636 685.77 50.2812C685.77 51.1364 685.971 51.8208 686.372 52.3345C686.773 52.8482 687.321 53.1051 688.017 53.1051ZM694.227 49.1278H696.414C697.309 49.1278 697.994 49.3549 698.468 49.8089C698.941 50.263 699.178 50.8381 699.178 51.5341C699.178 51.9915 699.072 52.4074 698.86 52.782C698.648 53.1532 698.337 53.4498 697.926 53.6719C697.515 53.8906 697.011 54 696.414 54H693.213V46.3636H694.386V52.9062H696.414C696.878 52.9062 697.259 52.7836 697.558 52.5384C697.856 52.2931 698.005 51.9782 698.005 51.5938C698.005 51.1894 697.856 50.8596 697.558 50.6044C697.259 50.3492 696.878 50.2216 696.414 50.2216H694.227V49.1278ZM705.558 54V47.4375H703.53C703.072 47.4375 702.713 47.5436 702.451 47.7557C702.189 47.9678 702.058 48.2595 702.058 48.6307C702.058 48.9953 702.176 49.282 702.411 49.4908C702.65 49.6996 702.976 49.804 703.391 49.804H705.857V50.8977H703.391C702.874 50.8977 702.428 50.8066 702.053 50.6243C701.679 50.442 701.39 50.1818 701.188 49.8438C700.986 49.5024 700.885 49.098 700.885 48.6307C700.885 48.16 700.991 47.7557 701.203 47.4176C701.415 47.0795 701.719 46.8194 702.113 46.6371C702.511 46.4548 702.983 46.3636 703.53 46.3636H706.672V54H705.558ZM700.467 54L702.635 50.2017H703.908L701.74 54H700.467ZM708.826 54V46.3636H711.948C712.77 46.3636 713.423 46.5492 713.907 46.9205C714.391 47.2917 714.633 47.7822 714.633 48.392C714.633 48.8561 714.495 49.2157 714.22 49.4709C713.945 49.7228 713.592 49.8935 713.161 49.983C713.443 50.0227 713.716 50.1222 713.981 50.2812C714.25 50.4403 714.472 50.6591 714.648 50.9375C714.823 51.2126 714.911 51.5507 714.911 51.9517C714.911 52.3428 714.812 52.6925 714.613 53.0007C714.414 53.3089 714.129 53.5526 713.758 53.7315C713.386 53.9105 712.942 54 712.425 54H708.826ZM709.939 52.9261H712.425C712.83 52.9261 713.146 52.83 713.375 52.6378C713.604 52.4455 713.718 52.1837 713.718 51.8523C713.718 51.4579 713.604 51.148 713.375 50.9226C713.146 50.6939 712.83 50.5795 712.425 50.5795H709.939V52.9261ZM709.939 49.5653H711.948C712.263 49.5653 712.533 49.5223 712.758 49.4361C712.984 49.3466 713.156 49.2206 713.275 49.0582C713.398 48.8925 713.459 48.697 713.459 48.4716C713.459 48.1501 713.325 47.8982 713.057 47.7159C712.788 47.5303 712.419 47.4375 711.948 47.4375H709.939V49.5653ZM716.011 54V52.9062H716.289C716.518 52.9062 716.709 52.8615 716.861 52.772C717.014 52.6792 717.136 52.5185 717.229 52.2898C717.325 52.0578 717.398 51.7363 717.448 51.3253C717.501 50.911 717.539 50.384 717.562 49.7443L717.701 46.3636H722.792V54H721.619V47.4574H718.815L718.696 50.1818C718.669 50.8082 718.613 51.3601 718.527 51.8374C718.444 52.3113 718.316 52.709 718.144 53.0305C717.975 53.352 717.749 53.594 717.468 53.7564C717.186 53.9188 716.833 54 716.409 54H716.011ZM728.147 54.1591C727.411 54.1591 726.776 53.9967 726.243 53.6719C725.712 53.3438 725.303 52.8864 725.015 52.2997C724.73 51.7098 724.587 51.0237 724.587 50.2415C724.587 49.4593 724.73 48.7699 725.015 48.1733C725.303 47.5734 725.704 47.1061 726.218 46.7713C726.735 46.4332 727.338 46.2642 728.027 46.2642C728.425 46.2642 728.818 46.3305 729.206 46.4631C729.593 46.5956 729.946 46.8111 730.265 47.1094C730.583 47.4044 730.836 47.7955 731.025 48.2827C731.214 48.7699 731.309 49.3698 731.309 50.0824V50.5795H725.422V49.5653H730.115C730.115 49.1345 730.029 48.75 729.857 48.4119C729.688 48.0739 729.446 47.8071 729.131 47.6115C728.819 47.416 728.452 47.3182 728.027 47.3182C727.56 47.3182 727.156 47.4342 726.814 47.6662C726.476 47.8949 726.216 48.1932 726.034 48.5611C725.851 48.929 725.76 49.3234 725.76 49.7443V50.4205C725.76 50.9972 725.86 51.486 726.059 51.8871C726.261 52.2848 726.541 52.5881 726.899 52.7969C727.257 53.0024 727.673 53.1051 728.147 53.1051C728.455 53.1051 728.733 53.062 728.982 52.9759C729.234 52.8864 729.451 52.7538 729.633 52.5781C729.815 52.3991 729.956 52.1771 730.056 51.9119L731.189 52.2301C731.07 52.6146 730.869 52.9527 730.588 53.2443C730.306 53.5327 729.958 53.758 729.544 53.9205C729.129 54.0795 728.664 54.1591 728.147 54.1591ZM738.204 49.6449V50.7386H733.988V49.6449H738.204ZM734.267 46.3636V54H733.093V46.3636H734.267ZM739.099 46.3636V54H737.926V46.3636H739.099ZM742.415 52.2699L746.094 46.3636H747.446V54H746.273V48.0938L742.614 54H741.242V46.3636H742.415V52.2699ZM754.189 54V47.4375H752.161C751.703 47.4375 751.344 47.5436 751.082 47.7557C750.82 47.9678 750.689 48.2595 750.689 48.6307C750.689 48.9953 750.807 49.282 751.042 49.4908C751.281 49.6996 751.607 49.804 752.021 49.804H754.487V50.8977H752.021C751.504 50.8977 751.059 50.8066 750.684 50.6243C750.31 50.442 750.021 50.1818 749.819 49.8438C749.617 49.5024 749.516 49.098 749.516 48.6307C749.516 48.16 749.622 47.7557 749.834 47.4176C750.046 47.0795 750.349 46.8194 750.744 46.6371C751.142 46.4548 751.614 46.3636 752.161 46.3636H755.303V54H754.189ZM749.098 54L751.266 50.2017H752.539L750.371 54H749.098ZM761.633 52.4091L764.298 46.3636H765.411L762.11 54H761.156L757.914 46.3636H759.008L761.633 52.4091ZM758.63 46.3636V54H757.457V46.3636H758.63ZM764.636 54V46.3636H765.809V54H764.636Z" fill="#636570"/>
<circle cx="1212" cy="49" r="20" fill="#F6F5FA"/>
<path d="M1220.9 42.3445C1219.88 41.3281 1218.5 40.7565 1217.06 40.7548C1215.63 40.753 1214.24 41.3212 1213.22 42.3351L1212 43.4742L1210.77 42.3314C1209.75 41.3131 1208.36 40.7421 1206.92 40.7441C1205.48 40.7462 1204.1 41.321 1203.08 42.3422C1202.06 43.3633 1201.49 44.7472 1201.49 46.1893C1201.49 47.6314 1202.07 49.0137 1203.09 50.032L1211.47 58.5314C1211.54 58.6022 1211.62 58.6585 1211.71 58.6969C1211.8 58.7353 1211.9 58.7551 1212 58.7551C1212.1 58.7551 1212.2 58.7353 1212.29 58.6969C1212.38 58.6585 1212.47 58.6022 1212.54 58.5314L1220.9 50.032C1221.92 49.0124 1222.49 47.6298 1222.49 46.1882C1222.49 44.7467 1221.92 43.3641 1220.9 42.3445ZM1219.84 48.9782L1212 56.932L1204.15 48.9707C1203.41 48.2323 1203 47.2307 1203 46.1864C1203 45.142 1203.41 44.1405 1204.15 43.402C1204.89 42.6635 1205.89 42.2487 1206.93 42.2487C1207.98 42.2487 1208.98 42.6635 1209.72 43.402L1209.74 43.4207L1211.49 45.0473C1211.62 45.1765 1211.81 45.2483 1212 45.2483C1212.19 45.2483 1212.37 45.1765 1212.51 45.0473L1214.26 43.4207L1214.27 43.402C1215.01 42.664 1216.02 42.2498 1217.06 42.2505C1218.1 42.2513 1219.11 42.6668 1219.84 43.4057C1220.58 44.1447 1221 45.1466 1220.99 46.1909C1220.99 47.2352 1220.58 48.2365 1219.84 48.9745L1219.84 48.9782Z" fill="#343330"/>
<circle cx="1380" cy="49" r="20" fill="#F6F5FA"/>
<path d="M1389.65 56.8756C1388.22 54.4072 1386.02 52.6372 1383.45 51.7981C1384.72 51.042 1385.71 49.8898 1386.26 48.5185C1386.82 47.1473 1386.9 45.6327 1386.51 44.2075C1386.12 42.7823 1385.27 41.5252 1384.09 40.6292C1382.92 39.7333 1381.48 39.248 1380 39.248C1378.52 39.248 1377.09 39.7333 1375.91 40.6292C1374.73 41.5252 1373.89 42.7823 1373.49 44.2075C1373.1 45.6327 1373.19 47.1473 1373.74 48.5185C1374.29 49.8898 1375.28 51.042 1376.55 51.7981C1373.98 52.6362 1371.78 54.4062 1370.35 56.8756C1370.3 56.961 1370.27 57.056 1370.25 57.155C1370.24 57.254 1370.24 57.355 1370.27 57.4521C1370.29 57.5492 1370.33 57.6404 1370.39 57.7202C1370.45 57.8001 1370.53 57.867 1370.62 57.9171C1370.7 57.9672 1370.8 57.9995 1370.9 58.0119C1371 58.0243 1371.1 58.0167 1371.2 57.9896C1371.29 57.9624 1371.38 57.9162 1371.46 57.8537C1371.54 57.7912 1371.6 57.7136 1371.65 57.6256C1373.42 54.5731 1376.54 52.7506 1380 52.7506C1383.46 52.7506 1386.59 54.5731 1388.35 57.6256C1388.4 57.7136 1388.46 57.7912 1388.54 57.8537C1388.62 57.9162 1388.71 57.9624 1388.81 57.9896C1388.9 58.0167 1389 58.0243 1389.1 58.0119C1389.2 57.9995 1389.3 57.9672 1389.39 57.9171C1389.47 57.867 1389.55 57.8001 1389.61 57.7202C1389.67 57.6404 1389.71 57.5492 1389.74 57.4521C1389.76 57.355 1389.77 57.254 1389.75 57.155C1389.74 57.056 1389.7 56.961 1389.65 56.8756ZM1374.75 46.0006C1374.75 44.9622 1375.06 43.9472 1375.64 43.0839C1376.21 42.2205 1377.03 41.5476 1377.99 41.1502C1378.95 40.7529 1380.01 40.6489 1381.03 40.8515C1382.04 41.054 1382.98 41.5541 1383.71 42.2883C1384.45 43.0225 1384.95 43.958 1385.15 44.9764C1385.35 45.9948 1385.25 47.0504 1384.85 48.0097C1384.45 48.969 1383.78 49.7889 1382.92 50.3658C1382.05 50.9427 1381.04 51.2506 1380 51.2506C1378.61 51.2491 1377.28 50.6955 1376.29 49.7113C1375.31 48.727 1374.75 47.3925 1374.75 46.0006Z" fill="#2A2C36"/>
<circle cx="1268" cy="49" r="20" fill="#F6F5FA"/>
<path d="M1276.79 53.4944C1276.27 52.5981 1275.5 50.0622 1275.5 46.75C1275.5 44.7609 1274.71 42.8532 1273.3 41.4467C1271.9 40.0402 1269.99 39.25 1268 39.25C1266.01 39.25 1264.1 40.0402 1262.7 41.4467C1261.29 42.8532 1260.5 44.7609 1260.5 46.75C1260.5 50.0631 1259.72 52.5981 1259.2 53.4944C1259.07 53.7222 1259 53.9811 1259 54.2449C1259 54.5086 1259.07 54.768 1259.2 54.9967C1259.33 55.2255 1259.52 55.4156 1259.75 55.5478C1259.98 55.6801 1260.24 55.7498 1260.5 55.75H1264.32C1264.5 56.5967 1264.96 57.3577 1265.63 57.9042C1266.3 58.4507 1267.13 58.7492 1268 58.7492C1268.86 58.7492 1269.7 58.4507 1270.37 57.9042C1271.04 57.3577 1271.5 56.5967 1271.67 55.75H1275.5C1275.76 55.7496 1276.02 55.6798 1276.25 55.5475C1276.48 55.4151 1276.67 55.225 1276.8 54.9963C1276.93 54.7676 1277 54.5083 1277 54.2446C1277 53.9809 1276.93 53.7222 1276.79 53.4944ZM1268 57.25C1267.53 57.2499 1267.08 57.1055 1266.7 56.8369C1266.32 56.5683 1266.03 56.1886 1265.88 55.75H1270.12C1269.96 56.1886 1269.68 56.5683 1269.3 56.8369C1268.92 57.1055 1268.46 57.2499 1268 57.25ZM1260.5 54.25C1261.22 53.0087 1262 50.1325 1262 46.75C1262 45.1587 1262.63 43.6326 1263.76 42.5074C1264.88 41.3821 1266.41 40.75 1268 40.75C1269.59 40.75 1271.12 41.3821 1272.24 42.5074C1273.37 43.6326 1274 45.1587 1274 46.75C1274 50.1297 1274.78 53.0059 1275.5 54.25H1260.5Z" fill="#343330"/>
<circle cx="1324" cy="49" r="20" fill="#F6F5FA"/>
<path d="M1332.25 41.6875H1315.75C1315.4 41.6875 1315.07 41.8258 1314.82 42.0719C1314.58 42.3181 1314.44 42.6519 1314.44 43V58C1314.44 58.2502 1314.51 58.4956 1314.64 58.7066C1314.78 58.9176 1314.97 59.0853 1315.2 59.1897C1315.37 59.2702 1315.56 59.3121 1315.75 59.3125C1316.06 59.3127 1316.36 59.2027 1316.59 59.0022L1316.6 58.9947L1319.62 56.3538C1319.65 56.3267 1319.69 56.3121 1319.73 56.3125H1332.25C1332.6 56.3125 1332.93 56.1742 1333.18 55.9281C1333.42 55.6819 1333.56 55.3481 1333.56 55V43C1333.56 42.6519 1333.42 42.3181 1333.18 42.0719C1332.93 41.8258 1332.6 41.6875 1332.25 41.6875ZM1332.44 55C1332.44 55.0497 1332.42 55.0974 1332.38 55.1326C1332.35 55.1677 1332.3 55.1875 1332.25 55.1875H1319.73C1319.43 55.1879 1319.13 55.2971 1318.89 55.4959L1318.88 55.5034L1315.87 58.1444C1315.84 58.1663 1315.81 58.1802 1315.77 58.1842C1315.74 58.1883 1315.7 58.1825 1315.67 58.1675C1315.64 58.1524 1315.61 58.1287 1315.59 58.0991C1315.57 58.0695 1315.56 58.0352 1315.56 58V43C1315.56 42.9503 1315.58 42.9026 1315.62 42.8674C1315.65 42.8323 1315.7 42.8125 1315.75 42.8125H1332.25C1332.3 42.8125 1332.35 42.8323 1332.38 42.8674C1332.42 42.9026 1332.44 42.9503 1332.44 43V55ZM1327.56 47.5C1327.56 47.6492 1327.5 47.7923 1327.4 47.8977C1327.29 48.0032 1327.15 48.0625 1327 48.0625H1321C1320.85 48.0625 1320.71 48.0032 1320.6 47.8977C1320.5 47.7923 1320.44 47.6492 1320.44 47.5C1320.44 47.3508 1320.5 47.2077 1320.6 47.1023C1320.71 46.9968 1320.85 46.9375 1321 46.9375H1327C1327.15 46.9375 1327.29 46.9968 1327.4 47.1023C1327.5 47.2077 1327.56 47.3508 1327.56 47.5ZM1327.56 50.5C1327.56 50.6492 1327.5 50.7923 1327.4 50.8977C1327.29 51.0032 1327.15 51.0625 1327 51.0625H1321C1320.85 51.0625 1320.71 51.0032 1320.6 50.8977C1320.5 50.7923 1320.44 50.6492 1320.44 50.5C1320.44 50.3508 1320.5 50.2077 1320.6 50.1023C1320.71 49.9968 1320.85 49.9375 1321 49.9375H1327C1327.15 49.9375 1327.29 49.9968 1327.4 50.1023C1327.5 50.2077 1327.56 50.3508 1327.56 50.5Z" fill="#2A2C36"/>
<circle cx="1340" cy="34" r="9" fill="#F33939" stroke="white" stroke-width="2"/>
<path d="M1337.65 38V37.0483L1340.17 34.5732C1340.41 34.3293 1340.61 34.1127 1340.77 33.9233C1340.94 33.7339 1341.06 33.5504 1341.14 33.3729C1341.22 33.1953 1341.26 33.0059 1341.26 32.8047C1341.26 32.575 1341.21 32.3786 1341.1 32.2152C1341 32.0495 1340.85 31.9216 1340.67 31.8317C1340.49 31.7417 1340.28 31.6967 1340.05 31.6967C1339.81 31.6967 1339.6 31.7464 1339.42 31.8459C1339.24 31.9429 1339.1 32.0814 1339 32.2614C1338.91 32.4413 1338.86 32.6555 1338.86 32.9041H1337.6C1337.6 32.4425 1337.71 32.0412 1337.92 31.7003C1338.13 31.3594 1338.42 31.0954 1338.79 30.9084C1339.16 30.7214 1339.59 30.6278 1340.07 30.6278C1340.56 30.6278 1340.98 30.719 1341.35 30.9013C1341.72 31.0836 1342.01 31.3333 1342.21 31.6506C1342.42 31.9678 1342.52 32.33 1342.52 32.7372C1342.52 33.0095 1342.47 33.277 1342.37 33.5398C1342.26 33.8026 1342.08 34.0937 1341.82 34.4134C1341.55 34.733 1341.19 35.12 1340.72 35.5746L1339.46 36.8494V36.8991H1342.63V38H1337.65Z" fill="white"/>
<rect x="410" y="25" width="167" height="48" rx="8" fill="#2A2C36"/>
<path d="M429 43C429 42.8011 429.079 42.6103 429.22 42.4697C429.36 42.329 429.551 42.25 429.75 42.25H446.25C446.449 42.25 446.64 42.329 446.78 42.4697C446.921 42.6103 447 42.8011 447 43C447 43.1989 446.921 43.3897 446.78 43.5303C446.64 43.671 446.449 43.75 446.25 43.75H429.75C429.551 43.75 429.36 43.671 429.22 43.5303C429.079 43.3897 429 43.1989 429 43ZM429.75 49.75H436.5C436.699 49.75 436.89 49.671 437.03 49.5303C437.171 49.3897 437.25 49.1989 437.25 49C437.25 48.8011 437.171 48.6103 437.03 48.4697C436.89 48.329 436.699 48.25 436.5 48.25H429.75C429.551 48.25 429.36 48.329 429.22 48.4697C429.079 48.6103 429 48.8011 429 49C429 49.1989 429.079 49.3897 429.22 49.5303C429.36 49.671 429.551 49.75 429.75 49.75ZM438 54.25H429.75C429.551 54.25 429.36 54.329 429.22 54.4697C429.079 54.6103 429 54.8011 429 55C429 55.1989 429.079 55.3897 429.22 55.5303C429.36 55.671 429.551 55.75 429.75 55.75H438C438.199 55.75 438.39 55.671 438.53 55.5303C438.671 55.3897 438.75 55.1989 438.75 55C438.75 54.8011 438.671 54.6103 438.53 54.4697C438.39 54.329 438.199 54.25 438 54.25ZM448.281 55.5306C448.211 55.6004 448.128 55.6557 448.037 55.6934C447.946 55.7312 447.849 55.7506 447.75 55.7506C447.651 55.7506 447.554 55.7312 447.463 55.6934C447.372 55.6557 447.289 55.6004 447.219 55.5306L445.312 53.6275C444.537 54.1391 443.599 54.3447 442.681 54.2043C441.763 54.064 440.929 53.5877 440.342 52.8679C439.754 52.148 439.455 51.2357 439.502 50.3079C439.549 49.38 439.939 48.5026 440.596 47.8457C441.253 47.1888 442.13 46.7991 443.058 46.7522C443.986 46.7052 444.898 47.0044 445.618 47.5916C446.338 48.1789 446.814 49.0125 446.954 49.9309C447.095 50.8493 446.889 51.787 446.378 52.5625L448.281 54.4656C448.351 54.5353 448.407 54.6183 448.445 54.7097C448.483 54.8011 448.502 54.8991 448.502 54.9981C448.502 55.0971 448.483 55.1952 448.445 55.2866C448.407 55.378 448.351 55.4609 448.281 55.5306ZM443.25 52.75C443.695 52.75 444.13 52.618 444.5 52.3708C444.87 52.1236 445.158 51.7722 445.329 51.361C445.499 50.9499 445.544 50.4975 445.457 50.061C445.37 49.6246 445.156 49.2237 444.841 48.909C444.526 48.5943 444.125 48.38 443.689 48.2932C443.252 48.2064 442.8 48.251 442.389 48.4213C441.978 48.5916 441.626 48.88 441.379 49.25C441.132 49.62 441 50.055 441 50.5C441 51.0967 441.237 51.669 441.659 52.091C442.081 52.5129 442.653 52.75 443.25 52.75Z" fill="white"/>
<path d="M461.004 54V43.8182H464.902C465.638 43.8182 466.249 43.9342 466.737 44.1662C467.227 44.3949 467.593 44.7081 467.835 45.1058C468.08 45.5036 468.203 45.9543 468.203 46.4581C468.203 46.8724 468.124 47.227 467.964 47.522C467.805 47.8137 467.592 48.0507 467.323 48.233C467.055 48.4152 466.755 48.5462 466.423 48.6257V48.7251C466.785 48.745 467.131 48.8561 467.462 49.0582C467.797 49.2571 468.071 49.5388 468.283 49.9034C468.495 50.268 468.601 50.7088 468.601 51.2259C468.601 51.7528 468.473 52.2268 468.218 52.6477C467.963 53.0653 467.578 53.3951 467.065 53.6371C466.551 53.879 465.905 54 465.126 54H461.004ZM462.849 52.4588H464.832C465.502 52.4588 465.984 52.3312 466.279 52.076C466.577 51.8175 466.727 51.486 466.727 51.0817C466.727 50.7801 466.652 50.5083 466.503 50.2663C466.354 50.0211 466.142 49.8288 465.866 49.6896C465.591 49.5471 465.263 49.4759 464.882 49.4759H462.849V52.4588ZM462.849 48.1484H464.673C464.991 48.1484 465.278 48.0904 465.533 47.9744C465.789 47.8551 465.989 47.6877 466.135 47.4723C466.284 47.2536 466.359 46.995 466.359 46.6967C466.359 46.3023 466.219 45.9775 465.941 45.7223C465.666 45.4671 465.257 45.3395 464.713 45.3395H462.849V48.1484ZM473.457 54.1491C472.695 54.1491 472.04 53.9818 471.493 53.647C470.95 53.3123 470.53 52.8499 470.235 52.2599C469.944 51.6667 469.798 50.9839 469.798 50.2116C469.798 49.4361 469.947 48.7517 470.245 48.1584C470.544 47.5618 470.964 47.0978 471.508 46.7663C472.055 46.4316 472.701 46.2642 473.447 46.2642C474.067 46.2642 474.615 46.3786 475.093 46.6072C475.573 46.8326 475.956 47.1525 476.241 47.5668C476.526 47.9777 476.688 48.4583 476.728 49.0085H475.008C474.938 48.6406 474.773 48.334 474.511 48.0888C474.252 47.8402 473.906 47.7159 473.472 47.7159C473.104 47.7159 472.781 47.8153 472.502 48.0142C472.224 48.2098 472.007 48.4915 471.851 48.8594C471.699 49.2273 471.622 49.6681 471.622 50.1818C471.622 50.7022 471.699 51.1496 471.851 51.5241C472.003 51.8954 472.217 52.1821 472.492 52.3842C472.771 52.5831 473.097 52.6825 473.472 52.6825C473.737 52.6825 473.974 52.6328 474.183 52.5334C474.395 52.4306 474.572 52.2831 474.715 52.0909C474.857 51.8987 474.955 51.665 475.008 51.3899H476.728C476.685 51.9302 476.526 52.4091 476.251 52.8267C475.976 53.241 475.601 53.5658 475.127 53.8011C474.653 54.0331 474.097 54.1491 473.457 54.1491ZM481.587 54.1491C480.821 54.1491 480.16 53.9901 479.603 53.6719C479.049 53.3504 478.624 52.8963 478.325 52.3097C478.027 51.7197 477.878 51.0253 477.878 50.2266C477.878 49.4411 478.027 48.7517 478.325 48.1584C478.627 47.5618 479.048 47.0978 479.588 46.7663C480.128 46.4316 480.763 46.2642 481.492 46.2642C481.963 46.2642 482.407 46.3404 482.825 46.4929C483.246 46.642 483.617 46.8741 483.938 47.1889C484.263 47.5038 484.518 47.9048 484.704 48.392C484.889 48.8759 484.982 49.4527 484.982 50.1222V50.674H478.723V49.4609H483.257C483.254 49.1162 483.179 48.8097 483.033 48.5412C482.888 48.2694 482.684 48.0556 482.422 47.8999C482.163 47.7441 481.862 47.6662 481.517 47.6662C481.149 47.6662 480.826 47.7557 480.548 47.9347C480.269 48.1103 480.052 48.3423 479.896 48.6307C479.744 48.9157 479.666 49.2289 479.663 49.5703V50.6293C479.663 51.0734 479.744 51.4545 479.906 51.7727C480.069 52.0876 480.296 52.3295 480.587 52.4986C480.879 52.6643 481.22 52.7472 481.612 52.7472C481.873 52.7472 482.11 52.7107 482.322 52.6378C482.535 52.5616 482.719 52.4505 482.874 52.3047C483.03 52.1589 483.148 51.9782 483.227 51.7628L484.908 51.9517C484.802 52.3958 484.599 52.7836 484.301 53.1151C484.006 53.4432 483.628 53.6984 483.168 53.8807C482.707 54.0597 482.18 54.1491 481.587 54.1491ZM489.977 54V46.3636H491.777V49.446H492.433L494.73 46.3636H496.898L494.069 50.1122L496.928 54H494.75L492.657 51.1214H491.777V54H489.977ZM500.146 54.1541C499.662 54.1541 499.226 54.0679 498.838 53.8956C498.454 53.7199 498.149 53.4614 497.923 53.12C497.701 52.7786 497.59 52.3577 497.59 51.8572C497.59 51.4264 497.67 51.0701 497.829 50.7884C497.988 50.5066 498.205 50.2812 498.48 50.1122C498.755 49.9432 499.065 49.8156 499.41 49.7294C499.758 49.6399 500.117 49.5753 500.489 49.5355C500.936 49.4891 501.299 49.4477 501.577 49.4112C501.856 49.3714 502.058 49.3118 502.184 49.2322C502.313 49.1494 502.378 49.0218 502.378 48.8494V48.8196C502.378 48.4451 502.267 48.1551 502.045 47.9496C501.823 47.7441 501.503 47.6413 501.085 47.6413C500.644 47.6413 500.295 47.7375 500.036 47.9297C499.781 48.1219 499.609 48.349 499.519 48.6108L497.839 48.3722C497.971 47.9081 498.19 47.5204 498.495 47.2088C498.8 46.8939 499.173 46.6586 499.614 46.5028C500.054 46.3438 500.542 46.2642 501.075 46.2642C501.443 46.2642 501.809 46.3073 502.174 46.3935C502.539 46.4796 502.872 46.6222 503.173 46.821C503.475 47.0166 503.717 47.2834 503.899 47.6214C504.085 47.9595 504.178 48.3821 504.178 48.8892V54H502.447V52.951H502.388C502.278 53.1631 502.124 53.362 501.925 53.5476C501.73 53.7299 501.483 53.8774 501.185 53.9901C500.89 54.0994 500.543 54.1541 500.146 54.1541ZM500.613 52.8317C500.974 52.8317 501.287 52.7604 501.553 52.6179C501.818 52.4721 502.022 52.2798 502.164 52.0412C502.31 51.8026 502.383 51.5424 502.383 51.2607V50.3608C502.326 50.4072 502.23 50.4503 502.094 50.4901C501.962 50.5298 501.813 50.5646 501.647 50.5945C501.481 50.6243 501.317 50.6508 501.155 50.674C500.992 50.6972 500.852 50.7171 500.732 50.7337C500.464 50.7701 500.223 50.8298 500.011 50.9126C499.799 50.9955 499.632 51.1115 499.509 51.2607C499.387 51.4065 499.325 51.5954 499.325 51.8274C499.325 52.1589 499.446 52.4091 499.688 52.5781C499.93 52.7472 500.238 52.8317 500.613 52.8317ZM505.132 47.8402V46.3636H511.814V47.8402H509.343V54H507.603V47.8402H505.132ZM516.313 54.1491C515.548 54.1491 514.886 53.9901 514.33 53.6719C513.776 53.3504 513.35 52.8963 513.052 52.3097C512.754 51.7197 512.604 51.0253 512.604 50.2266C512.604 49.4411 512.754 48.7517 513.052 48.1584C513.353 47.5618 513.774 47.0978 514.315 46.7663C514.855 46.4316 515.49 46.2642 516.219 46.2642C516.689 46.2642 517.134 46.3404 517.551 46.4929C517.972 46.642 518.343 46.8741 518.665 47.1889C518.99 47.5038 519.245 47.9048 519.43 48.392C519.616 48.8759 519.709 49.4527 519.709 50.1222V50.674H513.45V49.4609H517.984C517.98 49.1162 517.906 48.8097 517.76 48.5412C517.614 48.2694 517.41 48.0556 517.148 47.8999C516.89 47.7441 516.588 47.6662 516.244 47.6662C515.876 47.6662 515.553 47.7557 515.274 47.9347C514.996 48.1103 514.779 48.3423 514.623 48.6307C514.47 48.9157 514.393 49.2289 514.389 49.5703V50.6293C514.389 51.0734 514.47 51.4545 514.633 51.7727C514.795 52.0876 515.022 52.3295 515.314 52.4986C515.606 52.6643 515.947 52.7472 516.338 52.7472C516.6 52.7472 516.837 52.7107 517.049 52.6378C517.261 52.5616 517.445 52.4505 517.601 52.3047C517.757 52.1589 517.874 51.9782 517.954 51.7628L519.634 51.9517C519.528 52.3958 519.326 52.7836 519.028 53.1151C518.733 53.4432 518.355 53.6984 517.894 53.8807C517.433 54.0597 516.906 54.1491 516.313 54.1491ZM526.282 46.3636V47.8402H522.991V54H521.231V46.3636H526.282ZM530.742 54.1491C529.996 54.1491 529.35 53.9851 528.803 53.657C528.256 53.3288 527.832 52.8698 527.53 52.2798C527.232 51.6899 527.083 51.0005 527.083 50.2116C527.083 49.4228 527.232 48.7318 527.53 48.1385C527.832 47.5452 528.256 47.0845 528.803 46.7564C529.35 46.4283 529.996 46.2642 530.742 46.2642C531.488 46.2642 532.134 46.4283 532.681 46.7564C533.228 47.0845 533.65 47.5452 533.949 48.1385C534.25 48.7318 534.401 49.4228 534.401 50.2116C534.401 51.0005 534.25 51.6899 533.949 52.2798C533.65 52.8698 533.228 53.3288 532.681 53.657C532.134 53.9851 531.488 54.1491 530.742 54.1491ZM530.752 52.7074C531.156 52.7074 531.494 52.5964 531.766 52.3743C532.038 52.1489 532.24 51.8473 532.373 51.4695C532.509 51.0916 532.577 50.6707 532.577 50.2067C532.577 49.7393 532.509 49.3168 532.373 48.9389C532.24 48.5578 532.038 48.2545 531.766 48.0291C531.494 47.8037 531.156 47.6911 530.752 47.6911C530.338 47.6911 529.993 47.8037 529.718 48.0291C529.446 48.2545 529.242 48.5578 529.106 48.9389C528.974 49.3168 528.907 49.7393 528.907 50.2067C528.907 50.6707 528.974 51.0916 529.106 51.4695C529.242 51.8473 529.446 52.1489 529.718 52.3743C529.993 52.5964 530.338 52.7074 530.752 52.7074ZM535.929 56.8636V46.3636H537.699V47.6264H537.803C537.896 47.4408 538.027 47.2436 538.196 47.0348C538.365 46.8227 538.593 46.642 538.882 46.4929C539.17 46.3404 539.538 46.2642 539.985 46.2642C540.575 46.2642 541.107 46.415 541.581 46.7166C542.059 47.0149 542.436 47.4574 542.715 48.044C542.997 48.6274 543.137 49.3433 543.137 50.1918C543.137 51.0303 543 51.7429 542.725 52.3295C542.45 52.9162 542.075 53.3636 541.601 53.6719C541.127 53.9801 540.59 54.1342 539.99 54.1342C539.553 54.1342 539.19 54.0613 538.902 53.9155C538.613 53.7696 538.381 53.594 538.206 53.3885C538.033 53.1797 537.899 52.9825 537.803 52.7969H537.728V56.8636H535.929ZM537.694 50.1818C537.694 50.6757 537.763 51.1082 537.902 51.4794C538.045 51.8506 538.249 52.1406 538.514 52.3494C538.782 52.5549 539.107 52.6577 539.488 52.6577C539.886 52.6577 540.219 52.5516 540.488 52.3395C540.756 52.1241 540.958 51.8307 541.094 51.4595C541.233 51.085 541.303 50.6591 541.303 50.1818C541.303 49.7079 541.235 49.2869 541.099 48.919C540.963 48.5511 540.761 48.2628 540.493 48.054C540.224 47.8452 539.889 47.7408 539.488 47.7408C539.104 47.7408 538.777 47.8419 538.509 48.044C538.24 48.2462 538.037 48.5296 537.897 48.8942C537.761 49.2588 537.694 49.688 537.694 50.1818ZM546.414 51.5639L549.471 46.3636H551.321V54H549.581V48.7947L546.533 54H544.679V46.3636H546.414V51.5639ZM554.904 51.5639L557.961 46.3636H559.811V54H558.071V48.7947L555.023 54H553.169V46.3636H554.904V51.5639Z" fill="white"/>
<rect x="967" y="25" width="201" height="48" rx="8" fill="#74B300"/>
<path d="M984.004 54V43.8182H987.822C988.605 43.8182 989.261 43.964 989.791 44.2557C990.325 44.5473 990.728 44.9484 990.999 45.4588C991.274 45.9659 991.412 46.5426 991.412 47.1889C991.412 47.8419 991.274 48.4219 990.999 48.929C990.724 49.4361 990.318 49.8355 989.781 50.1271C989.244 50.4155 988.583 50.5597 987.798 50.5597H985.267V49.0433H987.549C988.006 49.0433 988.381 48.9638 988.673 48.8047C988.964 48.6456 989.18 48.4268 989.319 48.1484C989.461 47.87 989.533 47.5502 989.533 47.1889C989.533 46.8277 989.461 46.5095 989.319 46.2344C989.18 45.9593 988.963 45.7455 988.668 45.593C988.376 45.4373 988 45.3594 987.539 45.3594H985.849V54H984.004ZM994.995 54.1541C994.511 54.1541 994.075 54.0679 993.688 53.8956C993.303 53.7199 992.998 53.4614 992.773 53.12C992.551 52.7786 992.44 52.3577 992.44 51.8572C992.44 51.4264 992.519 51.0701 992.678 50.7884C992.838 50.5066 993.055 50.2812 993.33 50.1122C993.605 49.9432 993.915 49.8156 994.259 49.7294C994.607 49.6399 994.967 49.5753 995.338 49.5355C995.786 49.4891 996.149 49.4477 996.427 49.4112C996.705 49.3714 996.908 49.3118 997.034 49.2322C997.163 49.1494 997.227 49.0218 997.227 48.8494V48.8196C997.227 48.4451 997.116 48.1551 996.894 47.9496C996.672 47.7441 996.352 47.6413 995.935 47.6413C995.494 47.6413 995.144 47.7375 994.886 47.9297C994.631 48.1219 994.458 48.349 994.369 48.6108L992.688 48.3722C992.821 47.9081 993.04 47.5204 993.345 47.2088C993.65 46.8939 994.022 46.6586 994.463 46.5028C994.904 46.3438 995.391 46.2642 995.925 46.2642C996.293 46.2642 996.659 46.3073 997.024 46.3935C997.388 46.4796 997.721 46.6222 998.023 46.821C998.325 47.0166 998.566 47.2834 998.749 47.6214C998.934 47.9595 999.027 48.3821 999.027 48.8892V54H997.297V52.951H997.237C997.128 53.1631 996.974 53.362 996.775 53.5476C996.579 53.7299 996.333 53.8774 996.034 53.9901C995.739 54.0994 995.393 54.1541 994.995 54.1541ZM995.463 52.8317C995.824 52.8317 996.137 52.7604 996.402 52.6179C996.667 52.4721 996.871 52.2798 997.014 52.0412C997.16 51.8026 997.232 51.5424 997.232 51.2607V50.3608C997.176 50.4072 997.08 50.4503 996.944 50.4901C996.811 50.5298 996.662 50.5646 996.497 50.5945C996.331 50.6243 996.167 50.6508 996.004 50.674C995.842 50.6972 995.701 50.7171 995.582 50.7337C995.313 50.7701 995.073 50.8298 994.861 50.9126C994.649 50.9955 994.481 51.1115 994.359 51.2607C994.236 51.4065 994.175 51.5954 994.175 51.8274C994.175 52.1589 994.296 52.4091 994.538 52.5781C994.78 52.7472 995.088 52.8317 995.463 52.8317ZM1000.41 51.907H1002.2C1002.22 52.192 1002.34 52.4124 1002.58 52.5682C1002.82 52.724 1003.13 52.8018 1003.51 52.8018C1003.9 52.8018 1004.23 52.7173 1004.49 52.5483C1004.76 52.3759 1004.89 52.1158 1004.89 51.7678C1004.89 51.5623 1004.84 51.3816 1004.74 51.2259C1004.64 51.0668 1004.49 50.9441 1004.31 50.858C1004.12 50.7718 1003.9 50.7287 1003.65 50.7287H1002.48V49.451H1003.65C1004.03 49.451 1004.31 49.3648 1004.5 49.1925C1004.7 49.0201 1004.79 48.803 1004.79 48.5412C1004.79 48.2595 1004.69 48.0308 1004.49 47.8551C1004.28 47.6795 1004 47.5916 1003.65 47.5916C1003.29 47.5916 1002.99 47.6728 1002.75 47.8352C1002.52 47.9976 1002.39 48.2064 1002.38 48.4616H1000.61C1000.61 48.0175 1000.75 47.6314 1001.01 47.3033C1001.27 46.9751 1001.62 46.7199 1002.06 46.5376C1002.5 46.3554 1003 46.2642 1003.56 46.2642C1004.16 46.2642 1004.67 46.3537 1005.11 46.5327C1005.54 46.7116 1005.88 46.9619 1006.11 47.2834C1006.35 47.6016 1006.46 47.9761 1006.46 48.407C1006.46 48.8213 1006.34 49.1643 1006.08 49.4361C1005.82 49.7045 1005.47 49.8968 1005.03 50.0128V50.0923C1005.33 50.1089 1005.61 50.1951 1005.85 50.3509C1006.09 50.5033 1006.28 50.7105 1006.42 50.9723C1006.57 51.2341 1006.64 51.5374 1006.64 51.8821C1006.64 52.3494 1006.5 52.7538 1006.24 53.0952C1005.97 53.4332 1005.6 53.6934 1005.13 53.8757C1004.66 54.058 1004.12 54.1491 1003.52 54.1491C1002.93 54.1491 1002.41 54.0613 1001.95 53.8857C1001.48 53.7067 1001.12 53.4498 1000.85 53.1151C1000.57 52.7803 1000.43 52.3776 1000.41 51.907ZM1012.45 51.907L1014.72 46.3636H1016.17L1013.08 54H1011.82L1008.81 46.3636H1010.24L1012.45 51.907ZM1009.79 46.3636V54H1008.06V46.3636H1009.79ZM1015.18 54V46.3636H1016.91V54H1015.18ZM1022.1 54.1491C1021.33 54.1491 1020.67 53.9901 1020.12 53.6719C1019.56 53.3504 1019.14 52.8963 1018.84 52.3097C1018.54 51.7197 1018.39 51.0253 1018.39 50.2266C1018.39 49.4411 1018.54 48.7517 1018.84 48.1584C1019.14 47.5618 1019.56 47.0978 1020.1 46.7663C1020.64 46.4316 1021.28 46.2642 1022.01 46.2642C1022.48 46.2642 1022.92 46.3404 1023.34 46.4929C1023.76 46.642 1024.13 46.8741 1024.45 47.1889C1024.78 47.5038 1025.03 47.9048 1025.22 48.392C1025.4 48.8759 1025.5 49.4527 1025.5 50.1222V50.674H1019.24V49.4609H1023.77C1023.77 49.1162 1023.69 48.8097 1023.55 48.5412C1023.4 48.2694 1023.2 48.0556 1022.94 47.8999C1022.68 47.7441 1022.38 47.6662 1022.03 47.6662C1021.66 47.6662 1021.34 47.7557 1021.06 47.9347C1020.78 48.1103 1020.57 48.3423 1020.41 48.6307C1020.26 48.9157 1020.18 49.2289 1020.18 49.5703V50.6293C1020.18 51.0734 1020.26 51.4545 1020.42 51.7727C1020.58 52.0876 1020.81 52.3295 1021.1 52.4986C1021.39 52.6643 1021.73 52.7472 1022.13 52.7472C1022.39 52.7472 1022.62 52.7107 1022.84 52.6378C1023.05 52.5616 1023.23 52.4505 1023.39 52.3047C1023.54 52.1589 1023.66 51.9782 1023.74 51.7628L1025.42 51.9517C1025.32 52.3958 1025.11 52.7836 1024.81 53.1151C1024.52 53.4432 1024.14 53.6984 1023.68 53.8807C1023.22 54.0597 1022.69 54.1491 1022.1 54.1491ZM1030.35 54.1491C1029.59 54.1491 1028.93 53.9818 1028.39 53.647C1027.84 53.3123 1027.42 52.8499 1027.13 52.2599C1026.84 51.6667 1026.69 50.9839 1026.69 50.2116C1026.69 49.4361 1026.84 48.7517 1027.14 48.1584C1027.44 47.5618 1027.86 47.0978 1028.4 46.7663C1028.95 46.4316 1029.59 46.2642 1030.34 46.2642C1030.96 46.2642 1031.51 46.3786 1031.99 46.6072C1032.47 46.8326 1032.85 47.1525 1033.13 47.5668C1033.42 47.9777 1033.58 48.4583 1033.62 49.0085H1031.9C1031.83 48.6406 1031.67 48.334 1031.4 48.0888C1031.14 47.8402 1030.8 47.7159 1030.36 47.7159C1030 47.7159 1029.67 47.8153 1029.39 48.0142C1029.12 48.2098 1028.9 48.4915 1028.74 48.8594C1028.59 49.2273 1028.51 49.6681 1028.51 50.1818C1028.51 50.7022 1028.59 51.1496 1028.74 51.5241C1028.9 51.8954 1029.11 52.1821 1029.38 52.3842C1029.66 52.5831 1029.99 52.6825 1030.36 52.6825C1030.63 52.6825 1030.87 52.6328 1031.08 52.5334C1031.29 52.4306 1031.46 52.2831 1031.61 52.0909C1031.75 51.8987 1031.85 51.665 1031.9 51.3899H1033.62C1033.58 51.9302 1033.42 52.4091 1033.14 52.8267C1032.87 53.241 1032.49 53.5658 1032.02 53.8011C1031.55 54.0331 1030.99 54.1491 1030.35 54.1491ZM1034.54 47.8402V46.3636H1041.23V47.8402H1038.76V54H1037.02V47.8402H1034.54ZM1044.39 51.5639L1047.45 46.3636H1049.3V54H1047.56V48.7947L1044.51 54H1042.66V46.3636H1044.39V51.5639ZM1050.29 47.8402V46.3636H1056.98V47.8402H1054.51V54H1052.77V47.8402H1050.29ZM1059.63 48.8494H1061.88C1062.85 48.8494 1063.61 49.0864 1064.14 49.5604C1064.67 50.0343 1064.94 50.6558 1064.95 51.4247C1064.94 51.9252 1064.82 52.3693 1064.58 52.7571C1064.34 53.1449 1063.99 53.4498 1063.53 53.6719C1063.08 53.8906 1062.53 54 1061.88 54H1058.41V46.3636H1060.14V52.5234H1061.88C1062.27 52.5234 1062.59 52.424 1062.84 52.2251C1063.1 52.023 1063.22 51.7644 1063.22 51.4496C1063.22 51.1181 1063.1 50.848 1062.84 50.6392C1062.59 50.4304 1062.27 50.326 1061.88 50.326H1059.63V48.8494ZM1073.29 54.1491C1072.55 54.1491 1071.9 53.9851 1071.35 53.657C1070.81 53.3288 1070.38 52.8698 1070.08 52.2798C1069.78 51.6899 1069.63 51.0005 1069.63 50.2116C1069.63 49.4228 1069.78 48.7318 1070.08 48.1385C1070.38 47.5452 1070.81 47.0845 1071.35 46.7564C1071.9 46.4283 1072.55 46.2642 1073.29 46.2642C1074.04 46.2642 1074.68 46.4283 1075.23 46.7564C1075.78 47.0845 1076.2 47.5452 1076.5 48.1385C1076.8 48.7318 1076.95 49.4228 1076.95 50.2116C1076.95 51.0005 1076.8 51.6899 1076.5 52.2798C1076.2 52.8698 1075.78 53.3288 1075.23 53.657C1074.68 53.9851 1074.04 54.1491 1073.29 54.1491ZM1073.3 52.7074C1073.71 52.7074 1074.05 52.5964 1074.32 52.3743C1074.59 52.1489 1074.79 51.8473 1074.92 51.4695C1075.06 51.0916 1075.13 50.6707 1075.13 50.2067C1075.13 49.7393 1075.06 49.3168 1074.92 48.9389C1074.79 48.5578 1074.59 48.2545 1074.32 48.0291C1074.05 47.8037 1073.71 47.6911 1073.3 47.6911C1072.89 47.6911 1072.54 47.8037 1072.27 48.0291C1072 48.2545 1071.79 48.5578 1071.66 48.9389C1071.52 49.3168 1071.46 49.7393 1071.46 50.2067C1071.46 50.6707 1071.52 51.0916 1071.66 51.4695C1071.79 51.8473 1072 52.1489 1072.27 52.3743C1072.54 52.5964 1072.89 52.7074 1073.3 52.7074ZM1084.6 43.5398L1085.23 44.7031C1085 44.8954 1084.76 45.0346 1084.48 45.1207C1084.21 45.2069 1083.88 45.2633 1083.51 45.2898C1083.14 45.313 1082.71 45.3295 1082.2 45.3395C1081.63 45.3527 1081.16 45.4605 1080.8 45.6626C1080.44 45.8648 1080.16 46.1714 1079.97 46.5824C1079.78 46.9901 1079.65 47.5104 1079.59 48.1435H1079.68C1079.92 47.6761 1080.25 47.3198 1080.68 47.0746C1081.11 46.8293 1081.62 46.7067 1082.2 46.7067C1082.83 46.7067 1083.39 46.8492 1083.87 47.1342C1084.36 47.416 1084.74 47.8253 1085.01 48.3622C1085.29 48.8991 1085.42 49.5488 1085.42 50.3111C1085.42 51.0966 1085.28 51.7777 1084.98 52.3544C1084.69 52.9278 1084.27 53.3703 1083.72 53.6818C1083.18 53.9934 1082.54 54.1491 1081.8 54.1491C1081.06 54.1491 1080.42 53.9884 1079.87 53.6669C1079.33 53.3421 1078.91 52.8632 1078.61 52.2301C1078.31 51.5937 1078.17 50.8099 1078.17 49.8786V49.1925C1078.17 47.3961 1078.5 46.0554 1079.17 45.1705C1079.84 44.2855 1080.83 43.8348 1082.15 43.8182C1082.54 43.8116 1082.89 43.8099 1083.2 43.8132C1083.51 43.8165 1083.78 43.8016 1084.01 43.7685C1084.24 43.7353 1084.44 43.6591 1084.6 43.5398ZM1081.81 52.7074C1082.18 52.7074 1082.5 52.6129 1082.76 52.424C1083.03 52.2318 1083.24 51.96 1083.38 51.6087C1083.53 51.2573 1083.6 50.8414 1083.6 50.3608C1083.6 49.8868 1083.53 49.4841 1083.38 49.1527C1083.24 48.8179 1083.03 48.5627 1082.76 48.3871C1082.49 48.2114 1082.17 48.1236 1081.8 48.1236C1081.52 48.1236 1081.27 48.1733 1081.05 48.2727C1080.83 48.3722 1080.64 48.518 1080.48 48.7102C1080.33 48.9025 1080.21 49.1361 1080.12 49.4112C1080.04 49.6863 1080 50.0028 1079.99 50.3608C1079.99 51.08 1080.15 51.6518 1080.48 52.076C1080.8 52.4969 1081.25 52.7074 1081.81 52.7074ZM1088.17 48.8494H1090.43C1091.4 48.8494 1092.15 49.0864 1092.69 49.5604C1093.22 50.0343 1093.49 50.6558 1093.49 51.4247C1093.49 51.9252 1093.37 52.3693 1093.13 52.7571C1092.89 53.1449 1092.54 53.4498 1092.08 53.6719C1091.63 53.8906 1091.08 54 1090.43 54H1086.96V46.3636H1088.69V52.5234H1090.43C1090.82 52.5234 1091.14 52.424 1091.39 52.2251C1091.64 52.023 1091.77 51.7644 1091.77 51.4496C1091.77 51.1181 1091.64 50.848 1091.39 50.6392C1091.14 50.4304 1090.82 50.326 1090.43 50.326H1088.17V48.8494ZM1099.55 54V47.8253H1097.92C1097.51 47.8253 1097.19 47.9214 1096.97 48.1136C1096.74 48.3059 1096.63 48.5445 1096.64 48.8295C1096.63 49.1146 1096.74 49.3499 1096.95 49.5355C1097.16 49.7211 1097.47 49.8139 1097.86 49.8139H1100.12V51.1264H1097.86C1097.25 51.1264 1096.72 51.0303 1096.28 50.8381C1095.83 50.6458 1095.49 50.3741 1095.25 50.0227C1095.02 49.6714 1094.9 49.2604 1094.9 48.7898C1094.9 48.2992 1095.02 47.8733 1095.26 47.5121C1095.51 47.1475 1095.85 46.8658 1096.3 46.6669C1096.76 46.4647 1097.3 46.3636 1097.92 46.3636H1101.24V54H1099.55ZM1094.62 54L1096.75 50.0824H1098.53L1096.39 54H1094.62ZM1103.05 54V46.3636H1106.25C1107.16 46.3636 1107.87 46.5443 1108.4 46.9055C1108.92 47.2668 1109.19 47.7706 1109.19 48.4169C1109.19 48.8445 1109.04 49.1941 1108.74 49.4659C1108.45 49.7344 1108.04 49.915 1107.53 50.0078C1107.93 50.041 1108.28 50.142 1108.59 50.3111C1108.89 50.4801 1109.13 50.7022 1109.3 50.9773C1109.47 51.2524 1109.56 51.5689 1109.56 51.9268C1109.56 52.3478 1109.45 52.714 1109.23 53.0256C1109.01 53.3338 1108.69 53.5741 1108.27 53.7464C1107.85 53.9155 1107.34 54 1106.75 54H1103.05ZM1104.73 52.5831H1106.75C1107.08 52.5831 1107.34 52.5052 1107.53 52.3494C1107.72 52.1903 1107.81 51.9749 1107.81 51.7031C1107.81 51.3883 1107.72 51.1413 1107.53 50.9624C1107.34 50.7801 1107.08 50.6889 1106.75 50.6889H1104.73V52.5831ZM1104.73 49.5256H1106.29C1106.53 49.5256 1106.74 49.4908 1106.92 49.4212C1107.1 49.3482 1107.23 49.2472 1107.32 49.1179C1107.42 48.9853 1107.46 48.8279 1107.46 48.6456C1107.46 48.3838 1107.35 48.1783 1107.14 48.0291C1106.93 47.88 1106.63 47.8054 1106.25 47.8054H1104.73V49.5256ZM1110.52 54L1110.51 52.5185H1110.77C1110.97 52.5185 1111.14 52.4737 1111.27 52.3842C1111.41 52.2947 1111.52 52.1456 1111.61 51.9368C1111.7 51.7247 1111.77 51.4396 1111.82 51.0817C1111.87 50.7237 1111.91 50.2779 1111.93 49.7443L1112.06 46.3636H1117.63V54H1115.89V47.8402H1113.7L1113.58 50.3011C1113.55 50.9375 1113.48 51.4893 1113.36 51.9567C1113.25 52.4207 1113.1 52.8035 1112.9 53.1051C1112.7 53.4067 1112.45 53.6321 1112.14 53.7812C1111.84 53.9271 1111.49 54 1111.08 54H1110.52ZM1122.82 54.1491C1122.06 54.1491 1121.39 53.9901 1120.84 53.6719C1120.28 53.3504 1119.86 52.8963 1119.56 52.3097C1119.26 51.7197 1119.11 51.0253 1119.11 50.2266C1119.11 49.4411 1119.26 48.7517 1119.56 48.1584C1119.86 47.5618 1120.28 47.0978 1120.82 46.7663C1121.36 46.4316 1122 46.2642 1122.73 46.2642C1123.2 46.2642 1123.64 46.3404 1124.06 46.4929C1124.48 46.642 1124.85 46.8741 1125.17 47.1889C1125.5 47.5038 1125.75 47.9048 1125.94 48.392C1126.12 48.8759 1126.22 49.4527 1126.22 50.1222V50.674H1119.96V49.4609H1124.49C1124.49 49.1162 1124.41 48.8097 1124.27 48.5412C1124.12 48.2694 1123.92 48.0556 1123.66 47.8999C1123.4 47.7441 1123.1 47.6662 1122.75 47.6662C1122.38 47.6662 1122.06 47.7557 1121.78 47.9347C1121.5 48.1103 1121.29 48.3423 1121.13 48.6307C1120.98 48.9157 1120.9 49.2289 1120.9 49.5703V50.6293C1120.9 51.0734 1120.98 51.4545 1121.14 51.7727C1121.3 52.0876 1121.53 52.3295 1121.82 52.4986C1122.11 52.6643 1122.45 52.7472 1122.85 52.7472C1123.11 52.7472 1123.34 52.7107 1123.56 52.6378C1123.77 52.5616 1123.95 52.4505 1124.11 52.3047C1124.26 52.1589 1124.38 51.9782 1124.46 51.7628L1126.14 51.9517C1126.04 52.3958 1125.83 52.7836 1125.54 53.1151C1125.24 53.4432 1124.86 53.6984 1124.4 53.8807C1123.94 54.0597 1123.41 54.1491 1122.82 54.1491ZM1132.98 49.4361V50.9126H1128.92V49.4361H1132.98ZM1129.47 46.3636V54H1127.74V46.3636H1129.47ZM1134.16 46.3636V54H1132.43V46.3636H1134.16ZM1137.72 51.5639L1140.78 46.3636H1142.63V54H1140.89V48.7947L1137.84 54H1135.98V46.3636H1137.72V51.5639ZM1147.85 54.1491C1147.09 54.1491 1146.43 53.9901 1145.87 53.6719C1145.32 53.3504 1144.89 52.8963 1144.59 52.3097C1144.29 51.7197 1144.15 51.0253 1144.15 50.2266C1144.15 49.4411 1144.29 48.7517 1144.59 48.1584C1144.89 47.5618 1145.32 47.0978 1145.86 46.7663C1146.4 46.4316 1147.03 46.2642 1147.76 46.2642C1148.23 46.2642 1148.67 46.3404 1149.09 46.4929C1149.51 46.642 1149.88 46.8741 1150.21 47.1889C1150.53 47.5038 1150.79 47.9048 1150.97 48.392C1151.16 48.8759 1151.25 49.4527 1151.25 50.1222V50.674H1144.99V49.4609H1149.52C1149.52 49.1162 1149.45 48.8097 1149.3 48.5412C1149.16 48.2694 1148.95 48.0556 1148.69 47.8999C1148.43 47.7441 1148.13 47.6662 1147.78 47.6662C1147.42 47.6662 1147.09 47.7557 1146.82 47.9347C1146.54 48.1103 1146.32 48.3423 1146.16 48.6307C1146.01 48.9157 1145.93 49.2289 1145.93 49.5703V50.6293C1145.93 51.0734 1146.01 51.4545 1146.17 51.7727C1146.34 52.0876 1146.56 52.3295 1146.85 52.4986C1147.15 52.6643 1147.49 52.7472 1147.88 52.7472C1148.14 52.7472 1148.38 52.7107 1148.59 52.6378C1148.8 52.5616 1148.99 52.4505 1149.14 52.3047C1149.3 52.1589 1149.42 51.9782 1149.49 51.7628L1151.18 51.9517C1151.07 52.3958 1150.87 52.7836 1150.57 53.1151C1150.27 53.4432 1149.9 53.6984 1149.44 53.8807C1148.97 54.0597 1148.45 54.1491 1147.85 54.1491Z" fill="white"/>
<circle cx="306" cy="49" r="20" fill="#F6F5FA"/>
<path d="M306 43C305.258 43 304.533 43.2199 303.917 43.632C303.3 44.044 302.819 44.6297 302.535 45.3149C302.252 46.0002 302.177 46.7542 302.322 47.4816C302.467 48.209 302.824 48.8772 303.348 49.4017C303.873 49.9261 304.541 50.2833 305.268 50.4279C305.996 50.5726 306.75 50.4984 307.435 50.2145C308.12 49.9307 308.706 49.4501 309.118 48.8334C309.53 48.2167 309.75 47.4917 309.75 46.75C309.75 45.7554 309.355 44.8016 308.652 44.0983C307.948 43.3951 306.995 43 306 43ZM306 49C305.555 49 305.12 48.868 304.75 48.6208C304.38 48.3736 304.092 48.0222 303.921 47.611C303.751 47.1999 303.706 46.7475 303.793 46.311C303.88 45.8746 304.094 45.4737 304.409 45.159C304.724 44.8443 305.125 44.63 305.561 44.5432C305.998 44.4564 306.45 44.501 306.861 44.6713C307.272 44.8416 307.624 45.13 307.871 45.5C308.118 45.87 308.25 46.305 308.25 46.75C308.25 47.3467 308.013 47.919 307.591 48.341C307.169 48.7629 306.597 49 306 49ZM306 38.5C303.813 38.5025 301.716 39.3725 300.169 40.9191C298.622 42.4657 297.752 44.5627 297.75 46.75C297.75 49.6938 299.11 52.8138 301.688 55.7734C302.846 57.1108 304.149 58.3151 305.573 59.3641C305.7 59.4524 305.85 59.4998 306.004 59.4998C306.158 59.4998 306.308 59.4524 306.434 59.3641C307.856 58.3147 309.157 57.1104 310.312 55.7734C312.886 52.8138 314.25 49.6938 314.25 46.75C314.248 44.5627 313.378 42.4657 311.831 40.9191C310.284 39.3725 308.187 38.5025 306 38.5ZM306 57.8125C304.45 56.5938 299.25 52.1172 299.25 46.75C299.25 44.9598 299.961 43.2429 301.227 41.977C302.493 40.7112 304.21 40 306 40C307.79 40 309.507 40.7112 310.773 41.977C312.039 43.2429 312.75 44.9598 312.75 46.75C312.75 52.1153 307.55 56.5938 306 57.8125Z" fill="#2A2C36"/>
<path d="M335.233 43.8182H336.705L340.165 52.2699H340.284L343.744 43.8182H345.216V54H344.062V46.2642H343.963L340.781 54H339.668L336.486 46.2642H336.386V54H335.233V43.8182ZM350.631 54.1591C349.942 54.1591 349.337 53.995 348.817 53.6669C348.3 53.3388 347.895 52.8797 347.604 52.2898C347.315 51.6998 347.171 51.0104 347.171 50.2216C347.171 49.4261 347.315 48.7318 347.604 48.1385C347.895 47.5452 348.3 47.0845 348.817 46.7564C349.337 46.4283 349.942 46.2642 350.631 46.2642C351.321 46.2642 351.924 46.4283 352.441 46.7564C352.961 47.0845 353.366 47.5452 353.654 48.1385C353.946 48.7318 354.091 49.4261 354.091 50.2216C354.091 51.0104 353.946 51.6998 353.654 52.2898C353.366 52.8797 352.961 53.3388 352.441 53.6669C351.924 53.995 351.321 54.1591 350.631 54.1591ZM350.631 53.1051C351.155 53.1051 351.586 52.9709 351.924 52.7024C352.262 52.4339 352.512 52.081 352.675 51.6435C352.837 51.206 352.918 50.732 352.918 50.2216C352.918 49.7112 352.837 49.2356 352.675 48.7947C352.512 48.3539 352.262 47.9976 351.924 47.7259C351.586 47.4541 351.155 47.3182 350.631 47.3182C350.108 47.3182 349.677 47.4541 349.339 47.7259C349.001 47.9976 348.75 48.3539 348.588 48.7947C348.425 49.2356 348.344 49.7112 348.344 50.2216C348.344 50.732 348.425 51.206 348.588 51.6435C348.75 52.081 349.001 52.4339 349.339 52.7024C349.677 52.9709 350.108 53.1051 350.631 53.1051ZM358.985 54.1591C358.269 54.1591 357.652 53.9901 357.135 53.652C356.618 53.3139 356.221 52.8482 355.942 52.255C355.664 51.6617 355.525 50.9839 355.525 50.2216C355.525 49.446 355.667 48.7616 355.952 48.1683C356.24 47.5717 356.641 47.1061 357.155 46.7713C357.672 46.4332 358.275 46.2642 358.965 46.2642C359.502 46.2642 359.986 46.3636 360.417 46.5625C360.847 46.7614 361.2 47.0398 361.475 47.3977C361.751 47.7557 361.921 48.1733 361.988 48.6506H360.814C360.725 48.3026 360.526 47.9943 360.218 47.7259C359.913 47.4541 359.502 47.3182 358.985 47.3182C358.527 47.3182 358.126 47.4375 357.782 47.6761C357.44 47.9115 357.173 48.2446 356.981 48.6754C356.792 49.103 356.698 49.6051 356.698 50.1818C356.698 50.7718 356.791 51.2855 356.976 51.723C357.165 52.1605 357.43 52.5002 357.772 52.7422C358.116 52.9841 358.521 53.1051 358.985 53.1051C359.29 53.1051 359.566 53.0521 359.815 52.946C360.064 52.84 360.274 52.6875 360.446 52.4886C360.619 52.2898 360.741 52.0511 360.814 51.7727H361.988C361.921 52.2235 361.757 52.6295 361.495 52.9908C361.237 53.3487 360.894 53.6338 360.466 53.8459C360.042 54.0547 359.548 54.1591 358.985 54.1591ZM363.703 54V46.3636H364.876V49.6847H365.652L368.396 46.3636H369.907L366.825 50.0426L369.947 54H368.436L365.93 50.7784H364.876V54H363.703ZM371.222 54V46.3636H374.344C375.166 46.3636 375.819 46.5492 376.303 46.9205C376.787 47.2917 377.029 47.7822 377.029 48.392C377.029 48.8561 376.892 49.2157 376.616 49.4709C376.341 49.7228 375.988 49.8935 375.558 49.983C375.839 50.0227 376.113 50.1222 376.378 50.2812C376.646 50.4403 376.868 50.6591 377.044 50.9375C377.22 51.2126 377.308 51.5507 377.308 51.9517C377.308 52.3428 377.208 52.6925 377.009 53.0007C376.81 53.3089 376.525 53.5526 376.154 53.7315C375.783 53.9105 375.339 54 374.822 54H371.222ZM372.336 52.9261H374.822C375.226 52.9261 375.543 52.83 375.771 52.6378C376 52.4455 376.114 52.1837 376.114 51.8523C376.114 51.4579 376 51.148 375.771 50.9226C375.543 50.6939 375.226 50.5795 374.822 50.5795H372.336V52.9261ZM372.336 49.5653H374.344C374.659 49.5653 374.929 49.5223 375.155 49.4361C375.38 49.3466 375.553 49.2206 375.672 49.0582C375.795 48.8925 375.856 48.697 375.856 48.4716C375.856 48.1501 375.722 47.8982 375.453 47.7159C375.185 47.5303 374.815 47.4375 374.344 47.4375H372.336V49.5653ZM381.331 54.179C380.847 54.179 380.408 54.0878 380.013 53.9055C379.619 53.7199 379.306 53.4531 379.074 53.1051C378.842 52.7538 378.726 52.3295 378.726 51.8324C378.726 51.3949 378.812 51.0402 378.984 50.7685C379.157 50.4934 379.387 50.2779 379.675 50.1222C379.964 49.9664 380.282 49.8504 380.63 49.7741C380.981 49.6946 381.334 49.6316 381.689 49.5852C382.153 49.5256 382.529 49.4808 382.817 49.451C383.109 49.4179 383.321 49.3632 383.454 49.2869C383.59 49.2107 383.657 49.0781 383.657 48.8892V48.8494C383.657 48.3589 383.523 47.9777 383.255 47.706C382.99 47.4342 382.587 47.2983 382.047 47.2983C381.487 47.2983 381.047 47.4209 380.729 47.6662C380.411 47.9115 380.187 48.1733 380.058 48.4517L378.944 48.054C379.143 47.59 379.408 47.2287 379.74 46.9702C380.075 46.7083 380.439 46.526 380.834 46.4233C381.231 46.3172 381.622 46.2642 382.007 46.2642C382.252 46.2642 382.534 46.294 382.852 46.3537C383.174 46.41 383.483 46.5277 383.782 46.7067C384.083 46.8857 384.334 47.1558 384.532 47.517C384.731 47.8783 384.831 48.3622 384.831 48.9688V54H383.657V52.9659H383.598C383.518 53.1316 383.386 53.3089 383.2 53.4979C383.015 53.6868 382.768 53.8475 382.459 53.9801C382.151 54.1127 381.775 54.179 381.331 54.179ZM381.51 53.125C381.974 53.125 382.365 53.0339 382.683 52.8516C383.005 52.6693 383.247 52.4339 383.409 52.1456C383.575 51.8572 383.657 51.554 383.657 51.2358V50.1619C383.608 50.2216 383.498 50.2763 383.329 50.326C383.164 50.3724 382.971 50.4138 382.753 50.4503C382.537 50.4834 382.327 50.5133 382.121 50.5398C381.919 50.563 381.755 50.5829 381.629 50.5994C381.324 50.6392 381.039 50.7038 380.774 50.7933C380.512 50.8795 380.3 51.0104 380.138 51.1861C379.979 51.3584 379.899 51.5937 379.899 51.892C379.899 52.2997 380.05 52.608 380.351 52.8168C380.656 53.0223 381.042 53.125 381.51 53.125Z" fill="#2A2C36"/>
</svg>
